<svg data-v-423bf9ae="" xmlns="http://www.w3.org/2000/svg" viewBox="0 0 327.5084491097976 163" class="iconAbove"><!----><!----><!----><g data-v-423bf9ae="" id="bb6f95c0-87f7-4d8e-8d1a-ded168f4699a" fill="white" transform="matrix(5.084745680522181,0,0,5.084745680522181,-2.2372922161229667,85.05084765481386)"><path d="M1.71 3.55L0.44 4.59L0.53 4.81Q0.95 4.46 0.94 5.33L0.94 5.33Q0.87 11.50 0.99 11.98Q1.11 12.46 1.69 12.75L1.69 12.75L2.83 11.59L2.66 11.35Q2.26 11.83 2.13 11.27Q2.01 10.70 2.09 4.38L2.09 4.38Q2.00 3.83 1.71 3.55L1.71 3.55ZM6.30 6.53Q5.63 6.63 5.18 6.92Q4.73 7.21 4.37 7.57Q4.01 7.94 3.92 8.43Q3.82 8.93 4.25 9.37Q4.68 9.80 5.73 10.02Q6.78 10.24 7.18 10.47Q7.58 10.70 7.67 11.11Q7.76 11.53 7.46 11.79Q7.16 12.05 6.38 11.93Q5.61 11.81 5.20 11.55Q4.79 11.29 4.43 10.89Q4.07 10.50 4.34 10.34L4.34 10.34L4.25 10.25L3.49 10.84Q3.36 11.20 3.76 11.70Q4.15 12.21 4.73 12.52Q5.31 12.82 6.04 12.80Q6.76 12.78 7.36 12.34Q7.96 11.90 8.26 11.35Q8.57 10.81 8.47 10.36Q8.38 9.91 7.97 9.56Q7.55 9.20 6.25 8.95Q4.94 8.70 4.89 8.09Q4.83 7.48 5.43 7.31Q6.02 7.14 6.74 7.45Q7.45 7.76 7.17 8.13L7.17 8.13L7.26 8.24L8.07 7.40Q7.96 6.93 7.46 6.68Q6.96 6.43 6.30 6.53ZM10.29 3.53L9.34 4.05Q9.64 4.42 9.63 5.35L9.63 5.35Q9.44 11.53 9.55 12.01Q9.67 12.50 10.23 12.80L10.23 12.80L11.55 11.96L11.42 11.72Q10.92 12.04 10.67 11.35Q10.42 10.66 10.64 4.89L10.64 4.89Q10.61 3.89 10.29 3.53L10.29 3.53ZM14.93 6.54Q13.91 6.56 13.07 7.23Q12.22 7.90 12.65 8.74L12.65 8.74L13.76 8.07Q13.54 6.90 14.97 7.03Q16.39 7.15 16.21 8.89L16.21 8.89Q15.10 8.39 14.22 8.61Q13.34 8.82 12.61 9.71L12.61 9.71Q12.02 10.58 12.23 11.18Q12.45 11.79 12.93 12.23Q13.41 12.67 14.01 12.71Q14.61 12.76 15.02 12.48Q15.43 12.20 16.22 11.49L16.22 11.49Q16.29 12.36 16.78 12.76L16.78 12.76L17.90 11.80L17.81 11.64Q17.24 12.10 17.18 10.58L17.18 10.58L17.19 8.14Q17.15 7.23 16.55 6.88Q15.95 6.53 14.93 6.54ZM15.91 9.84L15.91 9.84L16.18 9.47L16.19 11.08Q15.32 11.95 14.70 11.90Q14.08 11.85 13.65 11.48Q13.23 11.12 13.04 10.64Q12.84 10.17 13.11 9.71Q13.38 9.26 14.16 9.19Q14.95 9.11 15.91 9.84ZM23.63 7.75L23.65 8.42Q24.48 7.22 25.49 7.23Q26.50 7.23 26.39 8.74L26.39 8.74Q26.37 11.40 26.41 11.89Q26.46 12.39 27.04 12.74L27.04 12.74L28.15 11.93L28.08 11.77Q27.38 12.26 27.42 10.05Q27.45 7.83 27.32 7.37Q27.19 6.90 26.47 6.60Q25.74 6.29 25.11 6.64Q24.47 6.99 24.19 7.22Q23.91 7.44 23.63 7.75L23.63 7.75ZM19.61 6.55L18.32 7.42L18.40 7.57Q19.02 7.20 19.04 8.48L19.04 8.48Q18.97 11.45 19.06 11.91Q19.15 12.37 19.72 12.71L19.72 12.71L20.79 12.00L20.79 11.84Q20.22 11.92 20.14 11.07Q20.06 10.23 20.13 8.33L20.13 8.33Q20.86 7.22 21.86 7.23Q22.87 7.23 22.76 8.74L22.76 8.74Q22.74 11.40 22.79 11.89Q22.84 12.39 23.42 12.74L23.42 12.74L24.53 11.93L24.45 11.77Q23.76 12.26 23.80 10.05Q23.83 7.83 23.70 7.37Q23.57 6.90 22.85 6.60Q22.12 6.29 21.49 6.64Q20.85 6.99 20.57 7.22Q20.29 7.44 20.10 7.66L20.10 7.66Q20.17 6.81 19.61 6.55L19.61 6.55ZM29.27 3.62L28.52 4.97L29.51 4.96L30.84 7.75L29.62 9.40Q28.71 10.39 28.73 11.19Q28.76 11.99 29.14 12.46Q29.52 12.92 29.79 12.76L29.79 12.76L30.57 11.37Q29.94 11.32 29.75 10.89Q29.56 10.46 29.72 10.11L29.72 10.11L31.02 8.21L33.07 12.23Q33.60 12.97 33.98 12.47L33.98 12.47L34.50 11.25L34.37 11.09Q33.99 11.91 31.94 7.28L31.94 7.28L34.18 4.07L33.99 3.65L32.44 3.65L31.65 4.94L33.00 4.94L31.66 6.76L30.11 3.62L29.27 3.62ZM36.16 6.60L34.86 7.60L35.02 7.76Q35.71 7.01 35.66 10.69L35.66 10.69L34.99 11.17Q35.20 11.39 35.59 11.74L35.59 11.74Q35.47 14.64 36.14 15.33L36.14 15.33L37.04 14.73Q36.49 14.10 36.57 12.30L36.57 12.30Q37.34 12.65 38.29 12.32Q39.24 11.98 39.82 11.33Q40.39 10.67 40.71 9.68Q41.02 8.70 40.40 7.54Q39.79 6.38 38.21 6.56L38.21 6.56L36.67 7.75Q36.72 7.04 36.16 6.60L36.16 6.60ZM36.72 8.14Q37.78 7.09 38.65 7.68Q39.53 8.28 39.68 9.45Q39.82 10.62 39.46 11.12Q39.11 11.61 38.46 11.70Q37.80 11.79 36.72 11.16L36.72 11.16L36.72 8.14ZM42.72 3.53L41.77 4.05Q42.06 4.42 42.05 5.35L42.05 5.35Q41.86 11.53 41.98 12.01Q42.09 12.50 42.66 12.80L42.66 12.80L43.98 11.96L43.84 11.72Q43.34 12.04 43.09 11.35Q42.84 10.66 43.06 4.89L43.06 4.89Q43.03 3.89 42.72 3.53L42.72 3.53ZM47.09 6.45Q45.94 7.21 45.47 7.77Q44.99 8.33 44.80 8.89Q44.61 9.46 44.74 10.32Q44.86 11.17 45.73 11.96Q46.60 12.75 47.12 12.75Q47.64 12.76 48.75 11.73L48.75 11.73Q49.18 11.34 49.58 10.82Q49.97 10.31 50.08 9.74Q50.20 9.17 50.02 8.50Q49.85 7.83 49.04 7.04Q48.23 6.25 47.09 6.45L47.09 6.45ZM46.73 7.26Q47.52 7.08 48.45 8.24Q49.39 9.41 49.19 10.23Q48.99 11.06 48.34 11.56Q47.68 12.05 46.94 11.45Q46.20 10.84 45.77 10.15Q45.33 9.46 45.64 8.45Q45.94 7.43 46.73 7.26ZM51.74 6.46L50.52 7.35L50.64 7.52Q51.21 7.06 51.23 8.50L51.23 8.50Q51.16 11.46 51.25 11.91Q51.34 12.37 51.97 12.71L51.97 12.71L53.03 11.87L52.94 11.75Q52.40 11.96 52.30 11.08Q52.20 10.19 52.27 8.11L52.27 8.11Q53.29 6.60 54.11 8.12L54.11 8.12L54.98 7.42Q54.70 6.74 54.24 6.57Q53.79 6.39 53.35 6.58Q52.92 6.76 52.21 7.66L52.21 7.66Q52.27 6.82 51.74 6.46L51.74 6.46ZM58.46 6.60Q57.39 6.43 56.46 7.26Q55.54 8.09 55.28 9.20Q55.02 10.31 55.44 11.26Q55.86 12.22 57.00 12.62L57.00 12.62Q57.93 12.93 58.93 12.18Q59.94 11.43 60.05 10.84L60.05 10.84L59.84 10.68Q59.02 11.85 58.24 11.81Q57.46 11.76 57.08 11.46Q56.69 11.15 56.48 10.80L56.48 10.80L58.37 9.54Q59.81 8.65 59.67 7.70Q59.53 6.76 58.46 6.60ZM56.03 8.75Q56.03 8.12 56.54 7.58Q57.05 7.04 57.64 7.19Q58.24 7.34 58.48 8.00Q58.71 8.67 58.42 9.02Q58.13 9.37 56.30 10.40L56.30 10.40Q56.14 10.04 56.08 9.71Q56.02 9.37 56.03 8.75ZM61.61 6.46L60.40 7.35L60.51 7.52Q61.09 7.06 61.10 8.50L61.10 8.50Q61.03 11.46 61.12 11.91Q61.21 12.37 61.84 12.71L61.84 12.71L62.90 11.87L62.82 11.75Q62.28 11.96 62.17 11.08Q62.07 10.19 62.15 8.11L62.15 8.11Q63.16 6.60 63.98 8.12L63.98 8.12L64.85 7.42Q64.57 6.74 64.11 6.57Q63.66 6.39 63.22 6.58Q62.79 6.76 62.08 7.66L62.08 7.66Q62.14 6.82 61.61 6.46L61.61 6.46Z"></path></g><!----><g data-v-423bf9ae="" id="af79083a-bdad-438a-a769-b1ad5433f906" transform="matrix(1.045296093147723,0,0,1.045296093147723,112.33972335693335,-8.371427998369505)" stroke="none" fill="white"><path d="M79.3 30.2c6.1 0 11-4.9 11-11s-4.9-11-11-11-11 4.9-11 11c0 2.7 1 5.1 2.5 7L57.4 40.5c-1.9-1.6-4.4-2.6-7.1-2.6-2.7 0-5.1.9-7 2.5L29.8 27.9c.6-1.1 1-2.3 1-3.7 0-4-3.3-7.3-7.3-7.3s-7.3 3.3-7.3 7.3 3.3 7.3 7.3 7.3c1.6 0 3.1-.6 4.4-1.5l13.5 12.5c-1.3 1.8-2 4-2 6.3 0 2.6.9 5 2.4 6.9L26.9 71.5c-1.8-1.3-4-2.1-6.4-2.1-6.1 0-11 4.9-11 11s4.9 11 11 11 11-4.9 11-11c0-2.6-.9-5-2.4-6.9l14.8-15.7c1.7 1.3 3.9 2 6.2 2.1L52 77.1c-3.7 1.1-6.4 4.4-6.4 8.4 0 4.9 3.9 8.8 8.8 8.8s8.8-3.9 8.8-8.8c0-4.7-3.7-8.5-8.3-8.8L53 59.6c2-.5 3.9-1.6 5.3-3.1L72 66.4c-.4.9-.7 1.9-.7 3 0 4 3.3 7.3 7.3 7.3s7.3-3.3 7.3-7.3-3.3-7.3-7.3-7.3c-1.9 0-3.6.7-4.9 1.9L60 54.1c.8-1.5 1.3-3.3 1.3-5.2 0-2.3-.7-4.4-1.9-6.2L73 28.3c1.8 1.2 3.9 1.9 6.3 1.9z"></path></g><!----></svg>