<?xml version="1.0" encoding="UTF-8" standalone="no"?>
<svg
   data-v-fde0c5aa=""
   viewBox="0 0 300 60"
   class="iconAbove"
   version="1.1"
   id="svg3"
   sodipodi:docname="default.svg"
   inkscape:export-filename="..\..\..\..\..\..\Desktop\secondary_logo.png"
   inkscape:export-xdpi="327.67999"
   inkscape:export-ydpi="327.67999"
   inkscape:version="1.3.2 (091e20e, 2023-11-25, custom)"
   width="300"
   height="60"
   xmlns:inkscape="http://www.inkscape.org/namespaces/inkscape"
   xmlns:sodipodi="http://sodipodi.sourceforge.net/DTD/sodipodi-0.dtd"
   xmlns:xlink="http://www.w3.org/1999/xlink"
   xmlns="http://www.w3.org/2000/svg"
   xmlns:svg="http://www.w3.org/2000/svg">
  <sodipodi:namedview
     id="namedview3"
     pagecolor="#505050"
     bordercolor="#eeeeee"
     borderopacity="1"
     inkscape:showpageshadow="0"
     inkscape:pageopacity="0"
     inkscape:pagecheckerboard="0"
     inkscape:deskcolor="#d1d1d1"
     inkscape:zoom="1.295"
     inkscape:cx="37.065637"
     inkscape:cy="69.88417"
     inkscape:window-width="1920"
     inkscape:window-height="991"
     inkscape:window-x="-9"
     inkscape:window-y="-9"
     inkscape:window-maximized="1"
     inkscape:current-layer="svg3" />
  <!---->
  <defs
     data-v-fde0c5aa=""
     id="defs1">
    <!---->
    <linearGradient
       data-v-fde0c5aa=""
       gradientTransform="rotate(25)"
       id="linearGradient3261"
       x1="0"
       y1="0"
       x2="1"
       y2="0">
      <stop
         data-v-fde0c5aa=""
         offset="0"
         stop-color="#30223A"
         stop-opacity="1"
         id="stop3257"
         style="stop-color:#f0fff0;stop-opacity:1;" />
      <stop
         data-v-fde0c5aa=""
         offset="1"
         stop-color="#F13800"
         stop-opacity="1"
         id="stop3259"
         style="stop-color:#f1bb00;stop-opacity:1;" />
    </linearGradient>
    <linearGradient
       inkscape:collect="always"
       xlink:href="#3880f7c4-a4b3-4d94-a7b8-2f5dff74b750-8"
       id="linearGradient252"
       gradientTransform="matrix(1.2104934,0,0,1.1841656,87.646771,-203.07705)"
       x1="9.8066235"
       y1="7.9436107"
       x2="93.214539"
       y2="7.9436107"
       gradientUnits="userSpaceOnUse" />
    <linearGradient
       data-v-fde0c5aa=""
       gradientTransform="rotate(25)"
       id="3880f7c4-a4b3-4d94-a7b8-2f5dff74b750-8"
       x1="0"
       y1="0"
       x2="1"
       y2="0">
      <stop
         data-v-fde0c5aa=""
         offset="0.12"
         stop-color="#30223A"
         stop-opacity="1"
         id="stop11"
         style="stop-color:#2c124a;stop-opacity:1;" />
      <stop
         data-v-fde0c5aa=""
         offset="1"
         stop-color="#F13800"
         stop-opacity="1"
         id="stop13"
         style="stop-color:#f12500;stop-opacity:1;" />
    </linearGradient>
    <linearGradient
       inkscape:collect="always"
       xlink:href="#3880f7c4-a4b3-4d94-a7b8-2f5dff74b750-8"
       id="linearGradient3"
       gradientUnits="userSpaceOnUse"
       gradientTransform="matrix(0.59348325,0,0,0.58057522,4.6050419,1.6940999)"
       x1="9.8066235"
       y1="7.9436107"
       x2="93.214539"
       y2="7.9436107" />
  </defs>
  <defs
     data-v-fde0c5aa=""
     id="defs2">
    <!---->
  </defs>
  <defs
     data-v-fde0c5aa=""
     id="defs3">
    <linearGradient
       data-v-fde0c5aa=""
       gradientTransform="rotate(25)"
       id="3880f7c4-a4b3-4d94-a7b8-2f5dff74b750"
       x1="0"
       y1="0"
       x2="1"
       y2="0">
      <stop
         data-v-fde0c5aa=""
         offset="0%"
         stop-color="#30223A"
         stop-opacity="1"
         id="stop2" />
      <stop
         data-v-fde0c5aa=""
         offset="100%"
         stop-color="#F13800"
         stop-opacity="1"
         id="stop3" />
    </linearGradient>
  </defs>
  <g
     id="g2">
    <path
       d="m 25.126526,-85.05675 -5.126533,4.198106 0.363297,0.888061 q 1.695389,-1.412824 1.655023,2.099053 v 0 q -0.282565,24.906072 0.201832,26.843659 0.484397,1.937588 2.825648,3.108213 v 0 l 4.601771,-4.682503 -0.686229,-0.968793 q -1.614656,1.937587 -2.13942,-0.322932 -0.484397,-2.300885 -0.161465,-27.812453 v 0 q -0.363298,-2.220152 -1.533924,-3.350411 z m 18.52818,12.029188 q -2.704549,0.403665 -4.521037,1.57429 -1.816488,1.170626 -3.269679,2.623817 -1.453191,1.493557 -1.816488,3.47151 -0.403664,2.018321 1.332091,3.794442 1.735756,1.735756 5.974228,2.623817 4.238473,0.888061 5.853129,1.816488 1.614656,0.928427 1.977954,2.58345 0.363297,1.695389 -0.847695,2.744915 -1.210992,1.049527 -4.359572,0.56513 -3.108213,-0.484397 -4.763235,-1.533923 -1.655023,-1.049527 -3.108214,-2.664183 -1.45319,-1.57429 -0.363297,-2.220152 v 0 l -0.363298,-0.363298 -3.067847,2.381618 q -0.524763,1.453191 1.089893,3.471511 1.57429,2.058687 3.915542,3.310045 2.341251,1.210992 5.287999,1.130259 2.906381,-0.08073 5.328365,-1.856854 2.421984,-1.776122 3.632977,-3.996274 1.251358,-2.179786 0.847694,-3.996274 -0.363298,-1.816489 -2.01832,-3.229313 -1.695389,-1.45319 -6.943022,-2.462351 -5.287999,-1.00916 -5.489831,-3.47151 -0.242198,-2.462351 2.179786,-3.14858 2.381618,-0.686229 5.287999,0.56513 2.866015,1.251358 1.735755,2.744915 v 0 l 0.363298,0.444031 3.269679,-3.390778 q -0.444031,-1.897221 -2.462351,-2.906381 -2.01832,-1.009161 -4.682503,-0.605497 z m 16.106196,-12.109921 -3.834809,2.099053 q 1.210992,1.493557 1.170626,5.247633 v 0 q -0.766962,24.946438 -0.322931,26.884025 0.484397,1.977954 2.744915,3.188946 v 0 l 5.328366,-3.390778 -0.524763,-0.968793 q -2.018321,1.291725 -3.027481,-1.493557 -1.00916,-2.785282 -0.121099,-26.076698 v 0 q -0.121099,-4.03664 -1.412824,-5.489831 z m 18.730012,12.150288 q -4.117374,0.08073 -7.508152,2.785282 -3.431144,2.704549 -1.695389,6.095327 v 0 l 4.480671,-2.704549 q -0.888061,-4.72287 4.884335,-4.198106 5.73203,0.484397 5.005435,7.508151 v 0 q -4.480671,-2.01832 -8.032915,-1.130259 -3.552244,0.847694 -6.498991,4.440304 v 0 q -2.381618,3.511877 -1.533924,5.933862 0.888061,2.46235 2.825649,4.238472 1.937587,1.776122 4.359571,1.937588 2.421985,0.201832 4.077007,-0.928428 1.655023,-1.130259 4.843969,-3.996274 v 0 q 0.282565,3.511878 2.260519,5.126534 v 0 l 4.521037,-3.875175 -0.363298,-0.645863 q -2.300885,1.856855 -2.543083,-4.278839 v 0 l 0.04037,-9.849402 q -0.161465,-3.673343 -2.58345,-5.086167 -2.421984,-1.412825 -6.539357,-1.372458 z m 3.955907,13.320914 v 0 l 1.089893,-1.493557 0.04037,6.498991 q -3.511878,3.511877 -6.014595,3.310045 -2.502717,-0.201832 -4.238472,-1.695389 -1.695389,-1.453191 -2.462351,-3.390778 -0.807328,-1.897221 0.282565,-3.754076 1.089893,-1.816488 4.238472,-2.099053 3.188946,-0.322931 7.064121,2.623817 z m 31.162869,-8.436579 0.0807,2.704549 q 3.35041,-4.843969 7.42742,-4.803602 4.077,0 3.63297,6.095327 v 0 q -0.0807,10.737464 0.0807,12.715418 0.20183,2.01832 2.54308,3.431144 v 0 l 4.48067,-3.269679 -0.28256,-0.645862 q -2.82565,1.977954 -2.66419,-6.943022 0.1211,-8.961342 -0.40366,-10.818197 -0.52476,-1.897221 -3.43114,-3.108213 -2.94675,-1.251358 -5.48984,0.161466 -2.58345,1.412824 -3.71371,2.341251 -1.13025,0.888061 -2.26051,2.13942 z m -16.227299,-4.843969 -5.207266,3.511878 0.322931,0.605496 q 2.502717,-1.493557 2.58345,3.673342 v 0 q -0.282565,11.988823 0.08073,13.845677 0.363298,1.856855 2.664183,3.229313 v 0 l 4.319211,-2.866015 V -51.593 q -2.300891,0.322931 -2.623822,-3.108214 -0.322932,-3.390778 -0.04037,-11.060395 v 0 q 2.946742,-4.480671 6.983382,-4.440304 4.07701,0 3.63298,6.095327 v 0 q -0.0807,10.737464 0.1211,12.715418 0.20183,2.01832 2.54308,3.431144 v 0 l 4.48067,-3.269679 -0.32293,-0.645862 q -2.78528,1.977954 -2.62382,-6.943022 0.1211,-8.961342 -0.40366,-10.818197 -0.52476,-1.897221 -3.43114,-3.108213 -2.94675,-1.251358 -5.48983,0.161466 -2.58345,1.412824 -3.71371,2.341251 -1.13026,0.888061 -1.897221,1.776122 v 0 q 0.282565,-3.431144 -1.977954,-4.480671 z m 38.993949,-11.827356 -3.02748,5.449464 3.99627,-0.04037 5.36873,11.262227 -4.9247,6.660457 q -3.67334,3.996274 -3.59261,7.225586 0.1211,3.229313 1.65503,5.126534 1.53392,1.856854 2.62381,1.210992 v 0 l 3.14858,-5.610931 q -2.54308,-0.201832 -3.31004,-1.937587 -0.76697,-1.735755 -0.1211,-3.14858 v 0 l 5.24763,-7.669616 8.27511,16.227294 q 2.13942,2.987114 3.67335,0.968794 v 0 l 2.09905,-4.924701 -0.52477,-0.645863 q -1.53392,3.310045 -9.80903,-15.3796 v 0 l 9.04207,-12.957616 -0.76696,-1.695389 h -6.25679 l -3.18895,5.207266 h 5.44947 l -5.4091,7.346686 -6.25679,-12.675051 z m 27.81245,12.029188 -5.24763,4.036641 0.64586,0.645862 q 2.78528,-3.02748 2.58345,11.827357 v 0 l -2.70455,1.937587 q 0.8477,0.888061 2.42199,2.300885 v 0 q -0.4844,11.706258 2.22015,14.49154 v 0 l 3.63298,-2.421984 q -2.22016,-2.543084 -1.89723,-9.809037 v 0 q 3.10822,1.412824 6.94303,0.08073 3.8348,-1.372458 6.17606,-3.996274 2.30088,-2.664183 3.59261,-6.660457 1.25135,-3.955908 -1.25136,-8.638411 -2.46235,-4.682503 -8.84025,-3.955907 v 0 l -6.21642,4.803602 q 0.20183,-2.866015 -2.05869,-4.642137 z m 2.26052,6.216427 q 4.27884,-4.238473 7.79072,-1.856855 3.55224,2.421984 4.15774,7.144854 0.56513,4.722869 -0.88806,6.741189 -1.41283,1.977954 -4.03665,2.341252 -2.66418,0.363297 -7.02375,-2.179786 v 0 z m 24.21984,-18.608913 -3.83481,2.099053 q 1.17063,1.493557 1.13026,5.247633 v 0 q -0.76696,24.946438 -0.28256,26.884025 0.44403,1.977954 2.74491,3.188946 v 0 l 5.32837,-3.390778 -0.56513,-0.968793 q -2.01832,1.291725 -3.02748,-1.493557 -1.00916,-2.785282 -0.1211,-26.076698 v 0 q -0.1211,-4.03664 -1.37246,-5.489831 z m 17.64012,11.78699 q -4.64213,3.067847 -6.53936,5.328366 -1.93758,2.260518 -2.70454,4.521037 -0.76697,2.300885 -0.2422,5.772396 0.48439,3.431144 3.99627,6.62009 3.51188,3.188946 5.61093,3.188946 2.09905,0.04037 6.57973,-4.117373 v 0 q 1.73575,-1.57429 3.35041,-3.673343 1.57429,-2.058686 2.01832,-4.359572 0.48439,-2.300885 -0.2422,-5.005434 -0.68623,-2.704549 -3.95591,-5.893495 -3.26968,-3.188946 -7.87145,-2.381618 z m -1.45319,3.269679 q 3.18895,-0.726595 6.94302,3.955908 3.79445,4.722869 2.98712,8.032914 -0.80733,3.350412 -3.43115,5.368732 -2.66418,1.977954 -5.65129,-0.44403 -2.98712,-2.462351 -4.72287,-5.247633 -1.77613,-2.785282 -0.52477,-6.862289 1.211,-4.117373 4.39994,-4.803602 z m 20.22357,-3.229312 -4.9247,3.59261 0.4844,0.686229 q 2.30088,-1.856855 2.38161,3.955907 v 0 q -0.28256,11.948456 0.0807,13.764944 0.36329,1.856855 2.90638,3.229313 v 0 l 4.27884,-3.390778 -0.3633,-0.484397 q -2.17979,0.847694 -2.58345,-2.704549 -0.40366,-3.59261 -0.1211,-11.988823 v 0 q 4.11737,-6.095327 7.42742,0.04037 v 0 l 3.51188,-2.825648 q -1.13026,-2.744916 -2.98712,-3.431145 -1.81649,-0.726595 -3.59261,0.04037 -1.73575,0.726596 -4.60177,4.359572 v 0 q 0.2422,-3.390778 -1.89722,-4.843968 z m 27.12622,0.565129 q -4.3192,-0.686229 -8.07328,2.664183 -3.71371,3.350412 -4.76323,7.831083 -1.04953,4.480671 0.64586,8.315479 1.69539,3.875175 6.29716,5.489831 v 0 q 3.75408,1.251359 7.79072,-1.776122 4.077,-3.02748 4.52103,-5.409098 v 0 l -0.84769,-0.645862 q -3.31005,4.722869 -6.45863,4.561403 -3.14858,-0.201832 -4.6825,-1.412824 -1.57429,-1.251358 -2.42198,-2.664183 v 0 l 7.62925,-5.086167 q 5.81276,-3.59261 5.24763,-7.427418 -0.56513,-3.794442 -4.88434,-4.440305 z m -9.80903,8.678777 q 0,-2.543083 2.05868,-4.722869 2.05869,-2.179786 4.44031,-1.57429 2.42198,0.605496 3.39078,3.269679 0.92842,2.704549 -0.2422,4.117373 -1.17063,1.412824 -8.55768,5.570564 v 0 q -0.64586,-1.45319 -0.88806,-2.785282 -0.2422,-1.372458 -0.20183,-3.875175 z m 22.52445,-9.243906 -4.88433,3.59261 0.44403,0.686229 q 2.34125,-1.856855 2.38162,3.955907 v 0 q -0.28257,11.948456 0.0807,13.764944 0.3633,1.856855 2.90638,3.229313 v 0 l 4.27884,-3.390778 -0.32293,-0.484397 q -2.17979,0.847694 -2.62382,-2.704549 -0.40366,-3.59261 -0.0807,-11.988823 v 0 q 4.077,-6.095327 7.38705,0.04037 v 0 l 3.51188,-2.825648 q -1.13026,-2.744916 -2.98712,-3.431145 -1.81648,-0.726595 -3.59261,0.04037 -1.73575,0.726596 -4.60177,4.359572 v 0 q 0.2422,-3.390778 -1.89722,-4.843968 z"
       id="path2"
       style="fill:#250a05;stroke-width:4.03664" />
    <path
       d="m 186.73716,-168.43341 c 7.62233,0 13.7452,-5.62099 13.7452,-12.61855 0,-6.99755 -6.12287,-12.61854 -13.7452,-12.61854 -7.62234,0 -13.7452,5.62099 -13.7452,12.61854 0,3.09728 1.24956,5.85042 3.12391,8.02999 l -16.74415,16.4041 c -2.37417,-1.83542 -5.49808,-2.98256 -8.8719,-2.98256 -3.37383,0 -6.37278,1.03242 -8.74695,2.86785 l -16.86911,-14.33926 c 0.74974,-1.26185 1.24957,-2.63842 1.24957,-4.24441 0,-4.58857 -4.12356,-8.37413 -9.12182,-8.37413 -4.99825,0 -9.12181,3.78556 -9.12181,8.37413 0,4.58856 4.12356,8.37412 9.12181,8.37412 1.9993,0 3.87365,-0.68828 5.49808,-1.72071 l 16.86911,14.33925 c -1.62443,2.06486 -2.49913,4.58856 -2.49913,7.22699 0,2.98256 1.12461,5.7357 2.99896,7.91526 l -18.6185,18.12482 c -2.24922,-1.49128 -4.99825,-2.40899 -7.99721,-2.40899 -7.62233,0 -13.745196,5.62098 -13.745196,12.61854 0,6.99756 6.122866,12.618543 13.745196,12.618543 7.62234,0 13.7452,-5.620983 13.7452,-12.618543 0,-2.98256 -1.12461,-5.7357 -2.99895,-7.91527 l 18.49354,-18.0101 c 2.12426,1.49128 4.8733,2.29428 7.74729,2.40899 l 2.37417,19.73082 c -4.62338,1.26185 -7.9972,5.04741 -7.9972,9.63598 0,5.620983 4.87329,10.09483 10.99616,10.09483 6.12286,0 10.99615,-4.473847 10.99615,-10.09483 0,-5.39156 -4.62338,-9.7507 -10.37137,-10.09484 l -2.37417,-19.6161 c 2.49912,-0.57357 4.87329,-1.83542 6.62268,-3.55613 l 17.11902,11.35669 c -0.49982,1.03242 -0.87469,2.17956 -0.87469,3.44142 0,4.58856 4.12356,8.37412 9.12181,8.37412 4.99826,0 9.12182,-3.78556 9.12182,-8.37412 0,-4.58856 -4.12356,-8.37413 -9.12182,-8.37413 -2.37417,0 -4.49843,0.803 -6.12286,2.17957 l -17.11902,-11.35669 c 0.99965,-1.72071 1.62443,-3.78556 1.62443,-5.96513 0,-2.63842 -0.87469,-5.04742 -2.37417,-7.11227 l 16.99407,-16.51882 c 2.24921,1.37657 4.87329,2.17957 7.87225,2.17957 z"
       id="path18"
       style="fill:url(#linearGradient252);stroke:none;stroke-width:11.9857" />
  </g>
  <!---->
  <g
     id="g3">
    <path
       d="m 67.792993,13.339744 -4.462334,3.654195 0.316228,0.773003 q 1.475733,-1.229778 1.440596,1.827097 v 0 q -0.245955,21.679214 0.175683,23.365766 0.421637,1.686551 2.459554,2.70551 v 0 l 4.00556,-4.075833 -0.597321,-0.843276 Q 69.7255,42.432758 69.268725,40.465114 68.847087,38.462334 69.128179,16.256073 v 0 q -0.316228,-1.932507 -1.335186,-2.916329 z m 16.127649,10.470674 q -2.354145,0.351365 -3.935287,1.370323 -1.581142,1.018958 -2.846056,2.283872 -1.264914,1.30005 -1.581142,3.021738 -0.351365,1.756824 1.159504,3.30283 1.510869,1.510869 5.200201,2.283872 3.689331,0.773003 5.094791,1.581142 1.405459,0.808139 1.721688,2.248735 0.316228,1.475733 -0.737866,2.389282 -1.054095,0.913548 -3.794741,0.49191 -2.70551,-0.421637 -4.146106,-1.335186 -1.440596,-0.913549 -2.70551,-2.319008 -1.264914,-1.370324 -0.316228,-1.932507 v 0 l -0.316229,-0.316229 -2.670373,2.073053 q -0.456774,1.264914 0.948685,3.021738 1.370323,1.791961 3.40824,2.881192 2.037916,1.054095 4.60288,0.983822 2.529827,-0.07027 4.638017,-1.616278 2.108189,-1.546006 3.162284,-3.478513 1.089231,-1.89737 0.737866,-3.478512 -0.316228,-1.581143 -1.756824,-2.81092 -1.475733,-1.264913 -6.043477,-2.143326 -4.60288,-0.878412 -4.778562,-3.021738 -0.210819,-2.143326 1.89737,-2.740646 2.073053,-0.59732 4.60288,0.491911 2.494691,1.089231 1.510869,2.389281 v 0 l 0.316229,0.386502 2.846055,-2.951465 Q 89.753299,25.215877 87.996475,24.337465 86.23965,23.459053 83.920642,23.810418 Z m 14.019459,-10.540947 -3.337966,1.827097 q 1.054094,1.30005 1.018958,4.567744 v 0 q -0.667593,21.714351 -0.281092,23.400902 0.421638,1.721688 2.389281,2.775783 v 0 l 4.638018,-2.951465 -0.45678,-0.843276 q -1.75682,1.124368 -2.635232,-1.30005 -0.878412,-2.424418 -0.10541,-22.698172 v 0 q -0.105409,-3.513649 -1.229777,-4.778563 z m 16.303329,10.576083 q -3.58392,0.07027 -6.53538,2.424418 -2.98661,2.354145 -1.47574,5.30561 v 0 l 3.90015,-2.354145 q -0.773,-4.110969 4.25152,-3.654195 4.98938,0.421638 4.35692,6.535388 v 0 q -3.90015,-1.756825 -6.99216,-0.983822 -3.09201,0.737866 -5.65697,3.865014 v 0 q -2.07306,3.056874 -1.33519,5.165064 0.773,2.143326 2.45955,3.689331 1.68656,1.546006 3.79475,1.686552 2.10818,0.175682 3.54878,-0.80814 1.4406,-0.983821 4.21638,-3.478512 v 0 q 0.24596,3.056875 1.96764,4.462334 v 0 l 3.93529,-3.373103 -0.31623,-0.562184 q -2.00278,1.616279 -2.2136,-3.724468 v 0 l 0.0351,-8.573303 q -0.14055,-3.197421 -2.24874,-4.427198 -2.10819,-1.229777 -5.69211,-1.194641 z m 3.44338,11.595042 v 0 l 0.94868,-1.30005 0.0351,5.656975 q -3.05687,3.056874 -5.23534,2.881192 -2.17846,-0.175682 -3.68933,-1.475733 -1.47573,-1.264913 -2.14332,-2.951465 -0.70273,-1.651415 0.24595,-3.267693 0.94869,-1.581142 3.68933,-1.827098 2.77579,-0.281092 6.14889,2.283872 z m 27.12537,-7.343526 0.0703,2.354144 q 2.91633,-4.216378 6.46512,-4.181242 3.54878,0 3.16228,5.30561 v 0 q -0.0703,9.346307 0.0703,11.067995 0.17569,1.756824 2.2136,2.986601 v 0 l 3.90015,-2.846056 -0.24595,-0.562183 q -2.45956,1.721688 -2.31901,-6.043477 0.10541,-7.8003 -0.35137,-9.416579 -0.45677,-1.651415 -2.9866,-2.70551 -2.56496,-1.089231 -4.77856,0.140546 -2.24874,1.229777 -3.23256,2.037917 -0.98382,0.773002 -1.96764,1.862234 z m -14.12487,-4.216379 -4.53261,3.056874 0.28109,0.527048 q 2.17847,-1.30005 2.24874,3.19742 v 0 q -0.24596,10.435538 0.0703,12.051816 0.31623,1.616279 2.31901,2.81092 v 0 l 3.75961,-2.494691 v -0.562184 q -2.00278,0.281092 -2.28388,-2.70551 -0.28109,-2.951465 -0.0351,-9.627398 v 0 q 2.56496,-3.90015 6.07861,-3.865014 3.54879,0 3.16228,5.30561 v 0 q -0.0703,9.346307 0.10541,11.067995 0.17569,1.756824 2.2136,2.986601 v 0 l 3.90015,-2.846056 -0.28109,-0.562183 q -2.42442,1.721688 -2.28387,-6.043477 0.10541,-7.8003 -0.35137,-9.416579 -0.45677,-1.651415 -2.9866,-2.70551 -2.56496,-1.089231 -4.77856,0.140546 -2.24874,1.229777 -3.23256,2.037917 -0.98382,0.773002 -1.65141,1.546005 v 0 q 0.24595,-2.986601 -1.72169,-3.90015 z m 33.94185,-10.294992 -2.63524,4.743426 3.47851,-0.03514 4.67316,9.803081 -4.28665,5.79752 q -3.19742,3.478513 -3.12715,6.289432 0.10541,2.810919 1.44059,4.462334 1.33519,1.616279 2.28388,1.054095 v 0 l 2.74064,-4.883972 q -2.2136,-0.175682 -2.88119,-1.686551 -0.66759,-1.51087 -0.10541,-2.740647 v 0 l 4.56774,-6.675933 7.20299,14.124869 q 1.86223,2.6001 3.19742,0.843276 v 0 l 1.82709,-4.286652 -0.45677,-0.562184 q -1.33519,2.881192 -8.53817,-13.387002 v 0 l 7.87058,-11.278814 -0.6676,-1.475732 h -5.44615 l -2.77579,4.532607 h 4.74343 l -4.70829,6.394841 -5.44616,-11.032858 z m 24.20904,10.470674 -4.56774,3.513649 0.56218,0.562184 q 2.42442,-2.635237 2.24874,10.294992 v 0 l -2.35415,1.686551 q 0.73787,0.773003 2.10819,2.00278 v 0 q -0.42164,10.189582 1.93251,12.614 v 0 l 3.16228,-2.108189 q -1.9325,-2.213599 -1.65141,-8.538167 v 0 q 2.70551,1.229777 6.04347,0.07027 3.33797,-1.194641 5.37589,-3.478513 2.00278,-2.319008 3.12714,-5.797521 1.08923,-3.443376 -1.08923,-7.519209 -2.14332,-4.075832 -7.69489,-3.443376 v 0 l -5.41102,4.181243 q 0.17568,-2.494691 -1.79196,-4.040697 z m 1.96764,5.41102 q 3.72447,-3.689332 6.78135,-1.616279 3.09201,2.10819 3.61906,6.219159 0.49191,4.110969 -0.77301,5.867794 -1.22977,1.721688 -3.51365,2.037916 -2.319,0.316229 -6.11375,-1.89737 v 0 z m 21.0819,-16.197922 -3.33797,1.827097 q 1.01896,1.30005 0.98382,4.567744 v 0 q -0.66759,21.714351 -0.24595,23.400902 0.3865,1.721688 2.38928,2.775783 v 0 l 4.63802,-2.951465 -0.49191,-0.843276 q -1.75683,1.124368 -2.63524,-1.30005 -0.87841,-2.424418 -0.10541,-22.698172 v 0 q -0.10541,-3.513649 -1.19464,-4.778563 z m 15.35464,10.259855 q -4.04069,2.670373 -5.69211,4.638017 -1.68655,1.967643 -2.35414,3.935287 -0.6676,2.002779 -0.21082,5.024518 0.42164,2.986601 3.47851,5.762384 3.05688,2.775783 4.88397,2.775783 1.8271,0.03514 5.72725,-3.583922 v 0 q 1.51087,-1.370323 2.91633,-3.197421 1.37032,-1.791961 1.75682,-3.794741 0.42164,-2.00278 -0.21081,-4.356925 -0.59732,-2.354144 -3.44338,-5.129927 -2.84606,-2.775783 -6.85162,-2.073053 z m -1.26491,2.846056 q 2.77578,-0.632457 6.04348,3.443376 3.30283,4.110969 2.6001,6.992161 -0.70273,2.916329 -2.9866,4.673153 -2.31901,1.721688 -4.91911,-0.386501 -2.6001,-2.143326 -4.11097,-4.567744 -1.54601,-2.424418 -0.45678,-5.973203 1.0541,-3.583922 3.82988,-4.181242 z m 17.60338,-2.81092 -4.28665,3.127148 0.42164,0.59732 q 2.00278,-1.616278 2.07305,3.443376 v 0 q -0.24595,10.400401 0.0703,11.981543 0.31623,1.616279 2.52983,2.81092 v 0 l 3.72447,-2.951465 -0.31623,-0.421638 q -1.89737,0.737866 -2.24873,-2.354145 -0.35137,-3.127148 -0.10541,-10.435538 v 0 q 3.58392,-5.30561 6.46511,0.03514 v 0 l 3.05688,-2.459555 q -0.98383,-2.389281 -2.60011,-2.986601 -1.58114,-0.632457 -3.12714,0.03514 -1.51087,0.632457 -4.00556,3.794741 v 0 q 0.21082,-2.951465 -1.65142,-4.216379 z m 23.61172,0.491911 q -3.7596,-0.59732 -7.02729,2.319009 -3.23256,2.916328 -4.14611,6.816479 -0.91355,3.90015 0.56218,7.238117 1.47574,3.373103 5.4813,4.778562 v 0 q 3.26769,1.089231 6.78134,-1.546005 3.54878,-2.635237 3.93529,-4.70829 v 0 l -0.73787,-0.562184 q -2.88119,4.11097 -5.62184,3.970424 -2.74065,-0.175683 -4.07583,-1.229778 -1.37033,-1.089231 -2.10819,-2.319008 v 0 l 6.6408,-4.427198 q 5.05965,-3.127147 4.56774,-6.465114 -0.49191,-3.30283 -4.25152,-3.865014 z m -8.53816,7.554346 q 0,-2.213599 1.79196,-4.11097 1.79196,-1.89737 3.86501,-1.370323 2.10819,0.527048 2.95147,2.846056 0.80814,2.354145 -0.21082,3.583922 -1.01896,1.229777 -7.44894,4.848835 v 0 q -0.56218,-1.264913 -0.773,-2.424417 -0.21082,-1.194641 -0.17568,-3.373103 z m 19.60616,-8.046257 -4.25152,3.127148 0.3865,0.59732 q 2.03792,-1.616278 2.07306,3.443376 v 0 q -0.24596,10.400401 0.0703,11.981543 0.31623,1.616279 2.52983,2.81092 v 0 l 3.72447,-2.951465 -0.2811,-0.421638 q -1.89737,0.737866 -2.28387,-2.354145 -0.35136,-3.127148 -0.0703,-10.435538 v 0 q 3.54878,-5.30561 6.42998,0.03514 v 0 l 3.05687,-2.459555 q -0.98382,-2.389281 -2.6001,-2.986601 -1.58114,-0.632457 -3.12715,0.03514 -1.51087,0.632457 -4.00556,3.794741 v 0 q 0.21082,-2.951465 -1.65141,-4.216379 z"
       id="path1"
       style="fill:#250a05;stroke-width:4.03666" />
    <path
       d="m 53.187284,18.679255 c 3.737095,0 6.739024,-2.755869 6.739024,-6.186646 0,-3.4307762 -3.001929,-6.1866457 -6.739024,-6.1866457 -3.737096,0 -6.739025,2.7558695 -6.739025,6.1866457 0,1.518541 0.612639,2.868354 1.531596,3.936957 l -8.209357,8.042639 c -1.164013,-0.899875 -2.69561,-1.462298 -4.349734,-1.462298 -1.654124,0 -3.124457,0.50618 -4.28847,1.406056 l -8.270622,-7.030279 c 0.367584,-0.618665 0.612639,-1.293572 0.612639,-2.080963 0,-2.249689 -2.021707,-4.105683 -4.472262,-4.105683 -2.450554,0 -4.472262,1.855994 -4.472262,4.105683 0,2.249689 2.021708,4.105683 4.472262,4.105683 0.980222,0 1.89918,-0.337453 2.69561,-0.843633 l 8.270621,7.030279 c -0.79643,1.01236 -1.225277,2.24969 -1.225277,3.543261 0,1.462298 0.551375,2.812112 1.470333,3.880714 l -9.128315,8.886274 c -1.10275,-0.731149 -2.450555,-1.181087 -3.920888,-1.181087 -3.737095,0 -6.739024,2.755869 -6.739024,6.186646 0,3.430776 3.001929,6.186646 6.739024,6.186646 3.737096,0 6.739025,-2.75587 6.739025,-6.186646 0,-1.462298 -0.551375,-2.812112 -1.470333,-3.880715 l 9.067052,-8.830031 c 1.041486,0.731149 2.38929,1.124845 3.798359,1.181087 l 1.164014,9.673665 c -2.266763,0.618664 -3.920887,2.474658 -3.920887,4.724348 0,2.755869 2.38929,4.949316 5.391219,4.949316 3.001929,0 5.39122,-2.193447 5.39122,-4.949316 0,-2.643385 -2.266763,-4.78059 -5.0849,-4.949317 l -1.164014,-9.617422 c 1.225277,-0.281212 2.389291,-0.899876 3.246985,-1.74351 l 8.393149,5.567982 c -0.245056,0.50618 -0.428847,1.068602 -0.428847,1.687267 0,2.249689 2.021707,4.105683 4.472262,4.105683 2.450554,0 4.472261,-1.855994 4.472261,-4.105683 0,-2.24969 -2.021707,-4.105684 -4.472261,-4.105684 -1.164014,0 -2.205499,0.393696 -3.00193,1.068603 L 41.363359,32.12115 c 0.49011,-0.843634 0.79643,-1.855994 0.79643,-2.924597 0,-1.293571 -0.428847,-2.474658 -1.164014,-3.487018 l 8.331885,-8.098882 c 1.10275,0.674907 2.389291,1.068602 3.859624,1.068602 z"
       id="path3"
       style="fill:url(#linearGradient3);stroke:none;stroke-width:11.9858" />
  </g>
</svg>
