<?xml version="1.0" encoding="UTF-8" standalone="no"?>
<svg
   data-v-fde0c5aa=""
   viewBox="0 0 1024 1024"
   class="iconAbove"
   version="1.1"
   id="svg21"
   sodipodi:docname="logo(deafults).svg"
   width="1024"
   height="1024"
   inkscape:export-filename="..\name(light).png"
   inkscape:export-xdpi="96"
   inkscape:export-ydpi="96"
   inkscape:version="1.2.2 (732a01da63, 2022-12-09)"
   xmlns:inkscape="http://www.inkscape.org/namespaces/inkscape"
   xmlns:sodipodi="http://sodipodi.sourceforge.net/DTD/sodipodi-0.dtd"
   xmlns:xlink="http://www.w3.org/1999/xlink"
   xmlns="http://www.w3.org/2000/svg"
   xmlns:svg="http://www.w3.org/2000/svg">
  <sodipodi:namedview
     id="namedview23"
     pagecolor="#505050"
     bordercolor="#eeeeee"
     borderopacity="1"
     inkscape:showpageshadow="0"
     inkscape:pageopacity="0"
     inkscape:pagecheckerboard="0"
     inkscape:deskcolor="#505050"
     showgrid="false"
     inkscape:zoom="0.335"
     inkscape:cx="732.83582"
     inkscape:cy="735.82089"
     inkscape:window-width="1920"
     inkscape:window-height="991"
     inkscape:window-x="-9"
     inkscape:window-y="-9"
     inkscape:window-maximized="1"
     inkscape:current-layer="svg21" />
  <!---->
  <defs
     data-v-fde0c5aa=""
     id="defs2">
    <linearGradient
       data-v-fde0c5aa=""
       gradientTransform="rotate(25)"
       id="linearGradient3261"
       x1="0"
       y1="0"
       x2="1"
       y2="0">
      <stop
         data-v-fde0c5aa=""
         offset="0"
         stop-color="#30223A"
         stop-opacity="1"
         id="stop3257"
         style="stop-color:#f0fff0;stop-opacity:1;" />
      <stop
         data-v-fde0c5aa=""
         offset="1"
         stop-color="#F13800"
         stop-opacity="1"
         id="stop3259"
         style="stop-color:#f1bb00;stop-opacity:1;" />
    </linearGradient>
    <!---->
    <linearGradient
       inkscape:collect="always"
       xlink:href="#3880f7c4-a4b3-4d94-a7b8-2f5dff74b750"
       id="linearGradient252"
       gradientTransform="scale(0.96873302,1.0322762)"
       x1="9.8066235"
       y1="7.9436107"
       x2="93.214539"
       y2="7.9436107"
       gradientUnits="userSpaceOnUse" />
    <linearGradient
       inkscape:collect="always"
       xlink:href="#linearGradient3261"
       id="linearGradient254"
       gradientTransform="scale(0.96873302,1.0322762)"
       x1="9.8066235"
       y1="7.9436107"
       x2="93.214539"
       y2="7.9436107"
       gradientUnits="userSpaceOnUse" />
  </defs>
  <defs
     data-v-fde0c5aa=""
     id="defs6">
    <!---->
  </defs>
  <g
     data-v-fde0c5aa=""
     id="9ec27727-f881-4b0f-a122-f976b13d1430"
     fill="#250a05"
     transform="matrix(15.464464,0,0,14.196885,2.9984065,1050.3743)"
     inkscape:export-filename="name(dark).png"
     inkscape:export-xdpi="96"
     inkscape:export-ydpi="96">
    <path
       d="M 1.71,3.55 0.44,4.59 0.53,4.81 Q 0.95,4.46 0.94,5.33 v 0 q -0.07,6.17 0.05,6.65 0.12,0.48 0.7,0.77 v 0 L 2.83,11.59 2.66,11.35 Q 2.26,11.83 2.13,11.27 2.01,10.7 2.09,4.38 v 0 Q 2,3.83 1.71,3.55 Z M 6.3,6.53 Q 5.63,6.63 5.18,6.92 4.73,7.21 4.37,7.57 4.01,7.94 3.92,8.43 q -0.1,0.5 0.33,0.94 0.43,0.43 1.48,0.65 1.05,0.22 1.45,0.45 0.4,0.23 0.49,0.64 0.09,0.42 -0.21,0.68 -0.3,0.26 -1.08,0.14 Q 5.61,11.81 5.2,11.55 4.79,11.29 4.43,10.89 4.07,10.5 4.34,10.34 v 0 L 4.25,10.25 3.49,10.84 q -0.13,0.36 0.27,0.86 0.39,0.51 0.97,0.82 0.58,0.3 1.31,0.28 0.72,-0.02 1.32,-0.46 0.6,-0.44 0.9,-0.99 Q 8.57,10.81 8.47,10.36 8.38,9.91 7.97,9.56 7.55,9.2 6.25,8.95 4.94,8.7 4.89,8.09 4.83,7.48 5.43,7.31 6.02,7.14 6.74,7.45 7.45,7.76 7.17,8.13 v 0 L 7.26,8.24 8.07,7.4 Q 7.96,6.93 7.46,6.68 6.96,6.43 6.3,6.53 Z m 3.99,-3 -0.95,0.52 q 0.3,0.37 0.29,1.3 v 0 q -0.19,6.18 -0.08,6.66 0.12,0.49 0.68,0.79 v 0 l 1.32,-0.84 -0.13,-0.24 q -0.5,0.32 -0.75,-0.37 -0.25,-0.69 -0.03,-6.46 v 0 q -0.03,-1 -0.35,-1.36 z m 4.64,3.01 Q 13.91,6.56 13.07,7.23 12.22,7.9 12.65,8.74 v 0 l 1.11,-0.67 q -0.22,-1.17 1.21,-1.04 1.42,0.12 1.24,1.86 v 0 Q 15.1,8.39 14.22,8.61 13.34,8.82 12.61,9.71 v 0 q -0.59,0.87 -0.38,1.47 0.22,0.61 0.7,1.05 0.48,0.44 1.08,0.48 0.6,0.05 1.01,-0.23 0.41,-0.28 1.2,-0.99 v 0 q 0.07,0.87 0.56,1.27 v 0 L 17.9,11.8 17.81,11.64 q -0.57,0.46 -0.63,-1.06 v 0 L 17.19,8.14 Q 17.15,7.23 16.55,6.88 15.95,6.53 14.93,6.54 Z m 0.98,3.3 v 0 l 0.27,-0.37 0.01,1.61 q -0.87,0.87 -1.49,0.82 -0.62,-0.05 -1.05,-0.42 -0.42,-0.36 -0.61,-0.84 -0.2,-0.47 0.07,-0.93 0.27,-0.45 1.05,-0.52 0.79,-0.08 1.75,0.65 z m 7.72,-2.09 0.02,0.67 q 0.83,-1.2 1.84,-1.19 1.01,0 0.9,1.51 v 0 q -0.02,2.66 0.02,3.15 0.05,0.5 0.63,0.85 v 0 l 1.11,-0.81 -0.07,-0.16 Q 27.38,12.26 27.42,10.05 27.45,7.83 27.32,7.37 27.19,6.9 26.47,6.6 25.74,6.29 25.11,6.64 24.47,6.99 24.19,7.22 23.91,7.44 23.63,7.75 Z m -4.02,-1.2 -1.29,0.87 0.08,0.15 q 0.62,-0.37 0.64,0.91 v 0 q -0.07,2.97 0.02,3.43 0.09,0.46 0.66,0.8 v 0 L 20.79,12 v -0.16 q -0.57,0.08 -0.65,-0.77 -0.08,-0.84 -0.01,-2.74 v 0 q 0.73,-1.11 1.73,-1.1 1.01,0 0.9,1.51 v 0 q -0.02,2.66 0.03,3.15 0.05,0.5 0.63,0.85 v 0 l 1.11,-0.81 -0.08,-0.16 Q 23.76,12.26 23.8,10.05 23.83,7.83 23.7,7.37 23.57,6.9 22.85,6.6 22.12,6.29 21.49,6.64 20.85,6.99 20.57,7.22 20.29,7.44 20.1,7.66 v 0 Q 20.17,6.81 19.61,6.55 Z m 9.66,-2.93 -0.75,1.35 0.99,-0.01 1.33,2.79 -1.22,1.65 q -0.91,0.99 -0.89,1.79 0.03,0.8 0.41,1.27 0.38,0.46 0.65,0.3 v 0 l 0.78,-1.39 q -0.63,-0.05 -0.82,-0.48 -0.19,-0.43 -0.03,-0.78 v 0 l 1.3,-1.9 2.05,4.02 q 0.53,0.74 0.91,0.24 v 0 l 0.52,-1.22 -0.13,-0.16 q -0.38,0.82 -2.43,-3.81 v 0 L 34.18,4.07 33.99,3.65 H 32.44 L 31.65,4.94 H 33 L 31.66,6.76 30.11,3.62 Z m 6.89,2.98 -1.3,1 0.16,0.16 q 0.69,-0.75 0.64,2.93 v 0 l -0.67,0.48 q 0.21,0.22 0.6,0.57 v 0 q -0.12,2.9 0.55,3.59 v 0 l 0.9,-0.6 Q 36.49,14.1 36.57,12.3 v 0 q 0.77,0.35 1.72,0.02 0.95,-0.34 1.53,-0.99 0.57,-0.66 0.89,-1.65 Q 41.02,8.7 40.4,7.54 39.79,6.38 38.21,6.56 v 0 L 36.67,7.75 Q 36.72,7.04 36.16,6.6 Z m 0.56,1.54 q 1.06,-1.05 1.93,-0.46 0.88,0.6 1.03,1.77 0.14,1.17 -0.22,1.67 -0.35,0.49 -1,0.58 -0.66,0.09 -1.74,-0.54 v 0 z m 6,-4.61 -0.95,0.52 q 0.29,0.37 0.28,1.3 v 0 q -0.19,6.18 -0.07,6.66 0.11,0.49 0.68,0.79 v 0 l 1.32,-0.84 -0.14,-0.24 q -0.5,0.32 -0.75,-0.37 -0.25,-0.69 -0.03,-6.46 v 0 q -0.03,-1 -0.34,-1.36 z m 4.37,2.92 q -1.15,0.76 -1.62,1.32 -0.48,0.56 -0.67,1.12 -0.19,0.57 -0.06,1.43 0.12,0.85 0.99,1.64 0.87,0.79 1.39,0.79 0.52,0.01 1.63,-1.02 v 0 q 0.43,-0.39 0.83,-0.91 0.39,-0.51 0.5,-1.08 Q 50.2,9.17 50.02,8.5 49.85,7.83 49.04,7.04 48.23,6.25 47.09,6.45 Z m -0.36,0.81 q 0.79,-0.18 1.72,0.98 0.94,1.17 0.74,1.99 -0.2,0.83 -0.85,1.33 -0.66,0.49 -1.4,-0.11 -0.74,-0.61 -1.17,-1.3 -0.44,-0.69 -0.13,-1.7 0.3,-1.02 1.09,-1.19 z m 5.01,-0.8 -1.22,0.89 0.12,0.17 q 0.57,-0.46 0.59,0.98 v 0 q -0.07,2.96 0.02,3.41 0.09,0.46 0.72,0.8 v 0 l 1.06,-0.84 -0.09,-0.12 Q 52.4,11.96 52.3,11.08 52.2,10.19 52.27,8.11 v 0 q 1.02,-1.51 1.84,0.01 v 0 l 0.87,-0.7 Q 54.7,6.74 54.24,6.57 53.79,6.39 53.35,6.58 52.92,6.76 52.21,7.66 v 0 q 0.06,-0.84 -0.47,-1.2 z m 6.72,0.14 q -1.07,-0.17 -2,0.66 -0.92,0.83 -1.18,1.94 -0.26,1.11 0.16,2.06 0.42,0.96 1.56,1.36 v 0 q 0.93,0.31 1.93,-0.44 1.01,-0.75 1.12,-1.34 v 0 l -0.21,-0.16 q -0.82,1.17 -1.6,1.13 -0.78,-0.05 -1.16,-0.35 -0.39,-0.31 -0.6,-0.66 v 0 L 58.37,9.54 Q 59.81,8.65 59.67,7.7 59.53,6.76 58.46,6.6 Z m -2.43,2.15 q 0,-0.63 0.51,-1.17 0.51,-0.54 1.1,-0.39 0.6,0.15 0.84,0.81 0.23,0.67 -0.06,1.02 -0.29,0.35 -2.12,1.38 v 0 Q 56.14,10.04 56.08,9.71 56.02,9.37 56.03,8.75 Z M 61.61,6.46 60.4,7.35 60.51,7.52 Q 61.09,7.06 61.1,8.5 v 0 q -0.07,2.96 0.02,3.41 0.09,0.46 0.72,0.8 v 0 l 1.06,-0.84 -0.08,-0.12 q -0.54,0.21 -0.65,-0.67 -0.1,-0.89 -0.02,-2.97 v 0 q 1.01,-1.51 1.83,0.01 v 0 l 0.87,-0.7 Q 64.57,6.74 64.11,6.57 63.66,6.39 63.22,6.58 62.79,6.76 62.08,7.66 v 0 q 0.06,-0.84 -0.47,-1.2 z"
       id="path8" />
  </g>
  <g
     data-v-fde0c5aa=""
     id="9ec27727-f881-4b0f-a122-f976b13d1430-3"
     fill="#250a05"
     transform="matrix(15.464464,0,0,14.196885,2.9984065,1242.2428)"
     style="fill:#eba38d;fill-opacity:1"
     inkscape:export-filename="name(light).png"
     inkscape:export-xdpi="96"
     inkscape:export-ydpi="96">
    <path
       d="M 1.71,3.55 0.44,4.59 0.53,4.81 Q 0.95,4.46 0.94,5.33 v 0 q -0.07,6.17 0.05,6.65 0.12,0.48 0.7,0.77 v 0 L 2.83,11.59 2.66,11.35 Q 2.26,11.83 2.13,11.27 2.01,10.7 2.09,4.38 v 0 Q 2,3.83 1.71,3.55 Z M 6.3,6.53 Q 5.63,6.63 5.18,6.92 4.73,7.21 4.37,7.57 4.01,7.94 3.92,8.43 q -0.1,0.5 0.33,0.94 0.43,0.43 1.48,0.65 1.05,0.22 1.45,0.45 0.4,0.23 0.49,0.64 0.09,0.42 -0.21,0.68 -0.3,0.26 -1.08,0.14 Q 5.61,11.81 5.2,11.55 4.79,11.29 4.43,10.89 4.07,10.5 4.34,10.34 v 0 L 4.25,10.25 3.49,10.84 q -0.13,0.36 0.27,0.86 0.39,0.51 0.97,0.82 0.58,0.3 1.31,0.28 0.72,-0.02 1.32,-0.46 0.6,-0.44 0.9,-0.99 Q 8.57,10.81 8.47,10.36 8.38,9.91 7.97,9.56 7.55,9.2 6.25,8.95 4.94,8.7 4.89,8.09 4.83,7.48 5.43,7.31 6.02,7.14 6.74,7.45 7.45,7.76 7.17,8.13 v 0 L 7.26,8.24 8.07,7.4 Q 7.96,6.93 7.46,6.68 6.96,6.43 6.3,6.53 Z m 3.99,-3 -0.95,0.52 q 0.3,0.37 0.29,1.3 v 0 q -0.19,6.18 -0.08,6.66 0.12,0.49 0.68,0.79 v 0 l 1.32,-0.84 -0.13,-0.24 q -0.5,0.32 -0.75,-0.37 -0.25,-0.69 -0.03,-6.46 v 0 q -0.03,-1 -0.35,-1.36 z m 4.64,3.01 Q 13.91,6.56 13.07,7.23 12.22,7.9 12.65,8.74 v 0 l 1.11,-0.67 q -0.22,-1.17 1.21,-1.04 1.42,0.12 1.24,1.86 v 0 Q 15.1,8.39 14.22,8.61 13.34,8.82 12.61,9.71 v 0 q -0.59,0.87 -0.38,1.47 0.22,0.61 0.7,1.05 0.48,0.44 1.08,0.48 0.6,0.05 1.01,-0.23 0.41,-0.28 1.2,-0.99 v 0 q 0.07,0.87 0.56,1.27 v 0 L 17.9,11.8 17.81,11.64 q -0.57,0.46 -0.63,-1.06 v 0 L 17.19,8.14 Q 17.15,7.23 16.55,6.88 15.95,6.53 14.93,6.54 Z m 0.98,3.3 v 0 l 0.27,-0.37 0.01,1.61 q -0.87,0.87 -1.49,0.82 -0.62,-0.05 -1.05,-0.42 -0.42,-0.36 -0.61,-0.84 -0.2,-0.47 0.07,-0.93 0.27,-0.45 1.05,-0.52 0.79,-0.08 1.75,0.65 z m 7.72,-2.09 0.02,0.67 q 0.83,-1.2 1.84,-1.19 1.01,0 0.9,1.51 v 0 q -0.02,2.66 0.02,3.15 0.05,0.5 0.63,0.85 v 0 l 1.11,-0.81 -0.07,-0.16 Q 27.38,12.26 27.42,10.05 27.45,7.83 27.32,7.37 27.19,6.9 26.47,6.6 25.74,6.29 25.11,6.64 24.47,6.99 24.19,7.22 23.91,7.44 23.63,7.75 Z m -4.02,-1.2 -1.29,0.87 0.08,0.15 q 0.62,-0.37 0.64,0.91 v 0 q -0.07,2.97 0.02,3.43 0.09,0.46 0.66,0.8 v 0 L 20.79,12 v -0.16 q -0.57,0.08 -0.65,-0.77 -0.08,-0.84 -0.01,-2.74 v 0 q 0.73,-1.11 1.73,-1.1 1.01,0 0.9,1.51 v 0 q -0.02,2.66 0.03,3.15 0.05,0.5 0.63,0.85 v 0 l 1.11,-0.81 -0.08,-0.16 Q 23.76,12.26 23.8,10.05 23.83,7.83 23.7,7.37 23.57,6.9 22.85,6.6 22.12,6.29 21.49,6.64 20.85,6.99 20.57,7.22 20.29,7.44 20.1,7.66 v 0 Q 20.17,6.81 19.61,6.55 Z m 9.66,-2.93 -0.75,1.35 0.99,-0.01 1.33,2.79 -1.22,1.65 q -0.91,0.99 -0.89,1.79 0.03,0.8 0.41,1.27 0.38,0.46 0.65,0.3 v 0 l 0.78,-1.39 q -0.63,-0.05 -0.82,-0.48 -0.19,-0.43 -0.03,-0.78 v 0 l 1.3,-1.9 2.05,4.02 q 0.53,0.74 0.91,0.24 v 0 l 0.52,-1.22 -0.13,-0.16 q -0.38,0.82 -2.43,-3.81 v 0 L 34.18,4.07 33.99,3.65 H 32.44 L 31.65,4.94 H 33 L 31.66,6.76 30.11,3.62 Z m 6.89,2.98 -1.3,1 0.16,0.16 q 0.69,-0.75 0.64,2.93 v 0 l -0.67,0.48 q 0.21,0.22 0.6,0.57 v 0 q -0.12,2.9 0.55,3.59 v 0 l 0.9,-0.6 Q 36.49,14.1 36.57,12.3 v 0 q 0.77,0.35 1.72,0.02 0.95,-0.34 1.53,-0.99 0.57,-0.66 0.89,-1.65 Q 41.02,8.7 40.4,7.54 39.79,6.38 38.21,6.56 v 0 L 36.67,7.75 Q 36.72,7.04 36.16,6.6 Z m 0.56,1.54 q 1.06,-1.05 1.93,-0.46 0.88,0.6 1.03,1.77 0.14,1.17 -0.22,1.67 -0.35,0.49 -1,0.58 -0.66,0.09 -1.74,-0.54 v 0 z m 6,-4.61 -0.95,0.52 q 0.29,0.37 0.28,1.3 v 0 q -0.19,6.18 -0.07,6.66 0.11,0.49 0.68,0.79 v 0 l 1.32,-0.84 -0.14,-0.24 q -0.5,0.32 -0.75,-0.37 -0.25,-0.69 -0.03,-6.46 v 0 q -0.03,-1 -0.34,-1.36 z m 4.37,2.92 q -1.15,0.76 -1.62,1.32 -0.48,0.56 -0.67,1.12 -0.19,0.57 -0.06,1.43 0.12,0.85 0.99,1.64 0.87,0.79 1.39,0.79 0.52,0.01 1.63,-1.02 v 0 q 0.43,-0.39 0.83,-0.91 0.39,-0.51 0.5,-1.08 Q 50.2,9.17 50.02,8.5 49.85,7.83 49.04,7.04 48.23,6.25 47.09,6.45 Z m -0.36,0.81 q 0.79,-0.18 1.72,0.98 0.94,1.17 0.74,1.99 -0.2,0.83 -0.85,1.33 -0.66,0.49 -1.4,-0.11 -0.74,-0.61 -1.17,-1.3 -0.44,-0.69 -0.13,-1.7 0.3,-1.02 1.09,-1.19 z m 5.01,-0.8 -1.22,0.89 0.12,0.17 q 0.57,-0.46 0.59,0.98 v 0 q -0.07,2.96 0.02,3.41 0.09,0.46 0.72,0.8 v 0 l 1.06,-0.84 -0.09,-0.12 Q 52.4,11.96 52.3,11.08 52.2,10.19 52.27,8.11 v 0 q 1.02,-1.51 1.84,0.01 v 0 l 0.87,-0.7 Q 54.7,6.74 54.24,6.57 53.79,6.39 53.35,6.58 52.92,6.76 52.21,7.66 v 0 q 0.06,-0.84 -0.47,-1.2 z m 6.72,0.14 q -1.07,-0.17 -2,0.66 -0.92,0.83 -1.18,1.94 -0.26,1.11 0.16,2.06 0.42,0.96 1.56,1.36 v 0 q 0.93,0.31 1.93,-0.44 1.01,-0.75 1.12,-1.34 v 0 l -0.21,-0.16 q -0.82,1.17 -1.6,1.13 -0.78,-0.05 -1.16,-0.35 -0.39,-0.31 -0.6,-0.66 v 0 L 58.37,9.54 Q 59.81,8.65 59.67,7.7 59.53,6.76 58.46,6.6 Z m -2.43,2.15 q 0,-0.63 0.51,-1.17 0.51,-0.54 1.1,-0.39 0.6,0.15 0.84,0.81 0.23,0.67 -0.06,1.02 -0.29,0.35 -2.12,1.38 v 0 Q 56.14,10.04 56.08,9.71 56.02,9.37 56.03,8.75 Z M 61.61,6.46 60.4,7.35 60.51,7.52 Q 61.09,7.06 61.1,8.5 v 0 q -0.07,2.96 0.02,3.41 0.09,0.46 0.72,0.8 v 0 l 1.06,-0.84 -0.08,-0.12 q -0.54,0.21 -0.65,-0.67 -0.1,-0.89 -0.02,-2.97 v 0 q 1.01,-1.51 1.83,0.01 v 0 l 0.87,-0.7 Q 64.57,6.74 64.11,6.57 63.66,6.39 63.22,6.58 62.79,6.76 62.08,7.66 v 0 q 0.06,-0.84 -0.47,-1.2 z"
       id="path8-7"
       style="fill:#eba38d;fill-opacity:1" />
  </g>
  <defs
     data-v-fde0c5aa=""
     id="defs16">
    <linearGradient
       data-v-fde0c5aa=""
       gradientTransform="rotate(25)"
       id="3880f7c4-a4b3-4d94-a7b8-2f5dff74b750"
       x1="0"
       y1="0"
       x2="1"
       y2="0">
      <stop
         data-v-fde0c5aa=""
         offset="0.12"
         stop-color="#30223A"
         stop-opacity="1"
         id="stop11"
         style="stop-color:#2c124a;stop-opacity:1;" />
      <stop
         data-v-fde0c5aa=""
         offset="1"
         stop-color="#F13800"
         stop-opacity="1"
         id="stop13"
         style="stop-color:#f12500;stop-opacity:1;" />
    </linearGradient>
  </defs>
  <g
     data-v-fde0c5aa=""
     id="d844802c-04d7-440a-888f-1d725c83a98b"
     stroke="none"
     fill="url(#3880f7c4-a4b3-4d94-a7b8-2f5dff74b750)"
     transform="matrix(12.509425,0,0,11.484063,-114.51885,-68.152039)"
     style="fill:url(#linearGradient254)">
    <path
       d="m 79.3,30.2 c 6.1,0 11,-4.9 11,-11 0,-6.1 -4.9,-11 -11,-11 -6.1,0 -11,4.9 -11,11 0,2.7 1,5.1 2.5,7 L 57.4,40.5 c -1.9,-1.6 -4.4,-2.6 -7.1,-2.6 -2.7,0 -5.1,0.9 -7,2.5 L 29.8,27.9 c 0.6,-1.1 1,-2.3 1,-3.7 0,-4 -3.3,-7.3 -7.3,-7.3 -4,0 -7.3,3.3 -7.3,7.3 0,4 3.3,7.3 7.3,7.3 1.6,0 3.1,-0.6 4.4,-1.5 l 13.5,12.5 c -1.3,1.8 -2,4 -2,6.3 0,2.6 0.9,5 2.4,6.9 L 26.9,71.5 c -1.8,-1.3 -4,-2.1 -6.4,-2.1 -6.1,0 -11,4.9 -11,11 0,6.1 4.9,11 11,11 6.1,0 11,-4.9 11,-11 0,-2.6 -0.9,-5 -2.4,-6.9 L 43.9,57.8 c 1.7,1.3 3.9,2 6.2,2.1 L 52,77.1 c -3.7,1.1 -6.4,4.4 -6.4,8.4 0,4.9 3.9,8.8 8.8,8.8 4.9,0 8.8,-3.9 8.8,-8.8 0,-4.7 -3.7,-8.5 -8.3,-8.8 L 53,59.6 c 2,-0.5 3.9,-1.6 5.3,-3.1 L 72,66.4 c -0.4,0.9 -0.7,1.9 -0.7,3 0,4 3.3,7.3 7.3,7.3 4,0 7.3,-3.3 7.3,-7.3 0,-4 -3.3,-7.3 -7.3,-7.3 -1.9,0 -3.6,0.7 -4.9,1.9 L 60,54.1 c 0.8,-1.5 1.3,-3.3 1.3,-5.2 0,-2.3 -0.7,-4.4 -1.9,-6.2 L 73,28.3 c 1.8,1.2 3.9,1.9 6.3,1.9 z"
       id="path18"
       style="fill:url(#linearGradient252)" />
  </g>
  <!---->
</svg>
