<?xml version="1.0" encoding="UTF-8" standalone="no"?>
<svg
   width="274"
   height="568"
   fill="none"
   viewBox="0 0 274 568"
   version="1.1"
   id="svg17"
   sodipodi:docname="bg-sidebar-desktop.svg"
   inkscape:version="1.2.2 (732a01da63, 2022-12-09)"
   xmlns:inkscape="http://www.inkscape.org/namespaces/inkscape"
   xmlns:sodipodi="http://sodipodi.sourceforge.net/DTD/sodipodi-0.dtd"
   xmlns="http://www.w3.org/2000/svg"
   xmlns:svg="http://www.w3.org/2000/svg">
  <defs
     id="defs21">
    <mask
       maskUnits="userSpaceOnUse"
       id="mask312">
      <g
         id="g316">
        <rect
           width="274"
           height="568"
           fill="#ffffff"
           rx="10"
           id="rect314"
           x="0"
           y="0" />
      </g>
    </mask>
    <mask
       maskUnits="userSpaceOnUse"
       id="mask318">
      <g
         id="g322">
        <rect
           width="274"
           height="568"
           fill="#ffffff"
           rx="10"
           id="rect320"
           x="0"
           y="0" />
      </g>
    </mask>
    <mask
       maskUnits="userSpaceOnUse"
       id="mask324">
      <g
         id="g328">
        <rect
           width="274"
           height="568"
           fill="#ffffff"
           rx="10"
           id="rect326"
           x="0"
           y="0" />
      </g>
    </mask>
    <mask
       maskUnits="userSpaceOnUse"
       id="mask330">
      <g
         id="g334">
        <rect
           width="274"
           height="568"
           fill="#ffffff"
           rx="10"
           id="rect332"
           x="0"
           y="0" />
      </g>
    </mask>
  </defs>
  <sodipodi:namedview
     id="namedview19"
     pagecolor="#505050"
     bordercolor="#eeeeee"
     borderopacity="1"
     inkscape:showpageshadow="0"
     inkscape:pageopacity="0"
     inkscape:pagecheckerboard="0"
     inkscape:deskcolor="#505050"
     showgrid="false"
     inkscape:zoom="1.415493"
     inkscape:cx="134.58209"
     inkscape:cy="247.61692"
     inkscape:window-width="1920"
     inkscape:window-height="991"
     inkscape:window-x="-9"
     inkscape:window-y="-9"
     inkscape:window-maximized="1"
     inkscape:current-layer="svg17" />
  <rect
     width="274"
     height="568"
     fill="#483EFF"
     rx="10"
     id="rect2"
     style="fill:#ffdf6c;fill-opacity:1" />
  <path
     fill="#6259ff"
     fill-rule="evenodd"
     d="M -34.692,543.101 C 3.247,632.538 168.767,685.017 211.96,612.52 255.154,540.023 145.861,526.867 107.225,451.951 68.59,377.035 38.568,330.277 -17.257,347.344 c -55.824,17.068 -55.375,106.32 -17.436,195.757 z"
     clip-rule="evenodd"
     id="path7"
     mask="url(#mask330)"
     style="fill:#ff9e59;fill-opacity:1" />
  <path
     fill="#f9818e"
     fill-rule="evenodd"
     d="m 233.095,601.153 c 60.679,-28.278 92.839,-143.526 41.875,-171.528 -50.965,-28.003 -57.397,47.579 -108.059,75.987 -50.662,28.408 -82.14,50.207 -69.044,88.241 13.096,38.034 74.549,35.578 135.228,7.3 z"
     clip-rule="evenodd"
     id="path9"
     mask="url(#mask324)"
     style="fill:#f9b581;fill-opacity:1" />
  <path
     stroke="#ffffff"
     stroke-linecap="round"
     stroke-linejoin="bevel"
     stroke-width="5"
     d="m 165.305,469.097 10.607,-10.806 m 33.549,16.29 -12.506,-10.503 m -9.395,24.913 -6.908,14.798"
     id="path11"
     mask="url(#mask318)" />
  <path
     fill="#ffaf7e"
     d="m 0.305,546.891 c 37.003,0 67,-29.997 67,-67 0,-37.003 -29.997,-67 -67,-67 -37.003,0 -67,29.997 -67,67 0,37.003 29.997,67 67,67 z"
     id="path13"
     mask="url(#mask312)"
     style="fill:#bef4ff;fill-opacity:1" />
</svg>
