<?xml version="1.0" encoding="UTF-8" standalone="no"?>
<svg
   width="40"
   height="40"
   viewBox="0 0 40 40"
   version="1.1"
   id="svg9070"
   sodipodi:docname="icon-advanced.svg"
   inkscape:version="1.2.2 (732a01da63, 2022-12-09)"
   xmlns:inkscape="http://www.inkscape.org/namespaces/inkscape"
   xmlns:sodipodi="http://sodipodi.sourceforge.net/DTD/sodipodi-0.dtd"
   xmlns="http://www.w3.org/2000/svg"
   xmlns:svg="http://www.w3.org/2000/svg">
  <defs
     id="defs9074" />
  <sodipodi:namedview
     id="namedview9072"
     pagecolor="#505050"
     bordercolor="#eeeeee"
     borderopacity="1"
     inkscape:showpageshadow="0"
     inkscape:pageopacity="0"
     inkscape:pagecheckerboard="0"
     inkscape:deskcolor="#505050"
     showgrid="false"
     inkscape:zoom="7.1064232"
     inkscape:cx="21.740895"
     inkscape:cy="2.0404076"
     inkscape:window-width="1920"
     inkscape:window-height="991"
     inkscape:window-x="-9"
     inkscape:window-y="-9"
     inkscape:window-maximized="1"
     inkscape:current-layer="svg9070" />
  <circle
     cx="20"
     cy="20"
     r="20"
     fill="#f9818e"
     id="circle9064"
     style="fill-rule:evenodd" />
  <g
     id="g11239"
     transform="matrix(1.1215359,0,0,1.1215359,-3.3536163,-1.3269365)">
    <path
       d="m 32.964425,11.314464 -19.032846,7.366869 -0.418148,0.489115 c 1.845882,-0.299619 1.74697,0.511609 2.817145,0.630518 -1.092745,0.672628 -2.097408,2.434366 -3.194017,2.695207 -0.893252,0.212445 -2.560166,0.644681 -3.1479676,0.797671 l -1.589518,1.85944 0.365344,0.690123 23.9626456,-7.957018 0.519638,-6.239208 -0.282276,-0.332717"
       style="fill:#341913;fill-opacity:1;fill-rule:nonzero;stroke:none;stroke-width:0.00757379"
       id="path18" />
    <path
       d="m 28.539971,25.506677 c -0.788658,-0.672779 -0.579999,-2.697631 -1.113497,-3.749781 1.06298,0.331277 1.8886,-0.320825 3.560512,1.021855 L 31.042196,21.641093 14.766663,9.3582305 8.8340034,13.560167 8.5208424,13.97771 30.183859,30.0152 l 0.469727,-0.359528 0.105957,-2.185643 c -0.426707,-0.383612 -1.58436,-1.421599 -2.219574,-1.963352"
       style="fill:#341913;fill-opacity:1;fill-rule:nonzero;stroke:none;stroke-width:0.00757379"
       id="path20" />
    <path
       d="m 30.986986,22.778751 -0.405652,0.315448 c 0,0 -0.493735,-0.52653 -1.233164,-0.735262 -0.739353,-0.208735 -1.054649,0.12633 -2.06378,-0.265083 -0.3131,-0.330671 -0.06089,-0.643772 -0.06089,-0.643772 l 2.279178,0.07831 1.484311,1.250357"
       style="fill:#341913;fill-opacity:1;fill-rule:nonzero;stroke:none;stroke-width:0.00757379"
       id="path22" />
    <path
       d="m 28.539971,25.506677 c -0.788658,-0.672779 -0.579999,-2.697631 -1.113497,-3.749781 1.06298,0.331277 1.8886,-0.320825 3.560512,1.021855 L 31.042196,21.641093 13.820697,8.9091805 8.8340034,13.560167 30.653586,29.655672 30.759543,27.470029 c -0.426707,-0.383612 -1.58436,-1.421599 -2.219574,-1.963352"
       style="fill:#4e1d15;fill-opacity:1;fill-rule:nonzero;stroke:none;stroke-width:0.00757379"
       id="path24" />
    <path
       d="m 22.534718,15.351443 -7.39315,2.861527 5.153506,3.801661 7.76472,-2.578419 -5.525076,-4.084769"
       style="fill:#341913;fill-opacity:1;fill-rule:nonzero;stroke:none;stroke-width:0.00757379"
       id="path26" />
    <path
       d="m 13.513431,19.170448 0.226759,0.51623 c 0,0 0.548039,-0.301892 1.096078,0 0.54804,0.302042 1.009056,0.745638 1.870271,0.519485 0.17397,-0.521985 0,-0.923698 0,-0.923698 0,0 -1.948584,-0.598632 -1.992058,-0.598632 -0.04355,0 -1.20105,0.486615 -1.20105,0.486615"
       style="fill:#341913;fill-opacity:1;fill-rule:nonzero;stroke:none;stroke-width:0.00757379"
       id="path28" />
    <path
       d="m 13.931579,18.681333 -0.418148,0.489115 c 1.845882,-0.299619 1.74697,0.511609 2.817145,0.630518 -1.092745,0.672628 -2.097408,2.434366 -3.194017,2.695207 -0.893252,0.212445 -2.560166,0.644681 -3.1479676,0.797671 l -1.589518,1.85944 23.9274116,-7.677091 0.63794,-6.161729 -19.032846,7.366869"
       style="fill:#732618;fill-opacity:1;fill-rule:nonzero;stroke:none;stroke-width:0.00757379"
       id="path30" />
    <path
       d="m 22.577282,14.994793 -8.756583,2.906516 5.208114,3.855587 0.568336,-0.197297 2.980133,-6.564806"
       style="fill:#341913;fill-opacity:1;fill-rule:nonzero;stroke:none;stroke-width:0.00757379"
       id="path32" />
    <path
       d="m 22.577282,14.994793 -8.143409,2.703009 5.163276,3.861797 2.980133,-6.564806"
       style="fill:#4e1d15;fill-opacity:1;fill-rule:nonzero;stroke:none;stroke-width:0.00757379"
       id="path34" />
    <path
       d="m 9.3287254,13.401117 c 0,0 8.9250626,6.88957 9.2556576,7.133143 0.33052,0.243573 1.009056,0.66104 2.070294,0.33052 1.061315,-0.33052 11.330383,-3.631782 11.330383,-3.631782 l 0.740791,-6.215427 -0.06665,-0.16526 L 22.481473,13.99263 14.756818,8.3210005 9.3287244,13.218438 v 0.182679"
       style="fill:#341913;fill-opacity:1;fill-rule:nonzero;stroke:none;stroke-width:0.00757379"
       id="path36" />
    <path
       d="m 9.3287254,13.218438 c 0,0 8.9250626,6.889569 9.2556576,7.133142 0.33052,0.243573 1.009056,0.66104 2.070294,0.33052 1.061315,-0.33052 11.186784,-3.583915 11.186784,-3.583915 l 0.817741,-6.245874 -10.177728,2.95764 -7.724655,-5.6717065 -5.4280936,5.0801935"
       style="fill:#913d1c;fill-opacity:1;fill-rule:nonzero;stroke:none;stroke-width:0.00757379"
       id="path38" />
    <path
       d="m 15.191781,8.0164595 -5.5846806,5.1497955 8.9250236,6.889493 c 0,0 0.487222,-0.226153 0.835161,-0.226153 0.34794,0 1.096002,0.678535 1.096002,0.678535 l 10.943287,-3.566571 0.869924,-6.176194 -0.939528,-0.417543 -8.611923,3.096769 -7.202669,-5.4281315 h -0.330597"
       style="fill:#f9ac64;fill-opacity:1;fill-rule:nonzero;stroke:none;stroke-width:0.00757379"
       id="path40" />
    <path
       d="m 31.512985,10.425983 c -0.08422,0.507292 -0.175863,1.013146 -0.268566,1.518772 l -0.286743,1.515135 -0.302497,1.512106 -0.156854,0.754956 -0.164048,0.753591 0.130648,-0.760105 0.137768,-0.758667 0.286818,-1.515135 0.302574,-1.512106 c 0.103684,-0.503505 0.208505,-1.006783 0.3209,-1.508547"
       style="fill:#f69543;fill-opacity:1;fill-rule:nonzero;stroke:none;stroke-width:0.00757379"
       id="path42" />
    <path
       d="m 31.645905,10.511795 c -0.07392,0.49987 -0.155413,0.998451 -0.238044,1.496807 l -0.256221,1.493625 -0.272201,1.490749 -0.141631,0.744427 -0.148975,0.74314 0.115348,-0.749047 0.122619,-0.747836 0.256373,-1.493551 0.272202,-1.490823 c 0.09361,-0.496386 0.18836,-0.992621 0.29053,-1.487491"
       style="fill:#f69543;fill-opacity:1;fill-rule:nonzero;stroke:none;stroke-width:0.00757379"
       id="path44" />
    <path
       d="m 31.819875,10.590032 c -0.07028,0.500475 -0.148143,0.999588 -0.227137,1.498549 l -0.245391,1.495443 -0.26122,1.492718 -0.136252,0.745412 -0.143599,0.7442 0.109971,-0.749957 0.117091,-0.748592 0.245542,-1.495445 0.261371,-1.492717 c 0.0899,-0.497067 0.181014,-0.993983 0.279624,-1.489611"
       style="fill:#f69543;fill-opacity:1;fill-rule:nonzero;stroke:none;stroke-width:0.00757379"
       id="path46" />
    <path
       d="m 31.989452,10.6638 c -0.06627,0.500628 -0.140115,1.000119 -0.215095,1.499382 l -0.233424,1.496581 -0.249253,1.493853 -0.130346,0.746093 -0.137464,0.744882 0.103837,-0.750335 0.111032,-0.749123 0.233575,-1.496504 0.249405,-1.493929 c 0.08596,-0.497522 0.173137,-0.994817 0.267733,-1.4909"
       style="fill:#f69543;fill-opacity:1;fill-rule:nonzero;stroke:none;stroke-width:0.00757379"
       id="path48" />
    <path
       d="m 32.156379,10.742416 c -0.06294,0.506686 -0.133451,1.012236 -0.205098,1.517635 l -0.223503,1.514833 -0.239332,1.512484 -0.12527,0.755334 -0.132617,0.754198 0.09891,-0.759348 0.106108,-0.758287 0.223503,-1.514833 0.239483,-1.512485 c 0.08263,-0.503657 0.166472,-1.007162 0.257812,-1.509531"
       style="fill:#f69543;fill-opacity:1;fill-rule:nonzero;stroke:none;stroke-width:0.00757379"
       id="path50" />
    <path
       d="m 10.511789,12.905262 c 0,0 2.018109,1.444018 3.72312,2.400965 1.705011,0.956797 4.906147,3.322923 5.132376,4.523368 1.026475,-1.043895 2.331211,-2.38347 4.78436,-2.644463 2.453149,-0.260992 5.497735,-0.574093 5.915278,-0.817666 0.208809,-1.043895 1.270047,-6.019644 1.270047,-6.019644 0,0 -1.217864,0.243572 -2.522675,0.33052 -1.304888,0.08702 -5.358529,0.939528 -6.089248,2.766249 C 22.133534,11.983229 21.263609,11.113305 19.576019,10.347822 17.888428,9.5822625 15.522378,8.0164595 15.522378,8.0164595 l -5.010589,4.8888025"
       style="fill:#fde2b3;fill-opacity:1;fill-rule:nonzero;stroke:none;stroke-width:0.00757379"
       id="path52" />
    <path
       d="m 19.367285,19.829595 c 1.026475,-1.043895 2.331211,-2.38347 4.78436,-2.644463 2.453149,-0.260992 5.497735,-0.574093 5.915278,-0.817666 0.208809,-1.043895 1.270047,-6.019644 1.270047,-6.019644 0,0 -1.217864,0.243572 -2.522675,0.33052 -1.304888,0.08702 -5.358529,0.939528 -6.089248,2.766249 l -3.357762,6.385004"
       style="fill:#fde6d0;fill-opacity:1;fill-rule:nonzero;stroke:none;stroke-width:0.00757379"
       id="path54" />
    <path
       d="m 25.926259,17.219971 c -4.639398,0.927865 -6.558974,2.609624 -6.558974,2.609624 0.34794,0 1.096002,0.678535 1.096002,0.678535 l 10.943287,-3.566571 c 0,0 -0.910445,-0.394367 -1.339651,-0.574093 -0.533497,0.307344 -1.507108,0.31098 -4.140664,0.852505"
       style="fill:#fabc84;fill-opacity:1;fill-rule:nonzero;stroke:none;stroke-width:0.00757379"
       id="path56" />
    <path
       d="m 16.566197,16.471833 c -1.478782,-1.009056 -6.054408,-3.566571 -6.054408,-3.566571 l -0.9046886,0.260993 8.9250236,6.889493 c 0,0 0.487222,-0.226153 0.835161,-0.226153 0.17397,-1.078658 -1.322232,-2.348707 -2.801088,-3.357762"
       style="fill:#fabc84;fill-opacity:1;fill-rule:nonzero;stroke:none;stroke-width:0.00757379"
       id="path58" />
    <path
       d="m 16.566197,16.471833 c -1.478782,-1.009056 -6.054408,-3.566571 -6.054408,-3.566571 0,0 5.897858,3.94935 6.64592,4.453916 0.748139,0.50449 2.157393,1.791881 2.209576,2.470417 0.17397,-1.078658 -1.322232,-2.348707 -2.801088,-3.357762"
       style="fill:#f9ac64;fill-opacity:1;fill-rule:nonzero;stroke:none;stroke-width:0.00757379"
       id="path60" />
    <path
       d="m 10.424766,13.131491 c 0,0 7.602868,5.375873 8.942519,6.698104 -0.974291,-1.304812 -6.489371,-5.26575 -8.942519,-6.698104"
       style="fill:#f9ac64;fill-opacity:1;fill-rule:nonzero;stroke:none;stroke-width:0.00757379"
       id="path62" />
    <path
       d="m 10.175436,13.131491 1.107591,0.809183 1.10335,0.815015 2.199956,1.639043 2.190187,1.651918 1.091686,0.830541 1.087293,0.836449 -1.107742,-0.809183 -1.103349,-0.814939 -2.199807,-1.639119 -2.19011,-1.65207 -1.091761,-0.830541 -1.087294,-0.836297"
       style="fill:#f9ac64;fill-opacity:1;fill-rule:nonzero;stroke:none;stroke-width:0.00757379"
       id="path64" />
    <path
       d="m 19.715225,19.829595 c 0.403379,-0.219186 0.814106,-0.424132 1.225059,-0.628927 0.412999,-0.200555 0.828875,-0.395276 1.248084,-0.583333 0.209491,-0.09429 0.420194,-0.186164 0.633094,-0.273035 0.212217,-0.08793 0.425646,-0.173212 0.645589,-0.248344 0.438674,-0.146629 0.884315,-0.262584 1.331092,-0.371343 0.448141,-0.102549 0.897494,-0.198357 1.347604,-0.28841 0.450262,-0.09013 0.900069,-0.180786 1.351618,-0.262128 0.45117,-0.08331 0.902265,-0.166397 1.352147,-0.254707 0.449807,-0.08778 0.901129,-0.171546 1.339198,-0.308329 -0.213506,0.08392 -0.434206,0.151021 -0.656572,0.208128 -0.221761,0.06036 -0.445263,0.112925 -0.668462,0.166926 -0.447687,0.102019 -0.896737,0.196919 -1.345483,0.292954 -0.897494,0.190178 -1.79779,0.366571 -2.688088,0.580833 -0.445566,0.104065 -0.889769,0.21555 -1.322686,0.355893 -0.214944,0.07119 -0.428449,0.154127 -0.640818,0.239861 l -0.635971,0.259554 c -0.423222,0.175636 -0.843265,0.3593 -1.261565,0.546903 -0.420345,0.183816 -0.836525,0.376417 -1.25384,0.567504"
       style="fill:#f9ac64;fill-opacity:1;fill-rule:nonzero;stroke:none;stroke-width:0.00757379"
       id="path66" />
    <path
       d="m 20.071874,19.925328 c 0.821453,-0.373464 1.659644,-0.710498 2.51018,-1.013297 0.424889,-0.152537 0.853717,-0.294469 1.28618,-0.424738 0.215399,-0.06763 0.433599,-0.126482 0.65074,-0.188511 0.218503,-0.05733 0.436856,-0.115728 0.655586,-0.169956 0.875681,-0.21608 1.748711,-0.442915 2.620833,-0.673083 0.436099,-0.114743 0.871667,-0.231833 1.306175,-0.352862 0.217368,-0.05976 0.434735,-0.119969 0.651118,-0.183286 0.216384,-0.06331 0.432842,-0.127012 0.644832,-0.204189 -0.847658,0.310601 -1.720158,0.546751 -2.588189,0.791991 -0.869546,0.240997 -1.743182,0.467378 -2.617879,0.688912 -0.877196,0.208808 -1.739093,0.473285 -2.591749,0.766012 -0.426707,0.145341 -0.850385,0.29977 -1.271412,0.461092 -0.421783,0.159276 -0.841371,0.325218 -1.256415,0.501915"
       style="fill:#f9ac64;fill-opacity:1;fill-rule:nonzero;stroke:none;stroke-width:0.00757379"
       id="path68" />
    <path
       d="m 12.585643,13.31667 c 0.353013,0.230167 3.239761,2.111874 4.255937,2.760493 1.020794,0.651573 2.142396,1.609126 2.462388,2.09597 1.221576,-2.095364 2.713535,-4.729678 2.858877,-4.986429 C 22.050677,13.043635 21.28065,12.085096 20.306585,11.449808 19.305105,10.79672 16.819616,9.3633045 16.55067,9.2084215 L 12.585643,13.31667 m 6.759905,5.06671 -0.07074,-0.125345 c -0.236379,-0.408227 -1.343136,-1.402514 -2.470721,-2.122251 -1.077901,-0.688002 -4.259724,-2.762917 -4.291761,-2.783821 l -0.07589,-0.05302 4.061215,-4.2079955 0.06415,0.04362 c 0.02711,0.0156 2.727169,1.5684555 3.782802,2.2569125 1.059876,0.691259 1.879511,1.760374 1.887614,1.771054 l 0.05461,0.09187 -0.01129,0.01992 c -0.01598,0.02833 -1.615564,2.855696 -2.89985,5.057396 l -0.03015,0.05166"
       style="fill:#f69543;fill-opacity:1;fill-rule:nonzero;stroke:none;stroke-width:0.00757379"
       id="path70" />
    <path
       d="m 23.149482,13.256231 -2.502606,4.856009 c 0.533195,-0.514791 2.376579,-1.85838 7.31923,-2.195414 0.408454,-1.30716 1.37343,-4.401051 1.508168,-4.833059 -0.389671,0.04098 -2.857513,0.314993 -4.347277,0.822134 -1.025263,0.374903 -1.915864,1.286256 -1.977515,1.35033 m -2.62674,5.0964 -0.163518,0.16579 2.732925,-5.302861 0.0034,-0.0036 c 0.0092,-0.0098 0.934377,-0.978988 2.008265,-1.371613 1.621245,-0.551901 4.388251,-0.828496 4.416047,-0.831223 l 0.182679,-0.01871 -0.0156,0.05014 c 0,0 -1.096154,3.514387 -1.531041,4.906222 l -0.007,0.02272 -0.154278,0.01515 c -6.105911,0.411635 -7.458891,2.34848 -7.471842,2.36802"
       style="fill:#f69543;fill-opacity:1;fill-rule:nonzero;stroke:none;stroke-width:0.00757379"
       id="path72" />
    <path
       d="m 17.307367,28.95434 -0.03294,-0.0036 c 0.265234,-2.404071 0.003,-3.578462 2.88e-4,-3.59005 l 0.03234,-0.0074 c 0.0027,0.01159 0.266219,1.190523 2.88e-4,3.601107"
       style="fill:#b12225;fill-opacity:1;fill-rule:nonzero;stroke:none;stroke-width:0.00757379"
       id="path74" />
    <path
       d="m 17.406659,28.9529 -0.03294,-0.0037 c 0.265234,-2.40407 0.003,-3.578386 2.88e-4,-3.589974 l 0.03234,-0.0075 c 0.0027,0.01166 0.266219,1.190599 2.88e-4,3.601183"
       style="fill:#b12225;fill-opacity:1;fill-rule:nonzero;stroke:none;stroke-width:0.00757379"
       id="path76" />
    <path
       d="m 17.124082,28.92821 -0.03287,-0.0037 c 0.265158,-2.404373 0.0231,-3.608681 0.0206,-3.620647 l 0.03241,-0.0067 c 0.0025,0.01189 0.245769,1.220516 -0.02015,3.631025"
       style="fill:#b12225;fill-opacity:1;fill-rule:nonzero;stroke:none;stroke-width:0.00757379"
       id="path78" />
    <path
       d="m 16.243326,28.745379 -0.03302,-0.0033 c 0.0027,-0.02666 0.273262,-2.664458 0.927789,-3.445164 l 0.02537,0.02113 c -0.648089,0.773132 -0.917564,3.400781 -0.920139,3.427289"
       style="fill:#b12225;fill-opacity:1;fill-rule:nonzero;stroke:none;stroke-width:0.00757379"
       id="path80" />
    <path
       d="m 16.298463,28.745379 -0.03294,-0.0033 c 0.0026,-0.02666 0.273186,-2.664458 0.927789,-3.445164 l 0.02529,0.02113 c -0.648089,0.773132 -0.917489,3.400781 -0.92014,3.427289"
       style="fill:#b12225;fill-opacity:1;fill-rule:nonzero;stroke:none;stroke-width:0.00757379"
       id="path82" />
    <path
       d="m 16.400558,28.835734 -0.03294,-0.0031 c 0.249557,-2.618408 0.863942,-3.556649 0.870152,-3.565813 l 0.02742,0.01848 c -0.0061,0.0091 -0.616051,0.942255 -0.864623,3.550439"
       style="fill:#b12225;fill-opacity:1;fill-rule:nonzero;stroke:none;stroke-width:0.00757379"
       id="path84" />
    <path
       d="m 16.488338,28.866938 -0.03302,-0.0032 C 16.704874,26.245405 17.319259,25.307164 17.32547,25.298 l 0.02741,0.01841 c -0.0061,0.0092 -0.616051,0.942331 -0.864547,3.550515"
       style="fill:#b12225;fill-opacity:1;fill-rule:nonzero;stroke:none;stroke-width:0.00757379"
       id="path86" />
    <path
       d="m 17.047586,28.948659 -0.0328,-0.0045 c 0.004,-0.02818 0.394064,-2.823507 0.141706,-3.588157 l 0.03143,-0.0103 c 0.254783,0.77192 -0.124058,3.487804 -0.140342,3.603001"
       style="fill:#b12225;fill-opacity:1;fill-rule:nonzero;stroke:none;stroke-width:0.00757379"
       id="path88" />
    <path
       d="m 17.182021,28.97903 -0.03294,-0.004 c 0.0035,-0.02833 0.338472,-2.832293 0.07112,-3.590656 l 0.0312,-0.01106 c 0.269929,0.765634 -0.05544,3.49 -0.06937,3.605652"
       style="fill:#b12225;fill-opacity:1;fill-rule:nonzero;stroke:none;stroke-width:0.00757379"
       id="path90" />
    <path
       d="m 16.571346,28.833008 -0.0328,-0.0045 c 0.01802,-0.126862 0.444732,-3.109418 0.650664,-3.452056 l 0.0284,0.01704 c -0.202523,0.336882 -0.641879,3.408581 -0.646272,3.439558"
       style="fill:#b12225;fill-opacity:1;fill-rule:nonzero;stroke:none;stroke-width:0.00757379"
       id="path92" />
    <path
       d="m 16.919892,28.891629 -0.03272,-0.0054 c 0.0037,-0.02249 0.369449,-2.258805 0.336428,-3.448495 l 0.0331,-9.58e-4 c 0.0331,1.192947 -0.333095,3.43244 -0.336807,3.454934"
       style="fill:#b12225;fill-opacity:1;fill-rule:nonzero;stroke:none;stroke-width:0.00757379"
       id="path94" />
    <path
       d="m 16.865437,28.890417 -0.03272,-0.0054 c 0.0037,-0.02242 0.369449,-2.258881 0.336427,-3.448572 l 0.0331,-8.93e-4 c 0.0331,1.193022 -0.333095,3.432439 -0.336806,3.454933"
       style="fill:#b12225;fill-opacity:1;fill-rule:nonzero;stroke:none;stroke-width:0.00757379"
       id="path96" />
    <path
       d="m 16.760388,28.884661 -0.03294,-0.0034 c 0.124665,-1.198703 0.513427,-3.644354 0.517289,-3.668968 l 0.03272,0.0052 c -0.004,0.02454 -0.392549,2.469356 -0.517062,3.66715"
       style="fill:#b12225;fill-opacity:1;fill-rule:nonzero;stroke:none;stroke-width:0.00757379"
       id="path98" />
    <path
       d="m 16.705252,28.884661 -0.03294,-0.0034 c 0.124589,-1.198703 0.513426,-3.644354 0.517289,-3.668968 l 0.03264,0.0052 c -0.0039,0.02454 -0.392473,2.469356 -0.516986,3.66715"
       style="fill:#b12225;fill-opacity:1;fill-rule:nonzero;stroke:none;stroke-width:0.00757379"
       id="path100" />
    <path
       d="m 17.361671,28.954642 -0.03454,-0.0042 c 0.292878,-2.403541 0.0033,-3.577554 4.01e-4,-3.589217 l 0.0337,-0.0086 c 0.0029,0.01159 0.294241,1.190978 4.52e-4,3.602017"
       style="fill:#db313e;fill-opacity:1;fill-rule:nonzero;stroke:none;stroke-width:0.00757379"
       id="path102" />
    <path
       d="m 17.159148,28.928438 -0.03454,-0.0042 c 0.292879,-2.40354 0.0034,-3.577553 4.53e-4,-3.589141 l 0.0337,-0.0086 c 0.0029,0.01166 0.294166,1.190902 4.01e-4,3.60194"
       style="fill:#db313e;fill-opacity:1;fill-rule:nonzero;stroke:none;stroke-width:0.00757379"
       id="path104" />
    <path
       d="m 16.186295,28.745682 -0.03461,-0.0039 c 0.0029,-0.02659 0.301891,-2.664987 1.025111,-3.446147 l 0.0256,0.0237 c -0.715572,0.772753 -1.013221,3.399796 -1.016099,3.426304"
       style="fill:#db313e;fill-opacity:1;fill-rule:nonzero;stroke:none;stroke-width:0.00757379"
       id="path106" />
    <path
       d="m 16.247113,28.745682 -0.03454,-0.0039 c 0.0029,-0.02659 0.301892,-2.664987 1.025188,-3.446147 l 0.02552,0.0237 c -0.715572,0.772753 -1.013222,3.399796 -1.016175,3.426304"
       style="fill:#db313e;fill-opacity:1;fill-rule:nonzero;stroke:none;stroke-width:0.00757379"
       id="path108" />
    <path
       d="m 16.344133,28.82975 -0.03461,-0.0037 c 0.275686,-2.618863 0.9546,-3.557406 0.961417,-3.566571 l 0.02794,0.02076 c -0.0068,0.0091 -0.680277,0.94195 -0.954751,3.549529"
       style="fill:#db313e;fill-opacity:1;fill-rule:nonzero;stroke:none;stroke-width:0.00757379"
       id="path110" />
    <path
       d="m 16.427823,28.860424 -0.03461,-0.0036 c 0.275686,-2.619015 0.9546,-3.557558 0.961416,-3.566723 l 0.02795,0.02075 c -0.0067,0.0091 -0.680278,0.942028 -0.954752,3.54953"
       style="fill:#db313e;fill-opacity:1;fill-rule:nonzero;stroke:none;stroke-width:0.00757379"
       id="path112" />
    <path
       d="m 17.099543,28.955097 -0.03439,-0.0052 c 0.0044,-0.02818 0.43519,-2.822901 0.156626,-3.586944 l 0.03272,-0.01197 c 0.281668,0.772526 -0.13701,3.48894 -0.15496,3.604137"
       style="fill:#b12225;fill-opacity:1;fill-rule:nonzero;stroke:none;stroke-width:0.00757379"
       id="path114" />
    <path
       d="m 17.223147,28.979333 -0.03446,-0.0046 c 0.0038,-0.02817 0.37369,-2.831686 0.07862,-3.589444 l 0.03241,-0.01265 c 0.298332,0.766164 -0.06112,3.491061 -0.07657,3.606712"
       style="fill:#db313e;fill-opacity:1;fill-rule:nonzero;stroke:none;stroke-width:0.00757379"
       id="path116" />
    <path
       d="m 16.507576,28.822329 -0.03439,-0.0056 c 0.02,-0.126785 0.491387,-3.109796 0.719055,-3.452661 l 0.029,0.01924 c -0.223502,0.336654 -0.708755,3.4079 -0.713677,3.438952"
       style="fill:#db313e;fill-opacity:1;fill-rule:nonzero;stroke:none;stroke-width:0.00757379"
       id="path118" />
    <path
       d="m 16.96791,28.904049 -0.03431,-0.0062 c 0.0041,-0.02241 0.408,-2.258502 0.37157,-3.448041 l 0.03476,-9.57e-4 c 0.03658,1.193097 -0.36801,3.432742 -0.372024,3.455236"
       style="fill:#db313e;fill-opacity:1;fill-rule:nonzero;stroke:none;stroke-width:0.00757379"
       id="path120" />
    <path
       d="m 16.785155,28.886478 -0.03408,-0.007 c 0.0048,-0.02333 0.484117,-2.350448 0.447611,-3.539683 l 0.03484,-0.0011 c 0.03658,1.193401 -0.443597,3.524536 -0.448368,3.547864"
       style="fill:#db313e;fill-opacity:1;fill-rule:nonzero;stroke:none;stroke-width:0.00757379"
       id="path122" />
    <path
       d="m 16.75751,28.884888 -0.03461,-0.004 c 0.137691,-1.198779 0.567125,-3.644506 0.571366,-3.669045 l 0.03431,0.006 c -0.0043,0.02461 -0.433524,2.469281 -0.571064,3.667"
       style="fill:#db313e;fill-opacity:1;fill-rule:nonzero;stroke:none;stroke-width:0.00757379"
       id="path124" />
    <path
       d="m 16.636481,28.884812 -0.03461,-0.004 c 0.137616,-1.198702 0.567125,-3.644581 0.571442,-3.66912 l 0.03423,0.006 c -0.0043,0.02461 -0.433524,2.469356 -0.571064,3.667075"
       style="fill:#db313e;fill-opacity:1;fill-rule:nonzero;stroke:none;stroke-width:0.00757379"
       id="path126" />
    <path
       d="m 21.465678,13.815782 c -0.161321,0 -0.312494,-0.102094 -0.369828,-0.265764 -0.04976,-0.14216 -0.01576,-0.293938 0.07581,-0.399593 -0.03287,0.0088 -0.06612,0.01302 -0.09891,0.01302 -0.16117,0 -0.312267,-0.101942 -0.369525,-0.265536 -0.04143,-0.118378 -0.02469,-0.243422 0.03492,-0.342942 -0.02257,0.01409 -0.04696,0.02606 -0.07286,0.03545 -0.04355,0.01583 -0.08808,0.02341 -0.13186,0.02341 -0.161246,0 -0.312419,-0.102094 -0.369752,-0.265839 -0.01492,-0.04272 -0.02196,-0.08627 -0.02249,-0.129209 -0.0103,0.0048 -0.02068,0.0094 -0.03158,0.01333 -0.04362,0.0159 -0.08808,0.02341 -0.131859,0.02341 -0.161246,0 -0.312419,-0.102095 -0.369752,-0.265764 -0.02378,-0.06816 -0.0281,-0.138449 -0.01636,-0.204871 -0.04529,0.06922 -0.111562,0.124967 -0.194343,0.155111 -0.04362,0.01583 -0.08808,0.02333 -0.13186,0.02333 -0.161322,0 -0.312495,-0.102095 -0.369752,-0.265764 -0.01143,-0.03249 -0.01795,-0.06551 -0.02083,-0.09838 -0.03976,0.104746 -0.122089,0.192071 -0.234031,0.232742 -0.04362,0.0159 -0.08816,0.02341 -0.131935,0.02341 -0.161246,0 -0.312418,-0.102095 -0.369676,-0.265765 -0.07286,-0.208052 0.03363,-0.437007 0.237893,-0.51123 0.04355,-0.01583 0.08808,-0.02333 0.131783,-0.02333 0.161322,0 0.312495,0.102094 0.369753,0.265764 0.01136,0.03257 0.01788,0.06559 0.02083,0.09846 0.03976,-0.104821 0.122089,-0.192148 0.234029,-0.232894 0.04362,-0.01583 0.08808,-0.02333 0.13186,-0.02333 0.161322,0 0.312495,0.102096 0.369752,0.265765 0.02386,0.06816 0.0281,0.138448 0.01643,0.204871 0.04521,-0.06923 0.111562,-0.125043 0.194343,-0.155111 0.04355,-0.01583 0.08808,-0.02333 0.13186,-0.02333 0.161245,0 0.312418,0.102095 0.369752,0.265764 0.01492,0.04272 0.02196,0.08627 0.02241,0.129209 0.01038,-0.0048 0.02076,-0.0094 0.03166,-0.01333 0.04362,-0.01583 0.08808,-0.02341 0.131861,-0.02341 0.161245,0 0.312418,0.102094 0.369752,0.26584 0.04135,0.118302 0.02469,0.243269 -0.03492,0.342788 0.02257,-0.01401 0.04696,-0.02598 0.07286,-0.03537 0.04355,-0.01583 0.08808,-0.02333 0.13186,-0.02333 0.161246,0 0.312419,0.102094 0.369752,0.265764 0.04968,0.142084 0.01575,0.293862 -0.07581,0.399517 0.03287,-0.0088 0.06604,-0.01302 0.09884,-0.01302 0.16117,0 0.312343,0.101943 0.369525,0.265536 0.07286,0.208128 -0.03363,0.437008 -0.237741,0.511231 -0.04362,0.01583 -0.08808,0.02341 -0.13186,0.02341"
       style="fill:#fbc57a;fill-opacity:1;fill-rule:nonzero;stroke:none;stroke-width:0.00757379"
       id="path128" />
    <path
       d="m 17.016761,12.226499 c -0.161246,0 -0.312419,-0.102095 -0.369676,-0.265764 -0.07286,-0.208128 0.0337,-0.437007 0.237816,-0.511231 0.04362,-0.01583 0.08808,-0.02333 0.13186,-0.02333 0.135722,0 0.264325,0.07225 0.335822,0.192752 -0.06968,-0.206839 0.03651,-0.432917 0.239179,-0.506535 0.04355,-0.0159 0.08808,-0.0234 0.131861,-0.0234 0.161245,0 0.312418,0.102094 0.369752,0.265764 0.07278,0.208127 -0.03363,0.437007 -0.237893,0.51123 -0.04355,0.01583 -0.08808,0.02333 -0.131859,0.02333 -0.135723,0 -0.26425,-0.07233 -0.335746,-0.192754 0.06968,0.206841 -0.03651,0.432918 -0.239181,0.506535 -0.04362,0.0159 -0.08816,0.0234 -0.131935,0.0234"
       style="fill:#fbc57a;fill-opacity:1;fill-rule:nonzero;stroke:none;stroke-width:0.00757379"
       id="path130" />
    <path
       d="m 17.647506,22.896599 c -9.57e-4,-6.07e-4 -0.002,-0.0013 -0.0029,-0.0019 l 0.185784,-0.06172 c -0.06044,0.02249 -0.121256,0.04415 -0.182831,0.06362"
       style="fill:#f8c466;fill-opacity:1;fill-rule:nonzero;stroke:none;stroke-width:0.00757379"
       id="path132" />
    <path
       d="m 17.644552,22.894706 c -0.06907,-0.04605 -0.125194,-0.113304 -0.155111,-0.198585 -0.07286,-0.208127 0.0337,-0.437083 0.237892,-0.51123 0.0077,-0.0028 0.0156,-0.0049 0.02341,-0.0072 -0.01757,-0.0015 -0.03499,-0.0043 -0.05203,-0.0082 l 0.375432,-0.120423 c -0.04188,0.04688 -0.09543,0.0843 -0.15814,0.107093 -0.0078,0.0028 -0.0156,0.0049 -0.02341,0.0072 0.148371,0.01302 0.283033,0.111562 0.336277,0.263871 0.03029,0.08664 0.02886,0.176394 0.0028,0.257357 -0.135496,0.04476 -0.267658,0.09869 -0.401336,0.148371 l -0.185784,0.06172"
       style="fill:#341813;fill-opacity:1;fill-rule:nonzero;stroke:none;stroke-width:0.00757379"
       id="path134" />
    <path
       d="m 17.698705,22.169516 c -0.127164,-0.02893 -0.237363,-0.121484 -0.28432,-0.255691 -0.07286,-0.208128 0.03363,-0.437008 0.237816,-0.51123 0.04339,-0.01576 0.08763,-0.02303 0.131179,-0.02303 0.0045,0 0.0089,5.7e-5 0.01341,2.28e-4 -0.08952,-0.04415 -0.162837,-0.12262 -0.198888,-0.225699 -0.04984,-0.142311 -0.01568,-0.294393 0.07619,-0.400047 l 0.632183,0.467984 c -0.04499,0.07839 -0.116257,0.141629 -0.206764,0.174575 -0.04332,0.01576 -0.08763,0.02295 -0.131177,0.02295 -0.0045,0 -0.0089,-5.7e-5 -0.01341,-2.27e-4 0.08952,0.04415 0.162837,0.122695 0.198888,0.225699 0.05044,0.144129 0.01484,0.298255 -0.07968,0.404061 L 17.6987,22.169512"
       style="fill:#732218;fill-opacity:1;fill-rule:nonzero;stroke:none;stroke-width:0.00757379"
       id="path136" />
    <path
       d="M 18.306273,21.222035 17.67409,20.754051 c 0.04241,-0.04878 0.09717,-0.08763 0.1617,-0.111108 0.04317,-0.01568 0.08725,-0.0231 0.130647,-0.0231 0.02802,0 0.05574,0.0031 0.08278,0.009 -0.07998,-0.04567 -0.144887,-0.119439 -0.178136,-0.214338 -0.01878,-0.05378 -0.02568,-0.108835 -0.02196,-0.162306 l 0.535239,0.400274 c -0.0038,0.0015 -0.0077,0.003 -0.01166,0.0045 -0.04325,0.01568 -0.08725,0.02302 -0.130647,0.02302 -0.02802,0 -0.05574,-0.0031 -0.08278,-0.009 0.07998,0.04567 0.144886,0.119515 0.178135,0.214414 0.04052,0.115878 0.02545,0.238196 -0.03113,0.336655"
       style="fill:#341813;fill-opacity:1;fill-rule:nonzero;stroke:none;stroke-width:0.00757379"
       id="path138" />
    <path
       d="m 18.38436,20.652486 -0.53524,-0.400274 c 0.0056,-0.07952 0.03439,-0.15549 0.08187,-0.217898 0.323552,0.248723 0.545539,0.418755 0.627639,0.480708 -0.04264,0.05999 -0.101943,0.108608 -0.174272,0.137464"
       style="fill:#4e1b14;fill-opacity:1;fill-rule:nonzero;stroke:none;stroke-width:0.00757379"
       id="path140" />
    <path
       d="m 18.558632,20.515022 c -0.0821,-0.06195 -0.304087,-0.231985 -0.627639,-0.480708 0.02969,-0.03886 0.06657,-0.07248 0.109668,-0.09846 0.305072,0.234333 0.49987,0.383385 0.543722,0.415725 0.01189,0.0087 0.02423,0.01772 0.03696,0.02689 -0.01227,0.04908 -0.03355,0.09551 -0.06271,0.136555"
       style="fill:#341813;fill-opacity:1;fill-rule:nonzero;stroke:none;stroke-width:0.00757379"
       id="path142" />
    <path
       d="m 18.621343,20.378467 c -0.01272,-0.0092 -0.02507,-0.01818 -0.03696,-0.02689 -0.04385,-0.03234 -0.238649,-0.181392 -0.543722,-0.415725 0.02129,-0.0128 0.04408,-0.02378 0.06824,-0.03257 0.04347,-0.01583 0.08786,-0.02325 0.131481,-0.02325 0.02477,0 0.04923,0.0024 0.07324,0.007 l 0.218504,0.168668 c 0,0 0.0092,-0.0042 0.02583,-0.01151 0.02174,0.03029 0.03961,0.0643 0.05264,0.101489 0.02719,0.07771 0.02939,0.158368 0.01076,0.232743"
       style="fill:#93371d;fill-opacity:1;fill-rule:nonzero;stroke:none;stroke-width:0.00757379"
       id="path144" />
    <path
       d="m 19.241409,19.057372 c -0.153596,-0.34597 -0.424586,-0.699969 -0.766013,-1.049348 0.01636,-0.05892 0.04574,-0.113607 0.08619,-0.159353 -0.159883,-0.0016 -0.309086,-0.102851 -0.365965,-0.265234 -0.04415,-0.126027 -0.02212,-0.259401 0.04711,-0.361647 -0.03014,0.0073 -0.06044,0.01076 -0.09043,0.01076 -0.161245,0 -0.312418,-0.101944 -0.369676,-0.265613 -0.01802,-0.0515 -0.02484,-0.104215 -0.02204,-0.155565 0.693229,0.535694 1.268458,1.082218 1.476737,1.387518 -0.025,0.12012 -0.103685,0.225925 -0.21873,0.280306 0.112773,0.03658 0.208203,0.124134 0.25107,0.246526 0.03984,0.11391 0.02598,0.23403 -0.02825,0.331656"
       style="fill:#fbc57a;fill-opacity:1;fill-rule:nonzero;stroke:none;stroke-width:0.00757379"
       id="path146" />
    <path
       d="M 18.532124,20.055748 18.31362,19.88708 c 0.03469,0.0067 0.06832,0.01825 0.0999,0.034 -0.0749,-0.04597 -0.135343,-0.11762 -0.167002,-0.208051 -0.05574,-0.159353 -0.0064,-0.3309 0.111487,-0.435872 l 0.597496,0.436478 -0.583182,-0.448596 c 0.03287,-0.02651 0.07044,-0.04809 0.112092,-0.06324 0.04332,-0.01576 0.08748,-0.0231 0.131027,-0.0231 0.0011,0 0.0022,0 0.0033,0 0.140721,0.114743 0.268718,0.221381 0.381945,0.318629 0.03946,0.192601 -0.06559,0.390125 -0.252509,0.458062 -0.04347,0.01583 -0.08786,0.02333 -0.131481,0.02333 -0.06059,0 -0.119818,-0.01447 -0.173137,-0.04113 0.04415,0.02712 0.08331,0.06309 0.11444,0.106639 -0.01666,0.0073 -0.02583,0.01151 -0.02583,0.01151 m 0.417013,-0.689366 c -0.125271,-0.123756 -0.268567,-0.257812 -0.427768,-0.400502 -0.03476,-0.128602 -0.0033,-0.262053 0.07536,-0.359678 0.190556,0.20328 0.362405,0.408832 0.495325,0.602797 -0.01894,0.01083 -0.03908,0.02015 -0.06021,0.02787 -0.04332,0.01575 -0.0874,0.0231 -0.130876,0.0231 -0.01742,0 -0.03476,-0.0012 -0.05188,-0.0035 0.03923,0.02939 0.07339,0.06642 0.100049,0.109896"
       style="fill:#f8a35a;fill-opacity:1;fill-rule:nonzero;stroke:none;stroke-width:0.00757379"
       id="path148" />
    <path
       d="m 19.092053,19.208999 c -0.132919,-0.193965 -0.304768,-0.399517 -0.495325,-0.602797 0.03643,-0.04529 0.08301,-0.08286 0.137843,-0.10876 -0.112773,-0.03658 -0.208279,-0.124134 -0.251146,-0.246527 -0.0284,-0.08127 -0.02946,-0.165714 -0.008,-0.242891 0.341427,0.349379 0.612417,0.703378 0.766013,1.049348 -0.03453,0.06218 -0.08551,0.115197 -0.149355,0.151627"
       style="fill:#f79744;fill-opacity:1;fill-rule:nonzero;stroke:none;stroke-width:0.00757379"
       id="path150" />
    <path
       d="m 19.000638,19.497333 c -0.113228,-0.09725 -0.241225,-0.203887 -0.381945,-0.318629 0.01621,1.75e-4 0.03241,0.0013 0.04839,0.0034 -0.06097,-0.0456 -0.109592,-0.109592 -0.136858,-0.187602 -0.0033,-0.0095 -0.0063,-0.01901 -0.0089,-0.02863 0.159201,0.14269 0.302497,0.276746 0.427767,0.400502 0.0147,0.02401 0.02712,0.04999 0.03688,0.07778 0.0061,0.01765 0.01098,0.03537 0.01462,0.05317"
       style="fill:#f79744;fill-opacity:1;fill-rule:nonzero;stroke:none;stroke-width:0.00757379"
       id="path152" />
    <path
       d="m 18.955499,19.71364 -0.597496,-0.436478 c 0.0047,-0.0041 0.0095,-0.0082 0.01431,-0.01212 l 0.583181,0.448595"
       style="fill:#f79744;fill-opacity:1;fill-rule:nonzero;stroke:none;stroke-width:0.00757379"
       id="path154" />
    <path
       d="m 19.244893,18.089745 c -0.08096,-0.107321 -0.192223,-0.231834 -0.32643,-0.367329 0.135495,0.02341 0.254933,0.118379 0.304466,0.259705 0.01242,0.0356 0.01962,0.07172 0.02196,0.107624 m -0.363087,-0.404062 c -0.396867,-0.394442 -0.9777,-0.87462 -1.5705,-1.292618 -0.0046,-0.0459 -0.0012,-0.09157 0.0092,-0.135192 -0.03833,0.01204 -0.07718,0.01772 -0.115424,0.01772 -0.02484,0 -0.04938,-0.0024 -0.07339,-0.007 -0.08339,-0.05673 -0.166699,-0.112015 -0.249405,-0.165259 -0.01901,-0.0281 -0.03476,-0.05923 -0.04658,-0.09293 -0.02643,-0.07559 -0.02893,-0.153748 -0.01204,-0.22638 -0.03128,0.0079 -0.06271,0.01167 -0.09384,0.01167 -0.161246,0 -0.312419,-0.102019 -0.369677,-0.265764 -0.0359,-0.102549 -0.0281,-0.210173 0.01341,-0.301815 -0.01219,0.0011 -0.02431,0.0017 -0.03643,0.0017 -0.161245,0 -0.312342,-0.10164 -0.3696,-0.265309 -0.03794,-0.108306 -0.02688,-0.222064 0.02083,-0.316888 -0.141555,-0.01886 -0.267961,-0.115652 -0.319159,-0.262053 -0.0587,-0.167608 -8.94e-4,-0.348621 0.130496,-0.451549 -0.07778,-0.04574 -0.140721,-0.118681 -0.173212,-0.211687 -0.07044,-0.201235 0.02711,-0.421481 0.218275,-0.502899 -0.04029,-0.04082 -0.07278,-0.09081 -0.09316,-0.148977 -0.07278,-0.208127 0.0337,-0.437007 0.237894,-0.51123 0.02817,-0.01023 0.05673,-0.01666 0.08521,-0.02015 -0.0064,-0.01325 -0.01219,-0.02696 -0.01712,-0.0412 -0.07286,-0.208052 0.03363,-0.436931 0.237817,-0.511155 0.04355,-0.01583 0.08808,-0.0234 0.131859,-0.0234 0.161322,0 0.312419,0.102095 0.369752,0.265765 0.07278,0.208127 -0.0337,0.437007 -0.237892,0.51123 -0.02817,0.01022 -0.05673,0.01666 -0.08521,0.02015 0.0064,0.01333 0.01219,0.02696 0.01712,0.0412 0.07044,0.201235 -0.02712,0.421481 -0.218277,0.502975 0.04029,0.04075 0.07278,0.09081 0.09316,0.148976 0.0587,0.167608 8.3e-4,0.348621 -0.130572,0.451473 0.07778,0.04582 0.140721,0.118682 0.173288,0.211688 0.03787,0.108305 0.02688,0.222063 -0.0209,0.316887 0.141555,0.01886 0.267961,0.115652 0.319236,0.262053 0.0359,0.102625 0.02802,0.210172 -0.01348,0.301815 0.01219,-0.0011 0.02439,-0.0017 0.03651,-0.0017 0.161246,0 0.312343,0.101715 0.369601,0.265309 0.02643,0.07551 0.02893,0.153748 0.01204,0.226382 0.03121,-0.0079 0.06271,-0.01167 0.09376,-0.01167 0.161246,0 0.312494,0.102096 0.369752,0.265765 0.02674,0.07627 0.02908,0.155338 0.01159,0.228577 0.03833,-0.01197 0.07718,-0.01772 0.115424,-0.01772 0.16117,0 0.312116,0.101716 0.369374,0.26531 0.02582,0.07369 0.02878,0.14996 0.01318,0.221154 0.02265,-0.0041 0.04537,-0.0061 0.06794,-0.0061 0.16117,0 0.312191,0.101716 0.369449,0.26531 0.04408,0.126028 0.02219,0.259402 -0.04711,0.361724 0.03015,-0.0073 0.06052,-0.01083 0.09051,-0.01083 0.16117,0 0.312343,0.101943 0.3696,0.265612 0.04544,0.129816 0.02106,0.267658 -0.05324,0.37104 M 17.6824,16.751391 c -0.150945,-0.0076 -0.289999,-0.104064 -0.34703,-0.25607 0.117772,0.08407 0.233878,0.169805 0.34703,0.25607"
       style="fill:#fbc57a;fill-opacity:1;fill-rule:nonzero;stroke:none;stroke-width:0.00757379"
       id="path156" />
    <path
       d="m 19.237319,18.198883 c -0.208279,-0.305299 -0.783508,-0.851823 -1.476737,-1.387518 0.0012,-0.02219 0.0042,-0.04408 0.0089,-0.06559 -0.02264,0.0041 -0.04537,0.0061 -0.06786,0.0061 -0.0064,0 -0.01288,-1.75e-4 -0.01931,-4.53e-4 -0.113152,-0.08627 -0.229258,-0.172001 -0.347031,-0.25607 -0.0011,-0.0029 -0.0022,-0.0058 -0.0032,-0.0088 -0.01083,-0.0309 -0.01765,-0.06225 -0.02083,-0.09346 0.5928,0.417997 1.173634,0.898175 1.5705,1.292618 -0.0077,0.01083 -0.01606,0.02121 -0.02484,0.03121 0.02075,1.75e-4 0.04127,0.002 0.0615,0.0056 0.134208,0.135494 0.245467,0.260007 0.326431,0.367328 0.0025,0.03704 -2.27e-4,0.07369 -0.0076,0.109138 m -2.105664,-1.930331 c -0.0999,-0.01947 -0.190253,-0.07801 -0.249405,-0.165259 0.08271,0.05325 0.166017,0.108532 0.249405,0.165259"
       style="fill:#f6812f;fill-opacity:1;fill-rule:nonzero;stroke:none;stroke-width:0.00757379"
       id="path158" />
    <path
       d="m 19.522245,21.872396 c -0.128603,0 -0.250843,-0.06491 -0.324083,-0.174273 l 0.368465,-0.127921 0.08778,-0.02817 0.198281,0.146249 c -0.04529,0.07195 -0.113455,0.129815 -0.198585,0.160716 -0.04355,0.0159 -0.08808,0.02341 -0.131859,0.02341"
       style="fill:#341813;fill-opacity:1;fill-rule:nonzero;stroke:none;stroke-width:0.00757379"
       id="path160" />
    <path
       d="m 19.852689,21.688277 -0.198281,-0.146249 0.26031,-0.08354 c 0.0027,0.0821 -0.01954,0.162154 -0.06203,0.229788"
       style="fill:#341813;fill-opacity:1;fill-rule:nonzero;stroke:none;stroke-width:0.00757379"
       id="path162" />
    <path
       d="m 19.566627,21.570202 0.03052,-0.01061 0.178363,-0.392928 c 0.05135,0.044 0.09233,0.102095 0.116485,0.171168 0.01394,0.03992 0.02136,0.08051 0.02272,0.12065 l -0.260311,0.08354 -0.08778,0.02818"
       style="fill:#732218;fill-opacity:1;fill-rule:nonzero;stroke:none;stroke-width:0.00757379"
       id="path164" />
    <path
       d="m 19.198162,21.698123 c -0.01855,-0.02772 -0.034,-0.05839 -0.0456,-0.09149 -0.04249,-0.121256 -0.02401,-0.249632 0.03916,-0.350288 l 0.405424,0.303255 -0.03052,0.0106 -0.368465,0.127921"
       style="fill:#341813;fill-opacity:1;fill-rule:nonzero;stroke:none;stroke-width:0.00757379"
       id="path166" />
    <path
       d="m 19.597149,21.559599 v 0 l -0.405424,-0.303255 c 0.04529,-0.07203 0.113455,-0.129966 0.19866,-0.160942 0.01894,-0.0069 0.03802,-0.01159 0.05719,-0.01545 -0.156551,-0.0015 -0.302876,-0.09869 -0.362254,-0.255086 0.176241,0.0743 0.384824,0.134056 0.626655,0.154582 -0.03658,0.03317 -0.0799,0.05983 -0.12883,0.07763 -0.01886,0.0069 -0.03802,0.01166 -0.05711,0.01545 0.09179,9.58e-4 0.18018,0.03476 0.249481,0.09414 l -0.178363,0.392928"
       style="fill:#4e1b14;fill-opacity:1;fill-rule:nonzero;stroke:none;stroke-width:0.00757379"
       id="path168" />
    <path
       d="m 19.711968,20.979447 c -0.241831,-0.02053 -0.450413,-0.08028 -0.626655,-0.154581 -0.0013,-0.0033 -0.0025,-0.0067 -0.0037,-0.01015 -0.02121,-0.06059 -0.02727,-0.122923 -0.02007,-0.18268 0.207522,0.09043 0.461471,0.1617 0.763286,0.171319 -0.02143,0.06733 -0.06013,0.128376 -0.112849,0.176091"
       style="fill:#341813;fill-opacity:1;fill-rule:nonzero;stroke:none;stroke-width:0.00757379"
       id="path170" />
    <path
       d="m 19.824817,20.803356 c -0.301815,-0.0096 -0.555764,-0.08089 -0.763285,-0.171319 0.01749,-0.145644 0.113152,-0.275988 0.257887,-0.32855 0.03651,-0.01333 0.07362,-0.02053 0.110426,-0.02257 -0.124134,-0.03075 -0.231152,-0.122393 -0.277277,-0.254176 -0.01977,-0.0565 -0.02635,-0.114516 -0.02135,-0.170562 0.08096,-0.01621 0.161699,-0.02658 0.236074,-0.02658 v 0 0 0 0 0 c 0.133904,0 0.327112,0.100503 0.514108,0.224183 -0.04196,0.09702 -0.121559,0.176924 -0.227289,0.215323 -0.03643,0.01333 -0.07354,0.02045 -0.110425,0.02257 0.12421,0.03075 0.231227,0.122393 0.277276,0.254177 0.03029,0.08649 0.02961,0.176469 0.0038,0.257508"
       style="fill:#93371d;fill-opacity:1;fill-rule:nonzero;stroke:none;stroke-width:0.00757379"
       id="path172" />
    <path
       d="m 19.367285,19.829595 v 0 c 0.2669,-0.271445 0.552811,-0.563035 0.872727,-0.850309 0.02923,0.03537 0.05294,0.07665 0.06915,0.122847 0.0095,0.02727 0.01598,0.05491 0.01954,0.08248 -0.657783,0.378917 -0.961416,0.644984 -0.961416,0.644984 m 1.006934,-0.857049 c -0.03719,0 -0.07392,-0.0054 -0.109062,-0.01583 0.157838,-0.140796 0.323931,-0.280456 0.500172,-0.416103 0.01386,0.176015 -0.08861,0.346501 -0.259553,0.408682 -0.04347,0.01575 -0.08786,0.02325 -0.131557,0.02325 m 0.636956,-0.613553 c 0.05173,-0.03658 0.10429,-0.07278 0.157762,-0.108532 -0.04166,0.04741 -0.09505,0.08528 -0.157762,0.108532"
       style="fill:#f79744;fill-opacity:1;fill-rule:nonzero;stroke:none;stroke-width:0.00757379"
       id="path174" />
    <path
       d="m 19.367285,19.829595 c 0.0093,-0.05794 0.01386,-0.116409 0.01378,-0.175409 0,-0.04378 -0.0025,-0.08786 -0.0075,-0.132163 0.0056,-0.0023 0.01113,-0.0045 0.01682,-0.0065 0.0434,-0.01575 0.0877,-0.02325 0.13133,-0.02325 0.0076,0 0.01507,2.26e-4 0.02257,7.02e-4 l -0.176999,0.336655 m 0.219489,-0.417467 c -0.0064,-0.01325 -0.01204,-0.02696 -0.01704,-0.04128 -0.07286,-0.208052 0.03363,-0.436931 0.237816,-0.511155 0.02651,-0.0096 0.05339,-0.01621 0.08021,-0.01984 l -0.300982,0.572275 m 0.401714,-0.76374 c -0.03522,-0.184043 0.06105,-0.37157 0.234029,-0.445036 l -0.234029,0.445036"
       style="fill:#fbc57a;fill-opacity:1;fill-rule:nonzero;stroke:none;stroke-width:0.00757379"
       id="path176" />
    <path
       d="m 19.367285,19.829595 v 0 l 0.177,-0.336655 c 0.04044,0.0024 0.07998,0.01113 0.117318,0.02568 -0.02992,-0.0306 -0.05544,-0.06619 -0.07483,-0.106488 l 0.300981,-0.572275 c 0.01719,-0.0024 0.03431,-0.0035 0.05135,-0.0035 0.06991,0 0.137919,0.01924 0.197222,0.05431 -0.05862,-0.04537 -0.105579,-0.10785 -0.132163,-0.183815 -0.0067,-0.01939 -0.01196,-0.03893 -0.01568,-0.05847 l 0.234029,-0.445035 c 0.0064,-0.0027 0.01288,-0.0053 0.01954,-0.0077 0.04332,-0.01576 0.08763,-0.02318 0.131178,-0.02318 0.0515,0 0.102094,0.01045 0.148901,0.02999 l -0.162912,0.315978 0.163518,-0.16579 c 0.0046,-0.007 0.179271,-0.257205 0.678383,-0.595223 0.01855,0.02772 0.03393,0.05824 0.04552,0.09126 0.05006,0.143145 0.0153,0.296135 -0.07771,0.401789 -0.05347,0.03575 -0.106033,0.07195 -0.157762,0.108533 -8.3e-4,2.88e-4 -0.0016,6.06e-4 -0.0024,8.94e-4 -0.04339,0.01575 -0.08763,0.02317 -0.131178,0.02317 -0.0665,0 -0.131329,-0.01742 -0.188587,-0.04923 0.02257,0.03105 0.0412,0.06589 0.05468,0.104216 0.01182,0.03386 0.01894,0.06832 0.02166,0.102549 -0.176241,0.135646 -0.342334,0.275307 -0.500172,0.416103 -0.03082,-0.0091 -0.06044,-0.02204 -0.08816,-0.0384 0.02295,0.0178 0.04416,0.03817 0.06301,0.06097 -0.319916,0.287274 -0.605826,0.578864 -0.872727,0.850309"
       style="fill:#fbc88d;fill-opacity:1;fill-rule:nonzero;stroke:none;stroke-width:0.00757379"
       id="path178" />
    <path
       d="m 19.881393,20.053779 c -0.186996,-0.12368 -0.380204,-0.224184 -0.514108,-0.224184 v 0 c 0,0 0.303633,-0.266067 0.961416,-0.644984 0.02371,0.182983 -0.07998,0.364223 -0.257357,0.428752 -0.04347,0.01576 -0.08778,0.02317 -0.131329,0.02317 -0.04825,0 -0.09566,-0.0092 -0.139888,-0.02628 0.03514,0.03598 0.0643,0.07892 0.08452,0.1283 -0.05658,0.03007 -0.113077,0.06044 -0.169426,0.09104 0.05794,-0.02651 0.115955,-0.05309 0.173894,-0.07968 9.58e-4,0.0027 0.002,0.0053 0.0029,0.008 0.03514,0.100353 0.02855,0.205477 -0.0106,0.295832"
       style="fill:#f8a35a;fill-opacity:1;fill-rule:nonzero;stroke:none;stroke-width:0.00757379"
       id="path180" />
    <path
       d="m 19.131211,19.856179 c 0.0061,-0.06718 0.0287,-0.131481 0.06521,-0.186921 0.06476,0.05847 0.122014,0.112168 0.170864,0.160337 -0.07437,0 -0.155111,0.01037 -0.236074,0.02659 m 0.236074,-0.02659 c -0.04256,-0.05695 -0.09369,-0.118909 -0.152915,-0.185558 0.02295,-0.02954 0.04999,-0.05597 0.08089,-0.07824 0.04075,0.0949 0.06582,0.183664 0.07203,0.263795 v 0"
       style="fill:#f8a35a;fill-opacity:1;fill-rule:nonzero;stroke:none;stroke-width:0.00757379"
       id="path182" />
    <path
       d="m 19.367285,19.829595 v 0 c -0.0062,-0.08013 -0.03128,-0.168896 -0.07203,-0.263795 0.02394,-0.01727 0.05014,-0.03204 0.07831,-0.04378 0.005,0.04431 0.0075,0.08839 0.0075,0.132164 5.6e-5,0.059 -0.0045,0.117469 -0.01378,0.175408 v 0 0 0 0"
       style="fill:#f79744;fill-opacity:1;fill-rule:nonzero;stroke:none;stroke-width:0.00757379"
       id="path184" />
    <path
       d="m 19.367285,19.829595 v 0 c -0.04885,-0.04817 -0.106108,-0.101868 -0.170864,-0.160337 0.0057,-0.0086 0.01166,-0.01704 0.01795,-0.02522 0.05923,0.06665 0.11035,0.128604 0.152915,0.185559 v 0"
       style="fill:#f79744;fill-opacity:1;fill-rule:nonzero;stroke:none;stroke-width:0.00757379"
       id="path186" />
    <path
       d="m 19.715225,19.829595 c 0.05635,-0.0306 0.11285,-0.06097 0.169426,-0.09104 0.0015,0.0037 0.003,0.0075 0.0045,0.01136 -0.05794,0.02658 -0.115955,0.05317 -0.173894,0.07968"
       style="fill:#f79744;fill-opacity:1;fill-rule:nonzero;stroke:none;stroke-width:0.00757379"
       id="path188" />
    <path
       d="m 20.534406,18.178585 c -0.0106,-0.01924 -0.01969,-0.03961 -0.02719,-0.06112 -0.07286,-0.208052 0.03363,-0.436932 0.237816,-0.511155 0.03151,-0.01151 0.06354,-0.01855 0.09535,-0.02151 l -0.305981,0.593785 m 0.11247,-0.06635 0.27152,-0.526758 c 0.0156,0.0017 0.03105,0.0044 0.04627,0.008 -0.01341,-0.0065 -0.02651,-0.01386 -0.03916,-0.02189 L 21.28927,16.86571 c 0.01037,0.0046 0.02053,0.0096 0.03052,0.01507 -0.0097,-0.0061 -0.01908,-0.01265 -0.02817,-0.01954 l 0.686109,-1.331321 c 0.02241,0.03082 0.04082,0.06559 0.05415,0.10361 0.07286,0.208127 -0.0337,0.437007 -0.237893,0.51123 -0.04196,0.0153 -0.0849,0.02242 -0.127164,0.02295 0.103382,0.04029 0.189572,0.124437 0.229713,0.239029 0.07278,0.208127 -0.0337,0.437007 -0.237893,0.51123 -0.04332,0.01575 -0.08763,0.02318 -0.131102,0.02318 -0.06566,0 -0.129663,-0.01696 -0.18639,-0.04802 0.07294,0.04612 0.131631,0.116484 0.162684,0.205248 0.07286,0.208128 -0.03363,0.436932 -0.237816,0.511231 -0.04332,0.01568 -0.08748,0.0231 -0.130876,0.0231 -0.03015,0 -0.05991,-0.0036 -0.08876,-0.0103 0.04166,0.0203 0.07983,0.04809 0.11247,0.08225 -0.23668,0.160337 -0.402168,0.301588 -0.511988,0.407621"
       style="fill:#fbc88d;fill-opacity:1;fill-rule:nonzero;stroke:none;stroke-width:0.00757379"
       id="path190" />
    <path
       d="m 20.741851,17.21573 c 0.005,-0.120953 0.06423,-0.234636 0.161246,-0.306587 l -0.161246,0.306587"
       style="fill:#fbc57a;fill-opacity:1;fill-rule:nonzero;stroke:none;stroke-width:0.00757379"
       id="path192" />
    <path
       d="m 20.869545,17.528225 c -0.04605,-0.04264 -0.0827,-0.09717 -0.105124,-0.161095 -0.01749,-0.05006 -0.02469,-0.101337 -0.02257,-0.1514 l 0.161246,-0.306587 c 0.02969,-0.02196 0.06286,-0.04007 0.09914,-0.05324 0.04339,-0.01576 0.08763,-0.02325 0.131177,-0.02325 0.03022,0 0.06014,0.0036 0.08914,0.0106 l -0.353014,0.684973"
       style="fill:#fbc88d;fill-opacity:1;fill-rule:nonzero;stroke:none;stroke-width:0.00757379"
       id="path194" />
    <path
       d="m 21.144474,16.450096 c 0.01575,-0.06832 0.049,-0.131708 0.09641,-0.18321 l -0.09641,0.18321 m 0.221003,-0.420193 c -0.03105,-0.03643 -0.05612,-0.0793 -0.07301,-0.127543 -0.07286,-0.208127 0.0337,-0.437008 0.237817,-0.51123 0.0284,-0.0103 0.05711,-0.01682 0.08581,-0.02022 -0.105654,-0.03953 -0.193889,-0.124741 -0.234635,-0.241151 -0.07286,-0.208127 0.03363,-0.437007 0.237892,-0.51123 l 0.01735,-0.0053 c -0.01461,0.0017 -0.02916,0.0024 -0.04362,0.0024 -0.02545,0 -0.05067,-0.0025 -0.07528,-0.0074 0.13966,-0.245088 0.265233,-0.465863 0.372251,-0.654299 0.03105,0.0365 0.05605,0.07937 0.07294,0.127618 0.07278,0.208052 -0.0337,0.436931 -0.237893,0.511155 l -0.01735,0.0054 c 0.01454,-0.0017 0.02908,-0.0025 0.04362,-0.0025 0.113455,0 0.221912,0.05044 0.296211,0.137388 l -0.682095,1.296936"
       style="fill:#fbc57a;fill-opacity:1;fill-rule:nonzero;stroke:none;stroke-width:0.00757379"
       id="path196" />
    <path
       d="m 21.238465,16.812426 c -0.03499,-0.0384 -0.06301,-0.08445 -0.08142,-0.136858 -0.02628,-0.07521 -0.02916,-0.153142 -0.01257,-0.225472 l 0.09641,-0.18321 c 0.04127,-0.04476 0.09331,-0.08051 0.154051,-0.102548 0.04203,-0.0153 0.08498,-0.02242 0.12724,-0.02295 -0.05983,-0.02333 -0.11391,-0.06135 -0.156702,-0.111487 l 0.682095,-1.296935 c 0.03121,0.03658 0.05635,0.07953 0.07331,0.127997 0.02416,0.06907 0.02855,0.140494 0.01621,0.207749 l -0.107699,0.208885 c -0.03999,0.04105 -0.0893,0.07377 -0.146326,0.09452 -0.0284,0.0103 -0.05719,0.01674 -0.08581,0.0203 0.04825,0.01802 0.09293,0.04567 0.131027,0.08142 l -0.689821,1.33859"
       style="fill:#fbc88d;fill-opacity:1;fill-rule:nonzero;stroke:none;stroke-width:0.00757379"
       id="path198" />
    <path
       d="m 21.38532,14.555135 c -0.07256,-0.04605 -0.130875,-0.116334 -0.161851,-0.204795 -0.07278,-0.208128 0.03363,-0.437007 0.237892,-0.511231 0.04355,-0.01583 0.08808,-0.02341 0.13186,-0.02341 0.06544,0 0.129209,0.01682 0.185708,0.04779 -0.112849,0.198584 -0.245768,0.432236 -0.393609,0.691638"
       style="fill:#fbc57a;fill-opacity:1;fill-rule:nonzero;stroke:none;stroke-width:0.00757379"
       id="path200" />
    <path
       d="m 21.517786,14.608227 c -0.04703,-0.0094 -0.09195,-0.02749 -0.132466,-0.05309 0.147841,-0.259402 0.28076,-0.493054 0.393609,-0.691638 0.04173,0.0228 0.07953,0.05332 0.111108,0.09043 -0.107018,0.188436 -0.232591,0.409211 -0.372251,0.654299"
       style="fill:#f6812f;fill-opacity:1;fill-rule:nonzero;stroke:none;stroke-width:0.00757379"
       id="path202" />
    <path
       d="m 20.359224,18.518421 0.162912,-0.315978 c 0.01355,0.0057 0.02681,0.01212 0.03968,0.01924 -0.0099,-0.01363 -0.01916,-0.02802 -0.02741,-0.04309 l 0.305981,-0.593785 c 0.01189,-0.0011 0.02378,-0.0017 0.03559,-0.0017 0.01424,0 0.0284,7.66e-4 0.04241,0.0024 l -0.27152,0.526757 c 0.10982,-0.106033 0.275307,-0.247284 0.511988,-0.407621 0.01537,0.01621 0.02954,0.03386 0.04226,0.05279 -0.499111,0.338018 -0.673763,0.588255 -0.678383,0.595224 l -0.163518,0.16579 m 0.566292,-0.946875 c -0.01977,-0.01265 -0.03855,-0.02711 -0.05597,-0.04332 L 21.22255,16.84328 c 0.02294,0.0054 0.04521,0.01295 0.06672,0.02242 l -0.363769,0.705877 m 0.366117,-0.710346 c -0.01901,-0.01454 -0.03688,-0.03082 -0.05317,-0.04878 l 0.68982,-1.338591 c 0.01802,0.01689 0.03461,0.0356 0.04945,0.05605 l -0.686109,1.331321 m 0.737762,-1.583603 0.107699,-0.208885 c -0.01447,0.07877 -0.05196,0.151778 -0.107699,0.208885"
       style="fill:#f6812f;fill-opacity:1;fill-rule:nonzero;stroke:none;stroke-width:0.00757379"
       id="path204" />
    <path
       d="m 17.47346,25.379437 c -0.05559,0.08831 -0.180331,0.109593 -0.278563,0.04764 -0.09823,-0.06188 -0.132693,-0.183588 -0.07703,-0.271898 0.05559,-0.08823 0.180332,-0.109668 0.278564,-0.04764 0.09823,0.06188 0.132693,0.183588 0.07702,0.271898"
       style="fill:#bf4320;fill-opacity:1;fill-rule:nonzero;stroke:none;stroke-width:0.00757379"
       id="path206" />
    <path
       d="m 17.396435,25.107539 c -0.06688,-0.04219 -0.145569,-0.04491 -0.206841,-0.01515 -5.14e-4,0.06824 0.03582,0.13807 0.102701,0.18018 0.06688,0.04219 0.145569,0.04491 0.20684,0.01507 5.15e-4,-0.06816 -0.03582,-0.137994 -0.1027,-0.180104"
       style="fill:#b4441f;fill-opacity:1;fill-rule:nonzero;stroke:none;stroke-width:0.00757379"
       id="path208" />
    <path
       d="m 17.340995,25.195319 v 0 c -0.132163,-0.08339 -0.172152,-0.259705 -0.08876,-0.391944 l 0.507292,-0.804487 c 0.08339,-0.132163 0.259781,-0.172076 0.391944,-0.08876 0.132238,0.08339 0.172151,0.259781 0.08876,0.391944 l -0.507216,0.804487 c -0.08339,0.132163 -0.259781,0.172152 -0.392019,0.08876"
       style="fill:#bf4320;fill-opacity:1;fill-rule:nonzero;stroke:none;stroke-width:0.00757379"
       id="path210" />
    <path
       d="m 17.767778,23.98836 c 0.02075,0.08384 0.07877,0.166547 0.168138,0.222897 0.110501,0.06975 0.236831,0.07952 0.330444,0.03734 0.04514,-0.122998 1.75e-4,-0.265916 -0.114894,-0.338473 -0.1283,-0.08089 -0.297574,-0.04484 -0.383688,0.07824"
       style="fill:#b4441f;fill-opacity:1;fill-rule:nonzero;stroke:none;stroke-width:0.00757379"
       id="path212" />
    <path
       d="m 17.380681,25.038617 v 0 c -0.04347,-0.02742 -0.05665,-0.08536 -0.02916,-0.128981 l 0.488736,-0.775026 c 0.02742,-0.04347 0.08543,-0.05665 0.128906,-0.02923 0.04355,0.02749 0.05665,0.08551 0.02931,0.128982 l -0.488812,0.775101 c -0.02742,0.04347 -0.08551,0.05665 -0.128982,0.02916"
       style="fill:#f06119;fill-opacity:1;fill-rule:nonzero;stroke:none;stroke-width:0.00757379"
       id="path214" />
    <path
       d="m 18.456234,24.062886 c -0.07899,0.125271 -0.27152,0.145796 -0.430039,0.0459 -0.158519,-0.0999 -0.222896,-0.282501 -0.143902,-0.407848 0.07899,-0.12527 0.27152,-0.145795 0.43004,-0.0459 0.158519,0.0999 0.222896,0.282502 0.143901,0.407848"
       style="fill:#bf4320;fill-opacity:1;fill-rule:nonzero;stroke:none;stroke-width:0.00757379"
       id="path216" />
    <path
       d="m 18.385268,23.866725 c -0.03037,0.04839 -0.12065,0.0462 -0.201462,-0.0048 -0.08074,-0.0509 -0.121559,-0.131405 -0.09111,-0.179726 0.03045,-0.04832 0.12065,-0.0462 0.201463,0.0048 0.08081,0.05097 0.121635,0.131405 0.09111,0.179726"
       style="fill:#f06119;fill-opacity:1;fill-rule:nonzero;stroke:none;stroke-width:0.00757379"
       id="path218" />
    <path
       d="m 18.222583,23.768645 c 0.103686,-0.29144 0.01878,-0.519865 0.01788,-0.522289 l 0.03249,-0.01235 c 0.0034,0.009 0.07702,0.207067 0.0048,0.475028 0.120272,-0.110577 0.317417,-0.215853 0.384067,-0.219109 l 0.0017,0.03476 c -0.0562,0.0027 -0.305981,0.131935 -0.41103,0.26084 l -0.02992,-0.01689"
       style="fill:#83301b;fill-opacity:1;fill-rule:nonzero;stroke:none;stroke-width:0.00757379"
       id="path220" />
    <path
       d="m 19.499902,11.679596 c 0.07597,0.212899 0.310071,0.323931 0.523046,0.248042 0.212823,-0.07597 0.323854,-0.310147 0.247889,-0.523045 -0.07589,-0.212824 -0.31007,-0.323856 -0.522893,-0.247966 -0.212899,0.07596 -0.324007,0.310146 -0.248042,0.522969"
       style="fill:#cf521f;fill-opacity:1;fill-rule:nonzero;stroke:none;stroke-width:0.00757379"
       id="path222" />
    <path
       d="m 19.691367,11.363846 c 0.0047,0.09134 0.09536,0.160942 0.202523,0.155489 0.10717,-0.0056 0.190253,-0.08407 0.185558,-0.175409 -0.0047,-0.09134 -0.09543,-0.160943 -0.202522,-0.15549 -0.10717,0.0056 -0.190254,0.08407 -0.185559,0.17541"
       style="fill:#f06119;fill-opacity:1;fill-rule:nonzero;stroke:none;stroke-width:0.00757379"
       id="path224" />
    <path
       d="m 18.757217,11.380735 c 0.07589,0.212899 0.31007,0.323931 0.522969,0.247965 0.2129,-0.07589 0.323932,-0.31007 0.247967,-0.52297 -0.07597,-0.212824 -0.310071,-0.32393 -0.522971,-0.247965 -0.212899,0.07596 -0.32393,0.310071 -0.247965,0.52297"
       style="fill:#cf521f;fill-opacity:1;fill-rule:nonzero;stroke:none;stroke-width:0.00757379"
       id="path226" />
    <path
       d="m 18.948607,11.064983 c 0.0047,0.09134 0.09543,0.160943 0.202598,0.155415 0.107093,-0.0056 0.190178,-0.08407 0.185482,-0.175409 -0.0047,-0.09134 -0.09535,-0.160944 -0.202523,-0.155414 -0.107169,0.0056 -0.190254,0.08399 -0.185557,0.175408"
       style="fill:#f06119;fill-opacity:1;fill-rule:nonzero;stroke:none;stroke-width:0.00757379"
       id="path228" />
    <path
       d="m 17.968482,11.270233 c 0.07589,0.212899 0.310072,0.323931 0.52297,0.247965 0.2129,-0.07589 0.323932,-0.310069 0.247966,-0.522893 -0.07589,-0.2129 -0.31007,-0.324007 -0.52297,-0.248042 -0.212898,0.07597 -0.323855,0.310071 -0.247966,0.52297"
       style="fill:#cf521f;fill-opacity:1;fill-rule:nonzero;stroke:none;stroke-width:0.00757379"
       id="path230" />
    <path
       d="m 18.159948,10.954482 c 0.0047,0.09134 0.09536,0.160943 0.202523,0.155413 0.107169,-0.0054 0.190178,-0.08407 0.185558,-0.175408 -0.0047,-0.09134 -0.09535,-0.160943 -0.202523,-0.155414 -0.107169,0.0056 -0.190254,0.08399 -0.185558,0.175409"
       style="fill:#f06119;fill-opacity:1;fill-rule:nonzero;stroke:none;stroke-width:0.00757379"
       id="path232" />
    <path
       d="m 17.149681,11.304997 c 0.07597,0.212899 0.310146,0.323931 0.523046,0.248041 0.212899,-0.07597 0.32393,-0.31007 0.247965,-0.52297 -0.07596,-0.212899 -0.310071,-0.32393 -0.52297,-0.247966 -0.212899,0.07589 -0.32393,0.310072 -0.248041,0.522895"
       style="fill:#cf521f;fill-opacity:1;fill-rule:nonzero;stroke:none;stroke-width:0.00757379"
       id="path234" />
    <path
       d="m 17.341146,10.989246 c 0.0047,0.09134 0.09543,0.160943 0.202599,0.15549 0.107169,-0.0056 0.190178,-0.08407 0.185481,-0.175409 -0.0047,-0.09134 -0.09535,-0.160943 -0.202522,-0.155415 -0.107169,0.0054 -0.190254,0.08399 -0.185558,0.175334"
       style="fill:#f06119;fill-opacity:1;fill-rule:nonzero;stroke:none;stroke-width:0.00757379"
       id="path236" />
    <path
       d="m 16.412751,11.649982 c 0.07597,0.212899 0.310071,0.323856 0.52297,0.247967 0.2129,-0.07597 0.323932,-0.310072 0.248042,-0.52297 -0.07597,-0.2129 -0.310146,-0.323931 -0.523046,-0.247966 -0.212899,0.07589 -0.323855,0.310071 -0.247966,0.522969"
       style="fill:#cf521f;fill-opacity:1;fill-rule:nonzero;stroke:none;stroke-width:0.00757379"
       id="path238" />
    <path
       d="m 16.604217,11.334156 c 0.0047,0.09134 0.09535,0.160943 0.202523,0.155413 0.107169,-0.0054 0.190254,-0.08399 0.185558,-0.175332 -0.0047,-0.09134 -0.09536,-0.160943 -0.202523,-0.155414 -0.107245,0.0056 -0.190254,0.08399 -0.185558,0.175333"
       style="fill:#f06119;fill-opacity:1;fill-rule:nonzero;stroke:none;stroke-width:0.00757379"
       id="path240" />
    <path
       d="m 15.798063,12.199461 c 0.07589,0.212974 0.310071,0.32393 0.52297,0.248041 0.2129,-0.07597 0.323855,-0.310071 0.247966,-0.522969 -0.07589,-0.212899 -0.310071,-0.323932 -0.52297,-0.248042 -0.2129,0.07596 -0.32393,0.310071 -0.247966,0.52297"
       style="fill:#cf521f;fill-opacity:1;fill-rule:nonzero;stroke:none;stroke-width:0.00757379"
       id="path242" />
    <path
       d="m 15.989529,11.88371 c 0.0046,0.09134 0.09528,0.160942 0.202447,0.155413 0.107168,-0.0054 0.190253,-0.08399 0.185557,-0.175332 -0.0047,-0.09134 -0.09535,-0.160944 -0.202523,-0.155415 -0.107169,0.0054 -0.190177,0.08399 -0.185481,0.175334"
       style="fill:#f06119;fill-opacity:1;fill-rule:nonzero;stroke:none;stroke-width:0.00757379"
       id="path244" />
    <path
       d="m 15.479055,12.785217 c 0.07597,0.2129 0.310147,0.323931 0.523046,0.247966 0.212823,-0.07589 0.323855,-0.310071 0.247965,-0.522894 -0.07596,-0.212975 -0.310146,-0.324006 -0.522969,-0.248042 -0.212899,0.07597 -0.323931,0.310071 -0.248042,0.52297"
       style="fill:#cf521f;fill-opacity:1;fill-rule:nonzero;stroke:none;stroke-width:0.00757379"
       id="path246" />
    <path
       d="m 15.67052,12.46939 c 0.0047,0.09142 0.09535,0.161019 0.202523,0.15549 0.10717,-0.0056 0.190254,-0.08399 0.185558,-0.175409 -0.0047,-0.09134 -0.09535,-0.160942 -0.202522,-0.155413 -0.107169,0.0056 -0.190254,0.08399 -0.185559,0.175332"
       style="fill:#f06119;fill-opacity:1;fill-rule:nonzero;stroke:none;stroke-width:0.00757379"
       id="path248" />
    <path
       d="m 15.348635,13.452165 c 0.07589,0.212899 0.309994,0.323931 0.522894,0.247965 0.212975,-0.07589 0.32393,-0.31007 0.248041,-0.522969 -0.07596,-0.212899 -0.31007,-0.323931 -0.52297,-0.247966 -0.212899,0.07589 -0.32393,0.310071 -0.247965,0.52297"
       style="fill:#cf521f;fill-opacity:1;fill-rule:nonzero;stroke:none;stroke-width:0.00757379"
       id="path250" />
    <path
       d="m 15.540024,13.136338 c 0.0047,0.09142 0.09535,0.161019 0.202523,0.15549 0.10717,-0.0056 0.190254,-0.08407 0.185558,-0.175409 -0.0047,-0.09134 -0.09535,-0.160943 -0.202523,-0.155415 -0.10717,0.0054 -0.190253,0.08399 -0.185558,0.175334"
       style="fill:#f06119;fill-opacity:1;fill-rule:nonzero;stroke:none;stroke-width:0.00757379"
       id="path252" />
    <path
       d="m 15.393169,14.130625 c 0.07589,0.212898 0.309994,0.32393 0.522893,0.247965 0.2129,-0.07589 0.323932,-0.310071 0.248042,-0.522969 -0.07596,-0.2129 -0.31007,-0.323932 -0.52297,-0.247966 -0.2129,0.07589 -0.32393,0.31007 -0.247965,0.52297"
       style="fill:#cf521f;fill-opacity:1;fill-rule:nonzero;stroke:none;stroke-width:0.00757379"
       id="path254" />
    <path
       d="m 15.584559,13.814798 c 0.0047,0.09141 0.09535,0.161018 0.202522,0.155489 0.107169,-0.0056 0.190254,-0.08407 0.185558,-0.175409 -0.0047,-0.09134 -0.09535,-0.160942 -0.202524,-0.155414 -0.107168,0.0054 -0.190253,0.08399 -0.185556,0.175334"
       style="fill:#f06119;fill-opacity:1;fill-rule:nonzero;stroke:none;stroke-width:0.00757379"
       id="path256" />
    <path
       d="m 15.704148,14.722895 c 0.07596,0.212899 0.310071,0.32393 0.52297,0.247965 0.212899,-0.07597 0.323931,-0.310071 0.248042,-0.52297 -0.07596,-0.212899 -0.310147,-0.323931 -0.523046,-0.247965 -0.2129,0.07597 -0.323855,0.31007 -0.247966,0.52297"
       style="fill:#cf521f;fill-opacity:1;fill-rule:nonzero;stroke:none;stroke-width:0.00757379"
       id="path258" />
    <path
       d="m 15.895613,14.407068 c 0.0047,0.09134 0.09535,0.160942 0.202524,0.155489 0.107168,-0.0056 0.190253,-0.08407 0.185557,-0.175409 -0.0047,-0.09134 -0.09535,-0.160942 -0.202523,-0.155413 -0.107169,0.0054 -0.190253,0.08399 -0.185558,0.175333"
       style="fill:#f06119;fill-opacity:1;fill-rule:nonzero;stroke:none;stroke-width:0.00757379"
       id="path260" />
    <path
       d="m 16.113511,15.301304 c 0.07597,0.2129 0.310147,0.323931 0.523046,0.247966 0.212899,-0.07589 0.323855,-0.31007 0.247966,-0.52297 -0.07597,-0.212899 -0.310071,-0.32393 -0.52297,-0.247965 -0.212899,0.07589 -0.323931,0.31007 -0.248042,0.522969"
       style="fill:#cf521f;fill-opacity:1;fill-rule:nonzero;stroke:none;stroke-width:0.00757379"
       id="path262" />
    <path
       d="m 16.304977,14.985477 c 0.0047,0.09142 0.09535,0.161019 0.202522,0.155491 0.107245,-0.0056 0.190254,-0.08399 0.185558,-0.175409 -0.0047,-0.09134 -0.09535,-0.160944 -0.202522,-0.155414 -0.10717,0.0054 -0.190254,0.08399 -0.185558,0.175332"
       style="fill:#f06119;fill-opacity:1;fill-rule:nonzero;stroke:none;stroke-width:0.00757379"
       id="path264" />
    <path
       d="m 16.609367,15.792767 c 0.07596,0.212899 0.31007,0.323931 0.52297,0.247966 0.212899,-0.07589 0.323931,-0.309995 0.247966,-0.52297 -0.07589,-0.212899 -0.309996,-0.323855 -0.522894,-0.247965 -0.2129,0.07597 -0.323931,0.31007 -0.248042,0.522969"
       style="fill:#cf521f;fill-opacity:1;fill-rule:nonzero;stroke:none;stroke-width:0.00757379"
       id="path266" />
    <path
       d="m 16.800832,15.477016 c 0.0047,0.09134 0.09535,0.160943 0.202524,0.155415 0.107168,-0.0056 0.190253,-0.08399 0.185557,-0.175409 -0.0047,-0.09134 -0.09535,-0.160943 -0.202523,-0.155414 -0.107169,0.0056 -0.190254,0.08399 -0.185558,0.175408"
       style="fill:#f06119;fill-opacity:1;fill-rule:nonzero;stroke:none;stroke-width:0.00757379"
       id="path268" />
    <path
       d="m 17.12696,16.279913 c 0.07596,0.212899 0.31007,0.323931 0.522969,0.247966 0.212899,-0.07589 0.323932,-0.310071 0.247966,-0.52297 -0.07589,-0.212823 -0.31007,-0.323931 -0.522894,-0.247966 -0.212899,0.07597 -0.324006,0.310071 -0.248041,0.52297"
       style="fill:#cf521f;fill-opacity:1;fill-rule:nonzero;stroke:none;stroke-width:0.00757379"
       id="path270" />
    <path
       d="m 17.318425,15.964163 c 0.0047,0.09134 0.09535,0.160942 0.202523,0.155413 0.107169,-0.0054 0.190253,-0.08407 0.185558,-0.175409 -0.0047,-0.09134 -0.09535,-0.160943 -0.202524,-0.155413 -0.107169,0.0056 -0.190253,0.08399 -0.185557,0.175409"
       style="fill:#f06119;fill-opacity:1;fill-rule:nonzero;stroke:none;stroke-width:0.00757379"
       id="path272" />
    <path
       d="m 17.596686,16.771452 c 0.07596,0.212823 0.310146,0.323931 0.523045,0.247966 0.212824,-0.07597 0.323855,-0.310147 0.247966,-0.522971 -0.07596,-0.212898 -0.31007,-0.32393 -0.52297,-0.24804 -0.212899,0.07596 -0.323931,0.310146 -0.248041,0.523045"
       style="fill:#cf521f;fill-opacity:1;fill-rule:nonzero;stroke:none;stroke-width:0.00757379"
       id="path274" />
    <path
       d="m 17.788151,16.455625 c 0.0047,0.09134 0.09535,0.160943 0.202523,0.15549 0.107169,-0.0056 0.190253,-0.08407 0.185558,-0.175409 -0.0047,-0.09134 -0.09535,-0.160943 -0.202523,-0.15549 -0.107169,0.0056 -0.190254,0.08407 -0.185558,0.175409"
       style="fill:#f06119;fill-opacity:1;fill-rule:nonzero;stroke:none;stroke-width:0.00757379"
       id="path276" />
    <path
       d="m 18.027331,17.402045 c 0.07589,0.212899 0.310071,0.323931 0.52297,0.248042 0.212899,-0.07597 0.323931,-0.310071 0.247966,-0.52297 -0.07597,-0.212899 -0.310071,-0.323931 -0.52297,-0.247966 -0.212899,0.07589 -0.323931,0.310071 -0.247966,0.522894"
       style="fill:#cf521f;fill-opacity:1;fill-rule:nonzero;stroke:none;stroke-width:0.00757379"
       id="path278" />
    <path
       d="m 18.218721,17.086294 c 0.0047,0.09134 0.09535,0.160943 0.202598,0.155414 0.107169,-0.0054 0.190178,-0.08399 0.185483,-0.175333 -0.0047,-0.09134 -0.09535,-0.160943 -0.202524,-0.155414 -0.107169,0.0054 -0.190253,0.08399 -0.185557,0.175333"
       style="fill:#f06119;fill-opacity:1;fill-rule:nonzero;stroke:none;stroke-width:0.00757379"
       id="path280" />
    <path
       d="m 18.327405,18.084898 c 0.07596,0.212975 0.310146,0.323931 0.52297,0.248041 0.212899,-0.07597 0.32393,-0.31007 0.247965,-0.52297 -0.07589,-0.212899 -0.310071,-0.32393 -0.522894,-0.247965 -0.212899,0.07589 -0.324007,0.310071 -0.248041,0.522894"
       style="fill:#cf521f;fill-opacity:1;fill-rule:nonzero;stroke:none;stroke-width:0.00757379"
       id="path282" />
    <path
       d="m 18.51887,17.769147 c 0.0047,0.09142 0.09535,0.161018 0.202523,0.15549 0.107169,-0.0056 0.190253,-0.08407 0.185557,-0.175409 -0.0047,-0.09134 -0.09543,-0.160943 -0.202523,-0.155415 -0.107168,0.0054 -0.190253,0.08399 -0.185557,0.175334"
       style="fill:#f06119;fill-opacity:1;fill-rule:nonzero;stroke:none;stroke-width:0.00757379"
       id="path284" />
    <path
       d="m 18.37618,18.845608 c 0.07589,0.2129 0.31007,0.323932 0.522969,0.247966 0.2129,-0.07597 0.323931,-0.31007 0.247967,-0.522969 -0.07589,-0.212899 -0.310071,-0.323931 -0.522971,-0.247966 -0.212899,0.07597 -0.32393,0.310071 -0.247965,0.522969"
       style="fill:#cf521f;fill-opacity:1;fill-rule:nonzero;stroke:none;stroke-width:0.00757379"
       id="path286" />
    <path
       d="m 18.567645,18.529858 c 0.0047,0.09134 0.09535,0.160942 0.202523,0.155414 0.107169,-0.0054 0.190254,-0.08407 0.185558,-0.175409 -0.0047,-0.09134 -0.09543,-0.160944 -0.202599,-0.155414 -0.107169,0.0054 -0.190178,0.08399 -0.185482,0.175409"
       style="fill:#f06119;fill-opacity:1;fill-rule:nonzero;stroke:none;stroke-width:0.00757379"
       id="path288" />
    <path
       d="m 18.080423,19.580645 c 0.07589,0.212974 0.310071,0.32393 0.522971,0.247965 0.212898,-0.07589 0.32393,-0.309995 0.247965,-0.522969 -0.07596,-0.212824 -0.310071,-0.323855 -0.52297,-0.247967 -0.212899,0.07597 -0.323931,0.310071 -0.247966,0.522971"
       style="fill:#bf4320;fill-opacity:1;fill-rule:nonzero;stroke:none;stroke-width:0.00757379"
       id="path290" />
    <path
       d="m 18.271813,19.264893 c 0.0047,0.09134 0.09543,0.160944 0.202599,0.155414 0.107169,-0.0054 0.190177,-0.08407 0.185481,-0.175409 -0.0047,-0.09134 -0.09535,-0.160942 -0.202522,-0.155413 -0.10717,0.0056 -0.190254,0.08407 -0.185558,0.175408"
       style="fill:#f06119;fill-opacity:1;fill-rule:nonzero;stroke:none;stroke-width:0.00757379"
       id="path292" />
    <path
       d="m 17.688935,20.298336 c 0.07596,0.2129 0.31007,0.323931 0.52297,0.247966 0.212898,-0.07597 0.32393,-0.310071 0.248041,-0.52297 -0.07596,-0.212899 -0.310071,-0.32393 -0.52297,-0.248041 -0.212975,0.07597 -0.323931,0.310146 -0.248041,0.523045"
       style="fill:#bf4320;fill-opacity:1;fill-rule:nonzero;stroke:none;stroke-width:0.00757379"
       id="path294" />
    <path
       d="m 17.8804,19.982585 c 0.0047,0.09134 0.09535,0.160943 0.202523,0.155339 0.107169,-0.0054 0.190253,-0.08399 0.185558,-0.175334 -0.0047,-0.09134 -0.09535,-0.160943 -0.202524,-0.155414 -0.107169,0.0056 -0.190253,0.08407 -0.185557,0.175409"
       style="fill:#f06119;fill-opacity:1;fill-rule:nonzero;stroke:none;stroke-width:0.00757379"
       id="path296" />
    <path
       d="m 17.404161,21.055033 c 0.07589,0.212824 0.31007,0.323855 0.522969,0.247966 0.212899,-0.07597 0.323855,-0.310071 0.247966,-0.522969 -0.07589,-0.212976 -0.310071,-0.323932 -0.52297,-0.247967 -0.212899,0.07589 -0.323931,0.309995 -0.247965,0.52297"
       style="fill:#bf4320;fill-opacity:1;fill-rule:nonzero;stroke:none;stroke-width:0.00757379"
       id="path298" />
    <path
       d="m 17.595625,20.739207 c 0.0046,0.09134 0.09528,0.160942 0.202523,0.155489 0.107169,-0.0056 0.190178,-0.08407 0.185483,-0.175409 -0.0047,-0.09134 -0.09535,-0.160943 -0.202523,-0.155489 -0.10717,0.0056 -0.190178,0.08407 -0.185483,0.175409"
       style="fill:#f06119;fill-opacity:1;fill-rule:nonzero;stroke:none;stroke-width:0.00757379"
       id="path300" />
    <path
       d="m 17.21277,21.832104 c 0.07589,0.212899 0.310071,0.323931 0.52297,0.247965 0.2129,-0.07589 0.323931,-0.31007 0.247966,-0.522894 -0.07589,-0.212974 -0.31007,-0.324006 -0.52297,-0.248041 -0.212899,0.07589 -0.32393,0.310071 -0.247966,0.52297"
       style="fill:#bf4320;fill-opacity:1;fill-rule:nonzero;stroke:none;stroke-width:0.00757379"
       id="path302" />
    <path
       d="m 17.404236,21.516352 c 0.0046,0.09134 0.09535,0.160943 0.202523,0.155415 0.107169,-0.0056 0.190178,-0.08399 0.185482,-0.175409 -0.0047,-0.09134 -0.09535,-0.160944 -0.202448,-0.155415 -0.107244,0.0054 -0.190253,0.08407 -0.185557,0.175409"
       style="fill:#f06119;fill-opacity:1;fill-rule:nonzero;stroke:none;stroke-width:0.00757379"
       id="path304" />
    <path
       d="m 17.291084,22.632426 c 0.07589,0.212898 0.31007,0.323855 0.52297,0.247965 0.212822,-0.07597 0.32393,-0.310071 0.247965,-0.522969 -0.07597,-0.2129 -0.310071,-0.323932 -0.52297,-0.247966 -0.212899,0.07597 -0.323931,0.309995 -0.247965,0.52297"
       style="fill:#bf4320;fill-opacity:1;fill-rule:nonzero;stroke:none;stroke-width:0.00757379"
       id="path306" />
    <path
       d="m 17.482549,22.316599 c 0.0047,0.09134 0.09528,0.160943 0.202447,0.15549 0.107169,-0.0056 0.190253,-0.08407 0.185558,-0.175409 -0.0047,-0.09134 -0.09535,-0.160943 -0.202523,-0.155414 -0.10717,0.0054 -0.190253,0.08399 -0.185482,0.175333"
       style="fill:#f06119;fill-opacity:1;fill-rule:nonzero;stroke:none;stroke-width:0.00757379"
       id="path308" />
    <path
       d="m 17.720214,23.313839 c 0.07596,0.212899 0.31007,0.323855 0.52297,0.247966 0.212899,-0.07589 0.323931,-0.310071 0.247966,-0.52297 -0.07597,-0.2129 -0.310071,-0.323931 -0.52297,-0.247966 -0.212899,0.07597 -0.323931,0.31007 -0.247966,0.52297"
       style="fill:#bf4320;fill-opacity:1;fill-rule:nonzero;stroke:none;stroke-width:0.00757379"
       id="path310" />
    <path
       d="m 17.911679,22.998012 c 0.0047,0.09134 0.09535,0.160943 0.202524,0.15549 0.107168,-0.0056 0.190253,-0.08407 0.185557,-0.175409 -0.0047,-0.09142 -0.09543,-0.160943 -0.202599,-0.155414 -0.107168,0.0054 -0.190177,0.08399 -0.185482,0.175333"
       style="fill:#f06119;fill-opacity:1;fill-rule:nonzero;stroke:none;stroke-width:0.00757379"
       id="path312" />
    <path
       d="m 18.465398,23.629893 c 0.07597,0.212823 0.310072,0.323855 0.522971,0.247966 0.212899,-0.07597 0.323931,-0.310071 0.247965,-0.52297 -0.07589,-0.212899 -0.31007,-0.323931 -0.522969,-0.247966 -0.212899,0.07597 -0.323856,0.310071 -0.247967,0.52297"
       style="fill:#bf4320;fill-opacity:1;fill-rule:nonzero;stroke:none;stroke-width:0.00757379"
       id="path314" />
    <path
       d="m 18.656864,23.314066 c 0.0047,0.09142 0.09535,0.161019 0.202523,0.15549 0.107169,-0.0056 0.190254,-0.08407 0.185558,-0.175409 -0.0047,-0.09134 -0.09536,-0.160943 -0.202523,-0.155414 -0.107169,0.0056 -0.190254,0.08399 -0.185558,0.175333"
       style="fill:#f06119;fill-opacity:1;fill-rule:nonzero;stroke:none;stroke-width:0.00757379"
       id="path316" />
    <path
       d="m 19.109171,23.142747 c 0.07589,0.212899 0.309994,0.323931 0.522894,0.248041 0.212899,-0.07596 0.323931,-0.310146 0.248041,-0.523045 -0.07597,-0.212899 -0.310071,-0.323931 -0.523045,-0.247966 -0.212824,0.07589 -0.323856,0.310071 -0.24789,0.52297"
       style="fill:#bf4320;fill-opacity:1;fill-rule:nonzero;stroke:none;stroke-width:0.00757379"
       id="path318" />
    <path
       d="m 19.30056,22.82692 c 0.0047,0.09134 0.09535,0.160943 0.202523,0.15549 0.10717,-0.0056 0.190254,-0.08399 0.185558,-0.175333 -0.0047,-0.09142 -0.09535,-0.160943 -0.202523,-0.155489 -0.107169,0.0054 -0.190253,0.08399 -0.185558,0.175332"
       style="fill:#f06119;fill-opacity:1;fill-rule:nonzero;stroke:none;stroke-width:0.00757379"
       id="path320" />
    <path
       d="m 19.025026,22.336669 c 0.07596,0.212823 0.310071,0.323855 0.52297,0.247966 0.212899,-0.07597 0.323931,-0.310147 0.247965,-0.52297 -0.07589,-0.212899 -0.31007,-0.323931 -0.522894,-0.248041 -0.212898,0.07597 -0.324006,0.310146 -0.248041,0.523045"
       style="fill:#bf4320;fill-opacity:1;fill-rule:nonzero;stroke:none;stroke-width:0.00757379"
       id="path322" />
    <path
       d="m 19.216491,22.020843 c 0.0047,0.09141 0.09535,0.161018 0.202523,0.155489 0.107169,-0.0056 0.190254,-0.08407 0.185558,-0.175409 -0.0047,-0.09134 -0.09535,-0.160943 -0.202523,-0.155489 -0.107169,0.0056 -0.190254,0.08407 -0.185558,0.175409"
       style="fill:#f06119;fill-opacity:1;fill-rule:nonzero;stroke:none;stroke-width:0.00757379"
       id="path324" />
    <path
       d="m 19.025026,21.517867 c 0.07596,0.2129 0.310071,0.324007 0.52297,0.248042 0.212899,-0.07597 0.323931,-0.310071 0.247965,-0.523046 -0.07589,-0.212823 -0.31007,-0.323855 -0.522894,-0.247966 -0.212898,0.07597 -0.324006,0.310147 -0.248041,0.52297"
       style="fill:#bf4320;fill-opacity:1;fill-rule:nonzero;stroke:none;stroke-width:0.00757379"
       id="path326" />
    <path
       d="m 19.216491,21.20204 c 0.0047,0.09142 0.09535,0.161019 0.202523,0.15549 0.107169,-0.0054 0.190254,-0.08399 0.185558,-0.175333 -0.0047,-0.09142 -0.09535,-0.160943 -0.202523,-0.15549 -0.107169,0.0056 -0.190254,0.08399 -0.185558,0.175333"
       style="fill:#f06119;fill-opacity:1;fill-rule:nonzero;stroke:none;stroke-width:0.00757379"
       id="path328" />
    <path
       d="m 18.95103,20.707699 c 0.07597,0.212899 0.31007,0.323931 0.52297,0.247966 0.212899,-0.07597 0.32393,-0.309995 0.247966,-0.52297 -0.07596,-0.212899 -0.310071,-0.323855 -0.52297,-0.247966 -0.212824,0.07597 -0.323931,0.310071 -0.247966,0.52297"
       style="fill:#bf4320;fill-opacity:1;fill-rule:nonzero;stroke:none;stroke-width:0.00757379"
       id="path330" />
    <path
       d="m 19.142495,20.391949 c 0.0047,0.09134 0.09535,0.160942 0.202524,0.155413 0.107168,-0.0056 0.190253,-0.08407 0.185557,-0.175409 -0.0047,-0.09134 -0.09543,-0.160943 -0.202599,-0.155338 -0.107093,0.0054 -0.190254,0.08399 -0.185482,0.175334"
       style="fill:#f06119;fill-opacity:1;fill-rule:nonzero;stroke:none;stroke-width:0.00757379"
       id="path332" />
    <path
       d="m 19.025026,19.901622 c 0.07596,0.212898 0.310071,0.32393 0.52297,0.247965 0.212899,-0.07589 0.323931,-0.310071 0.247965,-0.52297 -0.07589,-0.212899 -0.31007,-0.323931 -0.522894,-0.247965 -0.212898,0.07589 -0.32393,0.31007 -0.248041,0.52297"
       style="fill:#bf4320;fill-opacity:1;fill-rule:nonzero;stroke:none;stroke-width:0.00757379"
       id="path334" />
    <path
       d="m 19.216491,19.585795 c 0.0047,0.09134 0.09535,0.160942 0.202523,0.155489 0.107169,-0.0056 0.190254,-0.08399 0.185558,-0.175408 -0.0047,-0.09134 -0.09535,-0.160943 -0.202523,-0.155415 -0.107169,0.0054 -0.190254,0.08399 -0.185558,0.175334"
       style="fill:#f06119;fill-opacity:1;fill-rule:nonzero;stroke:none;stroke-width:0.00757379"
       id="path336" />
    <path
       d="m 19.459988,19.230736 c 0.07597,0.212823 0.310071,0.323854 0.52297,0.247889 0.212899,-0.07589 0.323931,-0.309995 0.247965,-0.522893 -0.07589,-0.212899 -0.31007,-0.323932 -0.522969,-0.247966 -0.212899,0.07589 -0.323931,0.310071 -0.247966,0.52297"
       style="fill:#cf521f;fill-opacity:1;fill-rule:nonzero;stroke:none;stroke-width:0.00757379"
       id="path338" />
    <path
       d="m 19.651453,18.914909 c 0.0047,0.09142 0.09535,0.160942 0.202524,0.155489 0.107169,-0.0056 0.190253,-0.08407 0.185557,-0.175408 -0.0047,-0.09134 -0.09543,-0.160943 -0.202598,-0.155414 -0.107169,0.0054 -0.190178,0.08399 -0.185483,0.175333"
       style="fill:#f06119;fill-opacity:1;fill-rule:nonzero;stroke:none;stroke-width:0.00757379"
       id="path340" />
    <path
       d="m 19.912976,18.551367 c 0.07597,0.212899 0.310071,0.323931 0.52297,0.247966 0.2129,-0.07589 0.323931,-0.310071 0.248041,-0.52297 -0.07596,-0.212899 -0.310146,-0.323931 -0.523045,-0.247966 -0.212899,0.07589 -0.32393,0.310071 -0.247966,0.52297"
       style="fill:#cf521f;fill-opacity:1;fill-rule:nonzero;stroke:none;stroke-width:0.00757379"
       id="path342" />
    <path
       d="m 20.104442,18.23554 c 0.0047,0.09142 0.09535,0.161019 0.202523,0.15549 0.107169,-0.0056 0.190253,-0.08399 0.185558,-0.175409 -0.0047,-0.09134 -0.09543,-0.160943 -0.2026,-0.155413 -0.107168,0.0056 -0.190178,0.08399 -0.185481,0.175332"
       style="fill:#f06119;fill-opacity:1;fill-rule:nonzero;stroke:none;stroke-width:0.00757379"
       id="path344" />
    <path
       d="m 20.437385,17.948418 c 0.07596,0.2129 0.310071,0.323931 0.52297,0.247966 0.212899,-0.07589 0.323931,-0.310071 0.248041,-0.52297 -0.07596,-0.2129 -0.310146,-0.323855 -0.522969,-0.247966 -0.212899,0.07589 -0.323931,0.310071 -0.248042,0.52297"
       style="fill:#cf521f;fill-opacity:1;fill-rule:nonzero;stroke:none;stroke-width:0.00757379"
       id="path346" />
    <path
       d="m 20.62885,17.632667 c 0.0047,0.09134 0.09535,0.160943 0.202524,0.155414 0.107169,-0.0056 0.190253,-0.08399 0.185557,-0.175333 -0.0047,-0.09142 -0.09535,-0.160943 -0.202523,-0.15549 -0.107169,0.0056 -0.190253,0.08399 -0.185558,0.175409"
       style="fill:#f06119;fill-opacity:1;fill-rule:nonzero;stroke:none;stroke-width:0.00757379"
       id="path348" />
    <path
       d="m 20.705649,17.180815 c 0.07597,0.212899 0.31007,0.323855 0.522969,0.247966 0.212899,-0.07597 0.323932,-0.310071 0.247966,-0.52297 -0.07589,-0.212899 -0.310071,-0.323931 -0.522894,-0.247966 -0.212974,0.07589 -0.324006,0.31007 -0.248041,0.52297"
       style="fill:#cf521f;fill-opacity:1;fill-rule:nonzero;stroke:none;stroke-width:0.00757379"
       id="path350" />
    <path
       d="m 20.897038,16.864988 c 0.0048,0.09142 0.09535,0.161019 0.202523,0.15549 0.107169,-0.0056 0.190254,-0.08407 0.185634,-0.175409 -0.0048,-0.09134 -0.09535,-0.160943 -0.202523,-0.155414 -0.10717,0.0054 -0.19033,0.08399 -0.185634,0.175333"
       style="fill:#f06119;fill-opacity:1;fill-rule:nonzero;stroke:none;stroke-width:0.00757379"
       id="path352" />
    <path
       d="m 21.115011,16.473272 c 0.07589,0.212899 0.310071,0.323931 0.52297,0.247966 0.2129,-0.07589 0.323932,-0.310071 0.247966,-0.52297 -0.07589,-0.212899 -0.31007,-0.323931 -0.522894,-0.247966 -0.212974,0.07589 -0.324006,0.310071 -0.248042,0.52297"
       style="fill:#cf521f;fill-opacity:1;fill-rule:nonzero;stroke:none;stroke-width:0.00757379"
       id="path354" />
    <path
       d="m 21.306477,16.157521 c 0.0046,0.09134 0.09535,0.160943 0.202523,0.155414 0.107169,-0.0056 0.190178,-0.08399 0.185558,-0.175333 -0.0048,-0.09141 -0.09543,-0.160943 -0.202523,-0.15549 -0.107169,0.0056 -0.190254,0.08399 -0.185558,0.175409"
       style="fill:#f06119;fill-opacity:1;fill-rule:nonzero;stroke:none;stroke-width:0.00757379"
       id="path356" />
    <path
       d="m 21.256187,15.682266 c 0.07596,0.212899 0.309995,0.323931 0.52297,0.247965 0.212899,-0.07589 0.323855,-0.309994 0.24789,-0.522969 -0.07589,-0.212899 -0.309995,-0.323855 -0.522894,-0.247966 -0.2129,0.07597 -0.323931,0.310071 -0.247966,0.52297"
       style="fill:#cf521f;fill-opacity:1;fill-rule:nonzero;stroke:none;stroke-width:0.00757379"
       id="path358" />
    <path
       d="m 21.447577,15.366514 c 0.0048,0.09134 0.09543,0.160944 0.202599,0.155415 0.107092,-0.0056 0.190253,-0.08399 0.185481,-0.175409 -0.0046,-0.09134 -0.09535,-0.160943 -0.202523,-0.155414 -0.107169,0.0056 -0.190177,0.08399 -0.185557,0.175408"
       style="fill:#f06119;fill-opacity:1;fill-rule:nonzero;stroke:none;stroke-width:0.00757379"
       id="path360" />
    <path
       d="m 21.34889,14.891942 c 0.07597,0.212899 0.310147,0.32393 0.523046,0.247965 0.212899,-0.07597 0.32393,-0.310071 0.247965,-0.52297 -0.07596,-0.212899 -0.310071,-0.32393 -0.52297,-0.247965 -0.212898,0.07589 -0.32393,0.31007 -0.248041,0.52297"
       style="fill:#cf521f;fill-opacity:1;fill-rule:nonzero;stroke:none;stroke-width:0.00757379"
       id="path362" />
    <path
       d="m 21.540431,14.576115 c 0.0046,0.09134 0.09528,0.160942 0.202448,0.155489 0.107245,-0.0056 0.190253,-0.08407 0.185633,-0.175409 -0.0048,-0.09134 -0.09543,-0.160942 -0.202599,-0.155489 -0.107169,0.0056 -0.190253,0.08407 -0.185482,0.175409"
       style="fill:#f06119;fill-opacity:1;fill-rule:nonzero;stroke:none;stroke-width:0.00757379"
       id="path364" />
    <path
       d="m 21.184236,14.094573 c 0.07596,0.212899 0.310071,0.323931 0.523046,0.247966 0.212823,-0.07597 0.323855,-0.310071 0.24789,-0.52297 -0.07589,-0.212899 -0.310071,-0.323931 -0.522894,-0.247965 -0.212975,0.07589 -0.323931,0.31007 -0.248042,0.522969"
       style="fill:#cf521f;fill-opacity:1;fill-rule:nonzero;stroke:none;stroke-width:0.00757379"
       id="path366" />
    <path
       d="m 21.375702,13.778746 c 0.0047,0.09142 0.09543,0.161019 0.202598,0.155491 0.107094,-0.0056 0.190178,-0.08407 0.185482,-0.175409 -0.0047,-0.09134 -0.09535,-0.160943 -0.202523,-0.155415 -0.107169,0.0054 -0.190253,0.08399 -0.185557,0.175333"
       style="fill:#f06119;fill-opacity:1;fill-rule:nonzero;stroke:none;stroke-width:0.00757379"
       id="path368" />
    <path
       d="m 21.05124,13.275772 c 0.07597,0.212899 0.309995,0.32393 0.52297,0.247965 0.212824,-0.07589 0.323856,-0.309995 0.24789,-0.522894 -0.07589,-0.212899 -0.309995,-0.323931 -0.522894,-0.248042 -0.212899,0.07597 -0.323931,0.310071 -0.247966,0.522971"
       style="fill:#cf521f;fill-opacity:1;fill-rule:nonzero;stroke:none;stroke-width:0.00757379"
       id="path370" />
    <path
       d="m 21.24263,12.960021 c 0.0047,0.09134 0.09543,0.160942 0.202599,0.155413 0.107169,-0.0056 0.190253,-0.08399 0.185482,-0.175409 -0.0047,-0.09134 -0.09536,-0.160942 -0.202523,-0.155413 -0.107169,0.0056 -0.190254,0.08399 -0.185558,0.175409"
       style="fill:#f06119;fill-opacity:1;fill-rule:nonzero;stroke:none;stroke-width:0.00757379"
       id="path372" />
    <path
       d="m 20.641802,12.608673 c 0.07596,0.212898 0.31007,0.32393 0.523045,0.248041 0.212823,-0.07596 0.323856,-0.310147 0.247966,-0.523046 -0.07596,-0.212823 -0.310146,-0.323855 -0.52297,-0.24789 -0.212899,0.07589 -0.324006,0.309995 -0.248041,0.522895"
       style="fill:#cf521f;fill-opacity:1;fill-rule:nonzero;stroke:none;stroke-width:0.00757379"
       id="path374" />
    <path
       d="m 20.833267,12.292921 c 0.0047,0.09134 0.09535,0.160943 0.202598,0.155414 0.10717,-0.0054 0.190178,-0.08399 0.185483,-0.175333 -0.0047,-0.09134 -0.09535,-0.160943 -0.202523,-0.15549 -0.10717,0.0056 -0.190254,0.08407 -0.185558,0.175409"
       style="fill:#f06119;fill-opacity:1;fill-rule:nonzero;stroke:none;stroke-width:0.00757379"
       id="path376" />
    <path
       d="m 20.079296,12.046167 c 0.07597,0.2129 0.310072,0.323931 0.52297,0.247966 0.2129,-0.07589 0.323931,-0.31007 0.247966,-0.52297 -0.07589,-0.212899 -0.310071,-0.32393 -0.52297,-0.247966 -0.212823,0.07597 -0.32393,0.310071 -0.247966,0.52297"
       style="fill:#cf521f;fill-opacity:1;fill-rule:nonzero;stroke:none;stroke-width:0.00757379"
       id="path378" />
    <path
       d="m 20.270686,11.730416 c 0.0047,0.09134 0.09543,0.160944 0.202599,0.155414 0.107169,-0.0056 0.190253,-0.08399 0.185482,-0.175409 -0.0047,-0.09134 -0.09535,-0.160942 -0.202447,-0.155414 -0.107169,0.0054 -0.19033,0.08407 -0.185634,0.175409"
       style="fill:#f06119;fill-opacity:1;fill-rule:nonzero;stroke:none;stroke-width:0.00757379"
       id="path380" />
  </g>
</svg>
