<?xml version="1.0" encoding="UTF-8" standalone="no"?>
<svg
   width="40"
   height="40"
   viewBox="0 0 40 40"
   version="1.1"
   id="svg11574"
   sodipodi:docname="icon-pro.svg"
   inkscape:version="1.2.2 (732a01da63, 2022-12-09)"
   xmlns:inkscape="http://www.inkscape.org/namespaces/inkscape"
   xmlns:sodipodi="http://sodipodi.sourceforge.net/DTD/sodipodi-0.dtd"
   xmlns="http://www.w3.org/2000/svg"
   xmlns:svg="http://www.w3.org/2000/svg">
  <defs
     id="defs11578" />
  <sodipodi:namedview
     id="namedview11576"
     pagecolor="#505050"
     bordercolor="#eeeeee"
     borderopacity="1"
     inkscape:showpageshadow="0"
     inkscape:pageopacity="0"
     inkscape:pagecheckerboard="0"
     inkscape:deskcolor="#505050"
     showgrid="false"
     inkscape:zoom="7.1064232"
     inkscape:cx="-7.9505539"
     inkscape:cy="7.3876828"
     inkscape:window-width="1920"
     inkscape:window-height="991"
     inkscape:window-x="-9"
     inkscape:window-y="-9"
     inkscape:window-maximized="1"
     inkscape:current-layer="svg11574" />
  <circle
     cx="20"
     cy="20"
     r="20"
     fill="#483eff"
     id="circle11568"
     style="fill-rule:evenodd" />
  <g
     id="g12527"
     transform="translate(0.43052545,3.0002974)">
    <path
       d="m 38.361708,19.832529 c -0.675894,0.329391 -1.573504,0.782424 -2.371786,1.240357 -1.530621,0.877995 -6.480049,3.4066 -6.480049,3.4066 0,0 -1.601571,-0.489863 -3.893852,-1.469376 C 23.42046,22.072121 12.4846,18.028858 11.562576,17.688406 c 1.857508,-0.956246 5.148919,-2.661946 6.432263,-3.39919 0.810593,-0.465237 1.708098,-0.925676 2.455046,-1.295446 2.616769,0.967306 12.994323,4.815877 15.237565,5.774627 1.042013,0.44458 1.955482,0.799639 2.674258,1.064132"
       style="fill:#58191d;fill-opacity:1;fill-rule:nonzero;stroke:none;stroke-width:0.0104337"
       id="path22" />
    <path
       d="m 14.158685,17.360684 c 2.373977,0.878621 10.324342,3.828642 12.074593,4.576216 1.752859,0.749034 3.058948,1.176816 3.361422,1.272911 l 0.176328,-0.09015 c 0.996208,-0.51052 4.336449,-2.227488 5.487911,-2.887627 0.219629,-0.126247 0.464821,-0.261572 0.743087,-0.409939 -0.684241,-0.241853 -1.638715,-0.600876 -2.769517,-1.084478 -1.826836,-0.781379 -10.046806,-3.833023 -12.648863,-4.796365 -0.411088,0.21629 -0.763643,0.409209 -1.075818,0.588564 -1.061731,0.609222 -3.672033,1.965915 -5.349143,2.830867 m 15.468149,6.222235 -0.06709,-0.02056 c -0.01429,-0.0046 -1.449131,-0.44604 -3.462625,-1.306716 -1.84937,-0.789725 -10.676895,-4.059017 -12.427773,-4.706322 l -0.369247,-0.136578 0.35005,-0.18019 c 1.636836,-0.842624 4.552113,-2.353422 5.685003,-3.003441 0.333147,-0.191458 0.711264,-0.397732 1.155739,-0.630716 l 0.06834,-0.03589 0.07231,0.02691 c 2.519942,0.932667 10.885777,4.037315 12.737339,4.829441 1.347511,0.576148 2.442214,0.974089 3.123325,1.206551 l 0.383228,0.130734 -0.359126,0.187077 c -0.425591,0.221612 -0.780441,0.414426 -1.084687,0.589503 -1.158244,0.664104 -4.504535,2.384098 -5.502518,2.895556 l -0.302264,0.154628"
       style="fill:#e8a54f;fill-opacity:1;fill-rule:nonzero;stroke:none;stroke-width:0.0104337"
       id="path24" />
    <path
       d="m 27.968505,22.221843 c -0.3753,-0.08921 -1.097625,-0.452195 -1.311202,-0.452195 -0.213785,0 -0.790352,-0.260424 -1.380794,-0.51146 -0.590339,-0.251138 -1.864604,-0.492887 -2.33892,-0.916287 -0.474211,-0.423293 -0.0651,-0.61809 -0.0651,-0.61809 -0.344,-0.0744 -0.330122,0 -1.271972,-0.455848 -0.941848,-0.455745 -1.833929,-0.576357 -2.670918,-0.911175 -0.836887,-0.334815 -0.641673,-0.488191 -0.812368,-0.753207 -0.170694,-0.26512 -0.652209,-0.278997 -0.809445,-0.621743 -0.08034,-0.175182 0.133133,-0.447292 0.361006,-0.671304 0.06886,0.123327 0.150975,0.212847 0.240913,0.29663 0.0672,0.0626 0.172156,0.08701 0.294231,0.08701 0.05395,0 0.111118,-0.0048 0.16986,-0.01315 0.02723,0.09839 0.04842,0.192918 0.06041,0.283065 0.0022,0.01002 0.0034,0.02014 0.0044,0.03016 0.06918,0.613709 0.493305,0.772197 1.475323,1.146036 0.874866,0.33367 2.005251,0.684033 2.398079,0.857023 0.01221,0.0055 0.02452,0.01002 0.03568,0.01565 0.48694,0.227142 0.79369,0.265121 0.944458,0.265121 0.07596,0 0.11237,-0.0096 0.11237,-0.0096 v 0 c 0,0 0.02671,0.02233 0.07471,0.06249 0.264494,0.220984 1.184015,0.98306 1.922721,1.555557 0.353805,0.27451 0.742147,0.533475 0.985358,0.689667 0.08483,0.05498 0.181858,0.08264 0.278995,0.08264 0.08963,0 0.179251,-0.02358 0.259173,-0.07095 0.02869,0.05885 0.06803,0.120509 0.127918,0.186136 0.173512,0.190206 0.580844,0.350781 0.915139,0.447814 m 4.350116,-0.453657 c -0.32553,0 -0.696448,-0.08858 -1.037631,-0.207212 -0.546828,-0.190102 -0.783047,-0.340033 -1.052758,-0.535249 -0.122596,-0.08889 -0.191354,-0.131463 -0.255312,-0.131463 -0.07658,0 -0.146281,0.06135 -0.293292,0.177893 -0.112267,0.089 -0.275136,0.114981 -0.427258,0.114981 -0.209928,0 -0.399089,-0.04946 -0.40535,-0.05113 -0.179981,-0.113518 -0.453865,-0.269709 -0.668173,-0.330644 -0.0015,-3.91e-4 -0.0029,-8.04e-4 -0.0043,-0.0012 0.06949,-0.0042 0.144924,-0.01169 0.225576,-0.02389 l 3.13e-4,2.34e-4 c 0.14388,-0.02118 0.304559,-0.05801 0.479845,-0.117171 0.278893,-0.09265 0.482037,-0.180814 0.655027,-0.306854 l 0.0022,-0.0012 c 0.179668,-0.130838 0.32428,-0.303724 0.484124,-0.566862 -0.036,0.172261 -0.08587,0.519598 0.02535,0.772197 0.120301,0.273572 0.925573,0.646889 1.403228,0.838034 v 0 0 c 0.154522,0.183424 0.650017,0.293187 1.057453,0.306751 -0.03923,0.02045 -0.07846,0.0409 -0.117587,0.06124 -0.02358,0.0011 -0.04736,0.0015 -0.07148,0.0015"
       style="fill:#471719;fill-opacity:1;fill-rule:nonzero;stroke:none;stroke-width:0.0104337"
       id="path26" />
    <path
       d="m 32.390092,21.766727 c 0.03913,-0.02034 0.07835,-0.0408 0.117588,-0.06124 0.02838,8.93e-4 0.05645,0.0013 0.08389,0.0013 0.05395,0 0.105694,-0.0018 0.154106,-0.0055 -0.106945,0.03944 -0.227142,0.05999 -0.355581,0.06541"
       style="fill:#c3773d;fill-opacity:1;fill-rule:nonzero;stroke:none;stroke-width:0.0104337"
       id="path28" />
    <path
       d="m 19.165082,16.428123 c -0.209197,0.106943 -1.001948,0.415259 -1.255383,0.179041 -0.259172,-0.241645 -0.453343,-0.530032 -0.453343,-1.541369 0,-0.289222 -0.205544,-0.691544 -0.133029,-0.949256 0.204187,-0.725349 0.880499,-0.530136 0.880499,-0.530136 0.43404,0.175181 0.682884,0.613813 0.843563,1.102526 l -0.27451,0.154003 c 0,0 0.0016,0.659931 0.05801,0.954056 0.158071,0.07908 0.359649,0.17685 0.413277,0.254582 0.113833,0.165061 -0.012,0.338886 -0.07908,0.376553"
       style="fill:#edb29c;fill-opacity:1;fill-rule:nonzero;stroke:none;stroke-width:0.0104337"
       id="path30" />
    <path
       d="m 30.047,19.682701 c 0,0 -0.153481,0.529301 0,0.877995 0.153374,0.348694 1.419502,0.859528 1.701733,0.948528 0.707197,0.223176 2.001077,-0.274615 1.976975,-1.523945 -0.02409,-1.248704 -0.801202,-1.439328 -1.684414,-1.729175 -0.883107,-0.289848 -1.803672,0.446248 -1.994294,1.426597"
       style="fill:#edb29c;fill-opacity:1;fill-rule:nonzero;stroke:none;stroke-width:0.0104337"
       id="path32" />
    <path
       d="m 26.575921,20.829782 c 0,0 0.11623,0.195944 0.226514,0.425067 0.07606,0.158071 0.0697,0.320627 0.250931,0.519182 0.286301,0.313845 1.209056,0.547037 1.390288,0.547037 0.181129,0 0.209091,-0.111431 0.209091,-0.111431 0,0 0.153271,0.0697 0.278685,0.111431 0.125412,0.04184 0.223071,-0.04173 0.223071,-0.04173 0,0 0.08243,0.04226 0.207319,0.05395 0.13522,0.01272 0.242895,-0.135535 0.243417,-0.219421 2.34e-4,-0.03193 -0.1732,-0.119988 -0.1732,-0.119988 0,0 0.05999,-0.08295 0.06688,-0.145653 0.007,-0.0627 -0.358397,-0.237889 -0.358397,-0.237889 0,0 0.111536,-0.111536 0.118526,-0.188223 0.0069,-0.07668 -0.142941,-0.100999 -0.24394,-0.174243 -0.101102,-0.07314 -0.529613,-0.355372 -0.836259,-0.442494 -0.168504,-0.04789 -0.289639,-0.04309 -0.373839,-0.0384 -0.06907,0.0038 -0.11331,0.0078 -0.138351,-0.01732 -0.05582,-0.05582 -0.303203,-0.407748 -0.303203,-0.407748 l -0.787534,0.487879"
       style="fill:#edb29c;fill-opacity:1;fill-rule:nonzero;stroke:none;stroke-width:0.0104337"
       id="path34" />
    <path
       d="m 31.486013,18.001731 c 0,0 0.116231,0.195945 0.226516,0.425068 0.07606,0.15807 0.0697,0.320627 0.250825,0.519181 0.2863,0.313845 1.20916,0.547037 1.390289,0.547037 0.181234,0 0.209091,-0.111431 0.209091,-0.111431 0,0 0.153375,0.0697 0.278789,0.111431 0.125412,0.04184 0.222967,-0.04173 0.222967,-0.04173 0,0 0.08243,0.04226 0.207318,0.05395 0.13522,0.01273 0.243,-0.135533 0.243419,-0.219421 2.34e-4,-0.03193 -0.173096,-0.119986 -0.173096,-0.119986 0,0 0.05989,-0.08295 0.06689,-0.145655 0.007,-0.06271 -0.358398,-0.237888 -0.358398,-0.237888 0,0 0.144819,-0.01878 0.144402,-0.151706 -2.35e-4,-0.077 -0.149932,-0.136056 -0.269921,-0.210656 -0.1059,-0.06594 -0.540985,-0.328243 -0.847735,-0.415365 -0.306752,-0.08712 -0.557995,-0.240706 -0.61371,-0.296421 -0.05582,-0.05571 -0.190101,-0.194171 -0.190101,-0.194171 l -0.787536,0.487775"
       style="fill:#edb29c;fill-opacity:1;fill-rule:nonzero;stroke:none;stroke-width:0.0104337"
       id="path36" />
    <path
       d="m 32.590628,17.594607 c -0.07919,0.300178 -0.40055,0.715335 -0.791082,0.854833 -0.390637,0.139394 -1.171808,0.334714 -1.590199,1.004243 -0.244462,0.463151 -0.425173,0.72201 -0.671825,0.901679 l -0.0022,0.0012 c -0.172991,0.126038 -0.376134,0.214204 -0.655026,0.306854 -0.758841,0.253331 -1.249851,0.09714 -1.249851,0.09714 -0.162975,0.427363 -0.467638,0.682884 -0.69864,0.82353 -0.167356,0.102668 -0.379368,0.09933 -0.544534,-0.0079 -0.243209,-0.156191 -0.631552,-0.415156 -0.985357,-0.689666 -0.738705,-0.572496 -1.658227,-1.334572 -1.92272,-1.555557 -0.048,-0.04018 -0.07471,-0.06249 -0.07471,-0.06249 0,0 -0.324801,0.08597 -1.056828,-0.25552 -0.01117,-0.0056 -0.02233,-0.01013 -0.03569,-0.01566 -0.392828,-0.172991 -1.523214,-0.523353 -2.398078,-0.857023 -0.982019,-0.373839 -1.406148,-0.532327 -1.475323,-1.146037 -0.0011,-0.01002 -0.0022,-0.02014 -0.0044,-0.03016 -0.04017,-0.302368 -0.183007,-0.652836 -0.316976,-1.037839 -0.07919,-0.225368 -0.155148,-0.462004 -0.205335,-0.707404 v -0.0023 c -0.03684,-0.179668 -0.05915,-0.364866 -0.05915,-0.551212 0,-0.89281 0.292351,-1.367021 1.10138,-0.976488 0.809132,0.390637 1.361492,0.613814 1.361492,0.613814 0,0 -0.107154,-0.569158 -0.121657,-1.252042 -0.01336,-0.684138 0.186346,-1.524362 0.632699,-2.039891 0.02796,-0.03245 0.0603,-0.06699 0.09599,-0.104963 l 0.0034,-0.0046 0.0023,-0.0034 C 21.46053,10.33652 22.768393,9.2707195 24.0629,9.1223514 c 2.761902,-0.3168701 4.645495,2.9705756 5.620835,4.2126026 0.977534,1.240878 1.914896,1.714045 2.50972,2.48739 0.723158,0.939554 0.487671,1.427225 0.39721,1.772058"
       style="fill:#feffff;fill-opacity:1;fill-rule:nonzero;stroke:none;stroke-width:0.0104337"
       id="path38" />
    <path
       d="m 23.292126,19.278083 c -0.150767,0 -0.457517,-0.03797 -0.944458,-0.26512 -0.01117,-0.0056 -0.02348,-0.01012 -0.03567,-0.01565 -0.39283,-0.172991 -1.523215,-0.523354 -2.398079,-0.857024 -0.982019,-0.373839 -1.406149,-0.532326 -1.475324,-1.146036 -0.0011,-0.01001 -0.0022,-0.02014 -0.0044,-0.03016 -0.012,-0.09015 -0.03317,-0.184676 -0.06041,-0.283065 v 0 c 0.02723,0.09839 0.04841,0.192919 0.06041,0.283065 0.0022,0.01002 0.0034,0.02014 0.0044,0.03016 0.06918,0.61371 0.493305,0.772197 1.475324,1.146036 0.874864,0.33367 2.005249,0.684033 2.398079,0.857024 0.01336,0.0055 0.02452,0.01002 0.03567,0.01565 0.486941,0.227141 0.793691,0.26512 0.944458,0.26512 0.07596,0 0.11237,-0.0096 0.11237,-0.0096 v 0 c 0,0 -0.03642,0.0096 -0.11237,0.0096"
       style="fill:#572225;fill-opacity:1;fill-rule:nonzero;stroke:none;stroke-width:0.0104337"
       id="path40" />
    <path
       d="m 23.292126,19.278083 c -0.150767,0 -0.457517,-0.03797 -0.944458,-0.26512 -0.01117,-0.0056 -0.02232,-0.01012 -0.03567,-0.01565 -0.39283,-0.172991 -1.523215,-0.523354 -2.398079,-0.857024 -0.982019,-0.373839 -1.406149,-0.532326 -1.475324,-1.146036 -0.0011,-0.01001 -0.0022,-0.02014 -0.0044,-0.03016 -0.012,-0.09015 -0.03317,-0.184676 -0.06041,-0.283065 -0.06416,-0.23142 -0.162559,-0.484542 -0.256566,-0.754774 -0.07919,-0.225367 -0.155149,-0.462004 -0.205335,-0.707405 v -0.0023 c 0.410669,0.833652 1.748687,1.121517 2.119186,1.426181 0.460856,0.378327 1.003199,0.579174 1.490869,0.92839 0.05384,0.03797 0.275971,0.116961 0.36038,0.116961 0.05207,0 0.05175,-0.02995 -0.07251,-0.118004 -0.184155,-0.127291 -0.434144,-0.402845 -0.361527,-0.942997 0,0 -0.727645,-0.882691 -1.132681,-2.324417 v 0 0 c 0,0 -0.01398,-0.0745 -0.03256,-0.201787 -0.01408,-0.09599 -0.03057,-0.221925 -0.04581,-0.368622 -0.02024,-0.197093 -0.03797,-0.431746 -0.0433,-0.681632 -3.92e-4,-0.02139 -6.26e-4,-0.04298 -6.26e-4,-0.06459 0,-0.67172 0.200953,-1.475948 0.633325,-1.975305 0.02796,-0.03245 0.0603,-0.06699 0.09599,-0.104963 -0.048,0.08597 -0.459709,0.835843 -0.179668,1.536674 0.297985,0.744234 1.654887,1.33353 1.971861,1.614717 0.315828,0.282335 -0.40733,0.142837 -0.429659,0.32021 v 0.0012 c 0.0915,0.009 0.216499,0.04914 0.382813,0.123847 0.710847,0.316976 0.98974,0.869336 1.855735,1.524362 0.782213,0.594824 1.391541,0.82353 1.498695,0.861509 -0.588356,-0.178311 -1.305568,-0.346712 -1.925015,-0.346712 -0.20544,0 -0.400133,0.01858 -0.575836,0.06135 0.118736,-0.03434 0.254686,-0.05718 0.409314,-0.06124 0,0 -0.463152,-0.07262 -0.863075,-0.370188 -0.399818,-0.297567 -0.297569,-0.09296 -0.697388,-0.604423 -0.324591,-0.415156 -0.532744,-0.573018 -0.664313,-0.573018 -0.03047,0 -0.05686,0.0086 -0.07971,0.02431 -0.120821,0.08368 0.21389,0.260426 0.334818,0.697492 0.120822,0.43686 0.229124,1.004973 0.857858,1.39029 -0.129066,0.197613 -0.216394,0.448439 -0.216394,0.74246 -8e-5,0.01419 7.7e-5,0.02849 5.41e-4,0.04287 0.01784,0.669529 0.801306,1.377038 0.801306,1.377038 0,0 -0.03641,0.0096 -0.112371,0.0096 m -0.46272,-2.187592 c 0.01231,-0.01951 0.03673,-0.05572 0.07512,-0.100476 -0.02629,0.03172 -0.05134,0.06521 -0.07512,0.100476"
       style="fill:#f4f2f3;fill-opacity:1;fill-rule:nonzero;stroke:none;stroke-width:0.0104337"
       id="path42" />
    <path
       d="m 26.925449,21.587893 v 0 c 0.0022,-0.0013 0.0043,-0.0026 0.0063,-0.0038 0.05812,-0.03537 0.120927,-0.07804 0.184989,-0.128857 -0.06396,0.05081 -0.126666,0.09349 -0.184989,0.128857 -0.0021,0.0013 -0.0042,0.0026 -0.0063,0.0038"
       style="fill:#e3ae9b;fill-opacity:1;fill-rule:nonzero;stroke:none;stroke-width:0.0104337"
       id="path44" />
    <path
       d="m 28.400458,20.780535 -3.13e-4,-2.35e-4 c 0.143986,-0.02181 0.304873,-0.05842 0.480159,-0.116962 0.278893,-0.09265 0.482036,-0.180815 0.655027,-0.306853 l 0.0022,-0.0012 c 0.179669,-0.130839 0.32428,-0.303725 0.484124,-0.566863 v 0 c -0.159844,0.263138 -0.304455,0.436024 -0.484124,0.566863 l -0.0022,0.0012 c -0.172991,0.126038 -0.376134,0.214201 -0.655027,0.306853 -0.175286,0.05915 -0.335965,0.09599 -0.479846,0.117171"
       style="fill:#572225;fill-opacity:1;fill-rule:nonzero;stroke:none;stroke-width:0.0104337"
       id="path46" />
    <path
       d="m 26.666276,21.658843 c -0.09714,0 -0.194171,-0.02765 -0.278997,-0.08263 -0.24321,-0.156193 -0.631552,-0.415158 -0.985357,-0.689668 -0.738705,-0.572497 -1.658226,-1.334572 -1.92272,-1.555558 -0.048,-0.04017 -0.07471,-0.06249 -0.07471,-0.06249 v 0 c 0,0 -0.783466,-0.707508 -0.801306,-1.377037 -3.92e-4,-0.0144 -6.25e-4,-0.0287 -5.42e-4,-0.04287 0,-0.294022 0.08733,-0.544848 0.216394,-0.742463 2.36e-4,2.36e-4 5.42e-4,3.14e-4 7.38e-4,5.42e-4 0,0 0.0031,-0.0057 0.0096,-0.01607 0.02379,-0.03527 0.04883,-0.06876 0.07512,-0.100477 0.08347,-0.09776 0.232776,-0.236428 0.465239,-0.333773 -0.0626,0.06156 -0.294647,0.32699 -0.08138,0.702812 0.326991,0.574687 1.389974,1.299307 1.62828,1.299307 0.01617,0 0.02859,-0.0035 0.03673,-0.01043 0.128647,-0.111433 -0.5437,-0.612145 -0.252392,-0.743192 0.0078,-0.0035 0.01691,-0.0051 0.02734,-0.0051 0.236533,0 1.158557,0.849301 1.712795,1.161477 0.05008,0.02827 0.777519,0.483915 1.555349,0.495184 0.0085,7.7e-5 0.01691,2.34e-4 0.02535,2.34e-4 0.631237,0 1.191005,-0.343477 1.779047,-0.981078 0.594824,-0.646055 1.499008,-0.653254 2.010572,-0.811533 0.650018,-0.201058 0.443744,-0.823844 0.65753,-0.823844 0.0088,0 0.01816,0.0011 0.02838,0.0031 0.187076,0.09192 0.137933,0.480679 0.09328,0.651374 v 0 c -0.05707,0.216603 -0.240392,0.493096 -0.48475,0.682675 -0.0093,-0.0054 -0.141897,-0.08127 -0.303202,-0.08127 -0.0265,0 -0.05374,0.0021 -0.08127,0.0068 -0.202936,0.03569 -0.838139,0.355477 -0.873717,0.64209 -0.238932,0.143463 -0.468473,0.337113 -0.638334,0.608806 -0.06647,0.12583 -0.128125,0.236636 -0.187701,0.334816 -0.159844,0.263139 -0.304456,0.436024 -0.484124,0.566863 l -0.0022,0.0012 c -0.172991,0.126039 -0.376136,0.214203 -0.655027,0.306855 -0.175286,0.05853 -0.336173,0.09515 -0.480159,0.116961 l -8.05e-4,-8.93e-4 c -0.135846,0.02066 -0.256564,0.02796 -0.359752,0.02796 -0.2598,0 -0.408584,-0.04674 -0.409106,-0.04685 v 0 0 0 c -1.721872,-0.473168 -3.36789,-2.13369 -3.452716,-2.218515 0.03464,0.0458 0.316976,0.422981 0.657322,0.819148 0.362676,0.422878 0.646054,0.572393 1.255382,1.055577 0.222446,0.176642 0.85358,0.298195 1.069035,0.418287 0.246131,0.137307 0.269712,0.204603 0.228812,0.348381 v 0 c -0.08608,0.109135 -0.179983,0.198865 -0.271486,0.271796 -0.06405,0.05081 -0.126874,0.09349 -0.184988,0.128857 -0.0021,0.0012 -0.0042,0.0026 -0.0063,0.0038 -0.07992,0.04736 -0.169546,0.07095 -0.259172,0.07095"
       style="fill:#f4f2f3;fill-opacity:1;fill-rule:nonzero;stroke:none;stroke-width:0.0104337"
       id="path48" />
    <path
       d="m 22.904513,16.99008 c 0.142944,-0.173199 0.317603,-0.292248 0.479846,-0.347337 0.04424,-0.01513 0.09004,-0.02838 0.137204,-0.03985 -0.05415,0.01565 -0.104755,0.0337 -0.15181,0.05342 0.0091,-0.009 0.01461,-0.01357 0.01461,-0.01357 -0.162244,0.05509 -0.336904,0.174138 -0.479846,0.347337 v 0"
       style="fill:#f4f2f3;fill-opacity:1;fill-rule:nonzero;stroke:none;stroke-width:0.0104337"
       id="path50" />
    <path
       d="M 22.819062,17.106103 C 22.190328,16.720787 22.082027,16.152672 21.961205,15.715814 21.840277,15.278747 21.505566,15.102 21.626387,15.018323 c 0.02285,-0.01575 0.04925,-0.02431 0.07971,-0.02431 0.131569,0 0.339721,0.157861 0.664313,0.573018 0.399818,0.511459 0.297568,0.306854 0.697387,0.604424 0.399924,0.297568 0.863075,0.370187 0.863075,0.370187 -0.154627,0.0041 -0.290579,0.02691 -0.409314,0.06124 -0.04716,0.01148 -0.09296,0.02473 -0.137203,0.03985 -0.162243,0.05509 -0.336902,0.174138 -0.479846,0.347337 -0.03839,0.04476 -0.06281,0.08096 -0.07512,0.100477 -0.0036,0.0053 -0.0069,0.01033 -0.01033,0.01555"
       style="fill:#e9e4e4;fill-opacity:1;fill-rule:nonzero;stroke:none;stroke-width:0.0104337"
       id="path52" />
    <path
       d="m 22.819793,17.106623 c -2.35e-4,-2.34e-4 -5.42e-4,-3.11e-4 -7.38e-4,-5.4e-4 0.0035,-0.0053 0.0068,-0.01033 0.01033,-0.01555 -0.0064,0.01033 -0.0096,0.01607 -0.0096,0.01607 m 0.08472,-0.116544 c 0.142943,-0.173199 0.317603,-0.292247 0.479846,-0.347338 0,0 -0.0055,0.0046 -0.01461,0.01357 -0.232463,0.09735 -0.381769,0.23601 -0.465239,0.333773"
       style="fill:#e9e4e4;fill-opacity:1;fill-rule:nonzero;stroke:none;stroke-width:0.0104337"
       id="path54" />
    <path
       d="m 23.404288,19.267963 c 0,0 -0.08723,-0.07012 -0.222446,-0.211803 -0.131883,-0.143256 -0.324696,-0.352242 -0.477341,-0.657428 -0.0744,-0.152123 -0.140437,-0.330644 -0.143672,-0.533683 -0.0046,-0.191876 0.02754,-0.409626 0.119361,-0.604736 0.08723,-0.198345 0.229228,-0.380829 0.412235,-0.518867 0.09171,-0.06845 0.195423,-0.125413 0.308941,-0.159636 0.102772,-0.03422 0.223386,-0.05843 0.334296,-0.07345 0.226621,-0.02984 0.454179,-0.02337 0.675164,-0.0056 0.221193,0.01868 0.43665,0.05228 0.643027,0.09286 0.41328,0.08075 0.788058,0.197822 1.106077,0.303307 0.318226,0.106007 0.576253,0.213369 0.75665,0.288178 0.179877,0.07606 0.280144,0.12531 0.280144,0.12531 0,0 -0.104233,-0.03996 -0.288073,-0.104859 -0.18332,-0.06636 -0.44844,-0.152123 -0.767814,-0.248323 -0.319376,-0.09651 -0.697076,-0.191249 -1.105138,-0.268249 -0.204187,-0.03767 -0.416617,-0.06823 -0.633011,-0.08399 -0.216082,-0.01534 -0.437172,-0.01732 -0.65294,0.01148 -0.109868,0.01441 -0.2093,0.03183 -0.317916,0.06615 -0.09954,0.02879 -0.193335,0.07867 -0.277951,0.140437 -0.168506,0.124474 -0.302683,0.292247 -0.385214,0.475567 -0.0434,0.09088 -0.07262,0.186346 -0.09234,0.281293 -0.02201,0.09589 -0.029,0.186242 -0.03078,0.284318 -0.0038,0.182067 0.05112,0.355893 0.117796,0.504782 0.06814,0.149722 0.148263,0.279414 0.22349,0.391367 0.07616,0.111432 0.149514,0.204082 0.212012,0.27858 0.125413,0.148888 0.20544,0.227037 0.20544,0.227037"
       style="fill:#ab9595;fill-opacity:1;fill-rule:nonzero;stroke:none;stroke-width:0.0104337"
       id="path56" />
    <path
       d="m 27.388287,21.18338 c 0.0409,-0.143777 0.01733,-0.211075 -0.228811,-0.348382 -0.215455,-0.120092 -0.846589,-0.241644 -1.069035,-0.418287 -0.609328,-0.483183 -0.892706,-0.632698 -1.255381,-1.055575 -0.340347,-0.396168 -0.622682,-0.773345 -0.657323,-0.81915 0.08483,0.08483 1.730844,1.745348 3.452717,2.218517 -0.06365,0.166208 -0.148472,0.305705 -0.242167,0.422877"
       style="fill:#e9e4e4;fill-opacity:1;fill-rule:nonzero;stroke:none;stroke-width:0.0104337"
       id="path58" />
    <path
       d="m 24.174398,18.538126 c 0,0 0.04904,0.04257 0.134803,0.117066 0.08461,0.07543 0.210866,0.177269 0.359754,0.301637 0.07533,0.06114 0.155984,0.128545 0.244148,0.196154 0.08692,0.06918 0.180816,0.139081 0.27691,0.212743 0.09495,0.07512 0.198762,0.145133 0.300073,0.221612 0.103085,0.07418 0.209613,0.14701 0.315828,0.219942 0.108302,0.06981 0.213995,0.143881 0.32261,0.209404 0.109762,0.06332 0.21243,0.135326 0.319375,0.191355 0.106528,0.05645 0.204918,0.120612 0.304977,0.168087 0.09922,0.04894 0.190937,0.100476 0.279622,0.138766 0.089,0.03787 0.169757,0.07481 0.241436,0.107676 0.07189,0.03234 0.137515,0.05269 0.190206,0.07356 0.106006,0.04101 0.166626,0.06438 0.166626,0.06438 0,0 -0.06291,-0.01586 -0.173199,-0.04361 -0.05457,-0.01575 -0.122805,-0.02995 -0.197927,-0.0553 -0.07512,-0.02556 -0.159949,-0.05468 -0.251661,-0.08889 -0.09202,-0.0335 -0.187389,-0.07982 -0.290787,-0.123432 -0.104337,-0.04215 -0.207526,-0.09985 -0.316767,-0.155151 -0.109867,-0.05436 -0.217021,-0.121447 -0.328348,-0.185615 -0.110596,-0.06531 -0.218272,-0.138976 -0.328556,-0.208778 -0.214413,-0.148262 -0.425382,-0.301638 -0.613918,-0.456891 -0.190833,-0.152436 -0.358189,-0.307376 -0.501965,-0.438945 -0.143047,-0.132716 -0.254791,-0.251035 -0.333461,-0.333148 -0.07815,-0.08263 -0.119779,-0.132613 -0.119779,-0.132613"
       style="fill:#ab9595;fill-opacity:1;fill-rule:nonzero;stroke:none;stroke-width:0.0104337"
       id="path60" />
    <path
       d="m 33.589444,20.798377 c -0.118318,0.285673 -0.420687,0.560183 -0.906166,0.732026 -0.485375,0.1708 -1.115882,0.0068 -1.233052,-0.131673 -0.118319,-0.13835 0.01232,-0.810175 -0.05019,-0.970855 -0.03464,-0.08921 -0.166313,-0.165164 -0.270129,-0.22422 l -0.02003,-0.132821 c 0.08921,0.0046 0.217543,0.02682 0.332522,0.02232 0.187494,-0.0067 0.285674,-0.272319 0.05915,-0.46649 -0.225473,-0.196362 -0.689668,-0.495496 -0.653985,-0.781169 0.03464,-0.286719 0.670678,-0.607033 0.873821,-0.642716 0.201997,-0.03464 0.385004,0.07481 0.385004,0.07481 0.907209,0.164018 1.493061,0.614858 1.619204,1.132577 0.127186,0.516676 -0.0168,1.101381 -0.136159,1.388203"
       style="fill:#2e1617;fill-opacity:1;fill-rule:nonzero;stroke:none;stroke-width:0.0104337"
       id="path62" />
    <path
       d="m 20.315187,14.302258 c 0,0 0.01836,0.0482 0.0505,0.132403 0.03067,0.08451 0.08065,0.203145 0.138038,0.345772 0.06009,0.14169 0.128231,0.307378 0.208883,0.481306 0.03797,0.08806 0.08336,0.176122 0.125829,0.267208 0.04215,0.09119 0.09161,0.180503 0.137413,0.271693 0.04831,0.08973 0.09703,0.179355 0.146488,0.26658 0.05353,0.08462 0.09995,0.172157 0.15275,0.25166 0.05425,0.07835 0.100893,0.158592 0.153062,0.228812 0.05289,0.06949 0.09964,0.138245 0.146698,0.198448 0.04945,0.05822 0.09369,0.112788 0.132925,0.161409 0.03851,0.04946 0.07971,0.08503 0.109867,0.118319 0.06176,0.06584 0.09703,0.103398 0.09703,0.103398 0,0 -0.04059,-0.03172 -0.111641,-0.08733 -0.03412,-0.02953 -0.08044,-0.06072 -0.124995,-0.10538 -0.04549,-0.04361 -0.09683,-0.09317 -0.151707,-0.148576 -0.05342,-0.05665 -0.106839,-0.121969 -0.164643,-0.190102 -0.0577,-0.06823 -0.110701,-0.145966 -0.1684,-0.224428 -0.05624,-0.07951 -0.109136,-0.16506 -0.163705,-0.251452 -0.05144,-0.08817 -0.102354,-0.17852 -0.152331,-0.269397 -0.04538,-0.09307 -0.09442,-0.184573 -0.136055,-0.277537 -0.04267,-0.09255 -0.08285,-0.184468 -0.118631,-0.274615 -0.03777,-0.08931 -0.06949,-0.17758 -0.09933,-0.261155 -0.0315,-0.08305 -0.05519,-0.163809 -0.0795,-0.237261 -0.0459,-0.148054 -0.0771,-0.273364 -0.0987,-0.361007 -0.02128,-0.08775 -0.02984,-0.138767 -0.02984,-0.138767"
       style="fill:#ab9595;fill-opacity:1;fill-rule:nonzero;stroke:none;stroke-width:0.0104337"
       id="path64" />
    <path
       d="m 21.509218,16.661106 c -2.34e-4,0.0015 -0.0025,0.0081 -0.0057,0.02639 -0.0028,0.01795 -0.0068,0.04434 -0.0077,0.07668 -0.0037,0.06469 0.0055,0.152959 0.03162,0.238096 0.02535,0.08545 0.07001,0.165584 0.110597,0.220674 0.01889,0.0288 0.03851,0.04978 0.05145,0.06522 0.01316,0.01545 0.02055,0.02421 0.02055,0.02421 0,0 -0.0087,-0.0077 -0.02389,-0.02076 -0.01524,-0.01336 -0.03809,-0.03151 -0.06155,-0.05748 -0.04925,-0.04936 -0.108093,-0.124474 -0.148993,-0.211282 -0.04163,-0.08619 -0.06666,-0.181338 -0.07387,-0.25479 -0.0046,-0.03652 -0.0048,-0.06782 -0.0046,-0.08994 3.14e-4,-0.02191 0.0024,-0.03776 0.0021,-0.0363 l 0.109972,0.01931"
       style="fill:#ab9595;fill-opacity:1;fill-rule:nonzero;stroke:none;stroke-width:0.0104337"
       id="path66" />
    <path
       d="m 33.924157,20.645522 c -0.01221,0.05582 -0.02671,0.108197 -0.04121,0.15734 -0.120509,0.408479 -0.427468,0.68299 -0.901679,0.854832 -0.33586,0.121552 -1.303377,0.01117 -1.53104,-0.258964 -0.227663,-0.270024 0.0335,-1.921572 0.401697,-2.409242 0.09599,-0.127187 0.206483,-0.220985 0.318019,-0.289015 l 0.0012,-0.0012 c 0.339198,-0.207525 0.690709,-0.188536 0.690709,-0.188536 0,0 0.741001,0.130526 0.979829,0.67506 0.224323,0.514484 0.179667,1.057975 0.08253,1.459673"
       style="fill:#feffff;fill-opacity:1;fill-rule:nonzero;stroke:none;stroke-width:0.0104337"
       id="path68" />
    <path
       d="m 32.591566,21.706837 c -0.420477,0 -0.975966,-0.111953 -1.14134,-0.308107 -0.05895,-0.06981 -0.08514,-0.232254 -0.08514,-0.443118 -2.34e-4,-0.603798 0.213891,-1.604701 0.486835,-1.966124 0.09599,-0.127187 0.206484,-0.220985 0.31802,-0.289015 -0.02118,0.05915 -0.636038,1.726359 0.359336,2.265364 0.221612,0.119571 0.4162,0.165373 0.583973,0.165373 0.530344,7.9e-5 0.794838,-0.456891 0.810906,-0.485688 -0.01221,0.05582 -0.02671,0.108197 -0.04121,0.15734 -0.120509,0.408479 -0.427468,0.68299 -0.901679,0.854832 -0.09192,0.03328 -0.231316,0.04915 -0.389699,0.04915"
       style="fill:#f4f2f3;fill-opacity:1;fill-rule:nonzero;stroke:none;stroke-width:0.0104337"
       id="path70" />
    <path
       d="m 31.280991,19.447109 c 0,0 0.39335,0.237158 0.374778,0.409209 -0.01597,0.147532 -0.118632,0.26272 -0.251139,0.237158"
       style="fill:#edb29c;fill-opacity:1;fill-rule:nonzero;stroke:none;stroke-width:0.0104337"
       id="path72" />
    <path
       d="m 27.576302,25.573978 c -0.675894,0.329288 -1.5734,0.782422 -2.371786,1.240357 -1.530622,0.877995 -6.479946,3.406599 -6.479946,3.406599 0,0 -1.601674,-0.48985 -3.893956,-1.46948 C 12.635157,27.81357 1.6992767,23.770307 0.77724111,23.429857 2.6347824,22.473504 5.9261928,20.767806 7.2094319,20.030665 8.0200252,19.565428 8.9176352,19.104989 9.6645828,18.735218 12.281247,19.702526 22.6588,23.551096 24.902044,24.509847 c 1.042012,0.444475 1.955586,0.799637 2.674258,1.064131"
       style="fill:#58191d;fill-opacity:1;fill-rule:nonzero;stroke:none;stroke-width:0.0104337"
       id="path74" />
    <path
       d="m 3.3732787,23.102029 c 2.3740819,0.878622 10.3243413,3.828747 12.0746983,4.576215 1.752753,0.749139 3.058946,1.176817 3.361418,1.273015 l 0.176226,-0.09015 c 0.996312,-0.51052 4.336449,-2.227488 5.488016,-2.887627 0.219524,-0.126353 0.464821,-0.261677 0.743087,-0.40994 C 24.532481,25.321689 23.577905,24.962666 22.447206,24.47896 20.620371,23.697685 12.400295,20.646041 9.7982386,19.682698 9.3871517,19.898989 9.034597,20.091803 8.7224216,20.271158 7.6606882,20.880382 5.0503892,22.237179 3.3732787,23.102026 M 18.841533,29.32426 18.774343,29.3037 C 18.760153,29.2993 17.325208,28.85767 15.311715,27.997099 13.462448,27.207268 4.6348185,23.938081 2.8840463,23.290775 L 2.5146941,23.154199 2.8647439,22.973904 C 4.5016851,22.131281 7.4168574,20.620587 8.5498512,19.970464 8.882999,19.77911 9.2610115,19.572732 9.7055907,19.339853 l 0.068235,-0.03589 0.072414,0.02682 c 2.5199443,0.932772 10.8857783,4.03742 12.7372363,4.829544 1.347615,0.576149 2.442213,0.97409 3.123324,1.206448 l 0.383334,0.130838 -0.359232,0.187077 c -0.425591,0.221611 -0.780336,0.414425 -1.084686,0.589398 -1.158244,0.664105 -4.504536,2.384203 -5.502518,2.895557 l -0.302159,0.154628"
       style="fill:#e8a54f;fill-opacity:1;fill-rule:nonzero;stroke:none;stroke-width:0.0104337"
       id="path76" />
    <path
       d="m 14.228381,26.830299 c -1.053906,0 -2.587866,-0.671617 -3.528672,-1.168469 C 10.031431,25.308964 9.3549114,25.196696 8.6557496,25.068362 7.5953744,24.671151 6.5556571,24.283541 5.6495957,23.946532 5.5351378,23.810059 5.5036289,23.648338 5.5107239,23.406276 c 0.00822,-0.280771 0.269503,-0.523562 0.5574726,-0.706778 0.019825,0.882063 0.2066905,1.152193 0.4515688,1.380481 0.067199,0.0626 0.1721552,0.08692 0.2942296,0.08692 0.3384701,0 0.8074634,-0.187389 0.9611511,-0.265954 0.034015,-0.01909 0.083157,-0.07314 0.108406,-0.143359 0.4126533,0.264077 0.884255,0.541195 1.3909162,0.794838 0.005,0.0025 0.00981,0.0049 0.014815,0.0074 2.349e-4,7.8e-5 6.242e-4,3.13e-4 7.377e-4,3.91e-4 0.00205,0.0011 0.00393,0.002 0.00598,0.003 1.6545741,0.824365 2.7519891,1.081138 3.5335781,1.097728 0.02817,6.25e-4 0.05571,8.05e-4 0.08316,8.05e-4 0.417556,7.8e-5 0.742044,-0.06897 1.013945,-0.152645 0.787744,-0.242271 1.249121,-0.697805 1.346364,-1.319653 0.09766,0.01012 0.192815,0.01481 0.28797,0.01481 0.173095,0 0.346292,-0.01555 0.534934,-0.04246 0.970333,-0.141585 1.480332,-0.811532 1.569435,-1.540847 0.220568,0.08347 0.438007,0.165687 0.65242,0.247069 0.216707,0.246967 0.327511,0.526798 0.263032,0.845129 -0.136473,0.674225 -0.960525,1.060063 -2.050532,1.283239 -1.089903,0.223177 -0.292874,1.032204 -1.632351,1.701735 -0.184258,0.09213 -0.412756,0.13209 -0.669634,0.13209"
       style="fill:#471719;fill-opacity:1;fill-rule:nonzero;stroke:none;stroke-width:0.0104337"
       id="path78" />
    <path
       d="m 8.6557496,25.068362 c -0.525127,-0.09641 -1.0629837,-0.201892 -1.6199339,-0.425277 -0.801516,-0.321463 -1.2016475,-0.476297 -1.38622,-0.696553 0.9060614,0.337009 1.9457787,0.724619 3.0061539,1.12183 m 9.6621154,-2.200255 c -0.214411,-0.08138 -0.431849,-0.163601 -0.652418,-0.247071 0.0029,-0.02379 0.0054,-0.04769 0.0074,-0.07168 v 0 0 c 0.005,-0.06124 0.0073,-0.122804 0.0066,-0.184468 0.253121,0.150873 0.475671,0.317812 0.638437,0.503218"
       style="fill:#c3773d;fill-opacity:1;fill-rule:nonzero;stroke:none;stroke-width:0.0104337"
       id="path80" />
    <path
       d="m 14.287228,14.751428 c 0,0 0.220985,-0.08723 0.253539,-0.427676 0.03829,-0.400966 -0.06981,-0.941537 -0.253539,-1.019372 -0.296213,-0.125517 -0.46482,0.588148 -0.381143,0.98807 0.08368,0.399819 0.250826,0.478698 0.381143,0.458978"
       style="fill:#da7b1c;fill-opacity:1;fill-rule:nonzero;stroke:none;stroke-width:0.0104337"
       id="path82" />
    <path
       d="M 7.775146,23.900937 C 7.5659506,24.007882 6.7732004,24.316197 6.5197653,24.079979 6.2605926,23.838336 6.0664212,23.549947 6.0664212,22.53861 c 0,-0.289221 -0.2055431,-0.691544 -0.133028,-0.94936 0.2041856,-0.72535 0.8804972,-0.530032 0.8804972,-0.530032 0.4340427,0.175181 0.6828859,0.613813 0.8435642,1.102528 l -0.2745102,0.154001 c 0,0 0.00161,0.659931 0.05801,0.954056 0.1580707,0.07908 0.3596488,0.176852 0.4132784,0.254583 0.1139355,0.165061 -0.012002,0.338886 -0.079085,0.376551"
       style="fill:#edb29c;fill-opacity:1;fill-rule:nonzero;stroke:none;stroke-width:0.0104337"
       id="path84" />
    <path
       d="m 17.672855,22.549357 c -0.06364,0.756548 -0.574687,1.46635 -1.576843,1.612527 -0.312385,0.04454 -0.582513,0.05801 -0.880396,0.02118 C 14.521464,24.098239 13.673414,23.74558 11.786377,22.912033 9.9875057,22.117508 8.8202892,20.615475 8.8202892,20.615475 8.657315,20.164634 8.7789786,19.85778 8.7789786,19.85778 8.2679362,18.995123 8.1417924,18.155941 8.2723182,17.312378 h 3.5922138 c 0,0 5.272663,2.641392 5.793826,4.78948 0.02232,0.148471 0.02671,0.299028 0.0145,0.447501"
       style="fill:#cfb9b7;fill-opacity:1;fill-rule:nonzero;stroke:none;stroke-width:0.0104337"
       id="path86" />
    <path
       d="m 15.561077,24.204349 c -0.09516,0 -0.190311,-0.0047 -0.28797,-0.01482 0.01805,-0.115397 0.02358,-0.236532 0.01628,-0.363092 0.0088,-0.166939 -0.0144,-0.33753 -0.06438,-0.509686 -0.0577,-0.213265 -0.169026,-0.446458 -0.328766,-0.693527 C 14.748188,22.392222 14.566329,22.162993 14.364019,21.940339 13.717026,21.223232 12.755667,20.445504 11.58605,19.72725 11.491,19.6684 11.437057,19.63679 11.437057,19.63679 c 0,0 -0.136056,-0.145028 -0.0457,-0.374986 0.01408,-0.03547 0.03975,-0.05175 0.07585,-0.05175 0.197823,0 0.709909,0.489341 1.364831,0.996939 0.774387,0.599311 2.315444,2.002017 2.957116,2.363542 0.306958,0.174035 0.684135,0.255314 1.026048,0.255418 0.3729,0 0.703961,-0.09672 0.856501,-0.275449 l 0.0012,-0.0012 c -0.002,0.02399 -0.0046,0.04789 -0.0074,0.07168 -0.0891,0.729315 -0.599103,1.399262 -1.569435,1.540847 -0.188641,0.02691 -0.361841,0.04246 -0.534936,0.04246"
       style="fill:#c4aead;fill-opacity:1;fill-rule:nonzero;stroke:none;stroke-width:0.0104337"
       id="path88" />
    <path
       d="m 15.607819,12.355854 c 0.03996,-0.02629 0.286092,-0.07325 0.308629,-0.0077 0.05123,0.148993 -0.340764,0.764162 -0.61204,1.100232 -0.06416,0.0796 -0.215874,0.131986 -0.245191,0.172051 -0.129587,0.176642 -0.536084,0.203665 -0.753313,0.302263 -0.27837,0.126249 -0.399819,0.258026 -0.399819,0.258026 0,0 -0.06981,-0.40107 0,-0.56488 0,0 0.357876,-0.06218 0.486419,-0.115083 0.213786,-0.08806 0.589399,-0.377178 0.589399,-0.377178 0,0 0.399193,-0.618718 0.625916,-0.767815"
       style="fill:#e5aa98;fill-opacity:1;fill-rule:nonzero;stroke:none;stroke-width:0.0104337"
       id="path90" />
    <path
       d="m 12.539063,15.645491 c 0.760199,0.03485 1.776961,-0.909191 1.776961,-0.909191 0,0 -0.310609,0.05478 -0.370395,-0.527632 -0.01597,-0.154523 -0.0036,-0.346399 0.03256,-0.604424 0.07575,-0.541821 -0.490071,-0.01628 -0.490071,-0.01628 0,0 -1.509545,2.031752 -0.949047,2.057523"
       style="fill:#ea8d22;fill-opacity:1;fill-rule:nonzero;stroke:none;stroke-width:0.0104337"
       id="path92" />
    <path
       d="M 15.270707,23.645208 C 15.281771,22.652234 13.74332,21.022804 11.437058,19.63721 10.330982,18.618152 9.8190011,17.516981 9.8190011,17.516981 L 6.8997604,16.230299 c -1.1084745,1.81473 -1.683893,3.491216 -0.6331159,5.266716 0,0 -0.1626616,0.636977 0,1.088025 0,0 1.30661,1.115884 3.0083443,1.966855 2.6382622,1.31913 3.8656812,1.199039 4.6517552,0.95729 1.002365,-0.308316 1.476367,-0.961985 1.343963,-1.863977"
       style="fill:#cfb9b7;fill-opacity:1;fill-rule:nonzero;stroke:none;stroke-width:0.0104337"
       id="path94" />
    <path
       d="M 13.926744,25.508768 C 13.141088,25.750934 11.913564,25.871443 9.2744682,24.552416 7.573776,23.700924 6.2670616,22.58504 6.2670616,22.58504 c -0.1629742,-0.450839 0,-1.088025 0,-1.088025 C 6.1599076,21.315157 6.0695521,21.134341 5.9947429,20.954673 5.3397153,19.376786 5.9055313,17.859101 6.8997604,16.229882 l 2.9192407,1.286682 c 0,0 0.5121909,1.101381 1.6180569,2.120229 2.11251,1.268841 3.578754,2.741868 3.803079,3.742773 0.02118,0.0938 0.0312,0.181964 0.03016,0.265642 0.132821,0.901679 -0.341495,1.555558 -1.343546,1.86356"
       style="fill:#cfb9b7;fill-opacity:1;fill-rule:nonzero;stroke:none;stroke-width:0.0104337"
       id="path96" />
    <path
       d="m 12.911755,25.66183 c -0.0023,0 -0.0047,0 -0.007,0 0.0023,0 0.0047,0 0.007,0 v 0 m 2.35e-4,0 c 0.417869,0 0.742879,-0.06928 1.01478,-0.153062 0.891455,-0.273988 1.365249,-0.821861 1.365457,-1.574234 -2.35e-4,0.752373 -0.474002,1.300246 -1.365457,1.574234 -0.271901,0.08378 -0.596807,0.153062 -1.01478,0.153062"
       style="fill:#c4aead;fill-opacity:1;fill-rule:nonzero;stroke:none;stroke-width:0.0104337"
       id="path98" />
    <path
       d="m 6.2670616,21.497015 c -0.030264,-0.05102 -0.058948,-0.102041 -0.086283,-0.152853 0.027433,0.05081 0.056242,0.101834 0.086283,0.152853 v 0 M 5.8422017,18.555864 c 0.04674,-0.18864 0.1054841,-0.377699 0.1747646,-0.567489 -0.06928,0.18979 -0.1279173,0.378849 -0.1747646,0.567489"
       style="fill:#c4aead;fill-opacity:1;fill-rule:nonzero;stroke:none;stroke-width:0.0104337"
       id="path100" />
    <path
       d="m 11.50039,18.323818 c -0.398149,0 -0.857963,-0.03964 -1.270719,-0.104649 -0.135325,-0.202935 -0.2363232,-0.374988 -0.3042464,-0.498105 l 1.0444124,0.0865 c 0,0 1.792403,0.174348 1.439327,0.379682 -0.164956,0.09599 -0.505303,0.136577 -0.908774,0.136577"
       style="fill:#c4aead;fill-opacity:1;fill-rule:nonzero;stroke:none;stroke-width:0.0104337"
       id="path102" />
    <path
       d="m 6.0173833,17.987229 c 7.77e-5,-3.14e-4 2.349e-4,-6.26e-4 3.126e-4,-8.93e-4 -7.77e-5,3.12e-4 -2.349e-4,6.25e-4 -3.126e-4,8.93e-4"
       style="fill:#c4aead;fill-opacity:1;fill-rule:nonzero;stroke:none;stroke-width:0.0104337"
       id="path104" />
    <path
       d="m 12.911755,25.66183 c -0.0023,0 -0.0047,0 -0.007,0 -0.78597,-0.0015 -1.900496,-0.247487 -3.6086994,-1.098562 -0.00205,-0.0011 -0.00393,-0.002 -0.00598,-0.003 -7.77e-5,-7.9e-5 -5.412e-4,-3.13e-4 -7.376e-4,-3.91e-4 -0.005,-0.0025 -0.00981,-0.0049 -0.014824,-0.0074 C 8.7678865,24.298785 8.2962839,24.021666 7.8836315,23.75759 7.7930669,23.69958 7.705319,23.642193 7.6207028,23.585852 6.7968589,23.037457 6.2671402,22.585053 6.2671402,22.585053 6.2128899,22.434912 6.194726,22.264111 6.194726,22.10312 6.1946484,21.78051 6.26714,21.497028 6.26714,21.497028 v 0 0 C 6.23709,21.446008 6.208291,21.394986 6.180857,21.344173 6.15988,21.305253 6.139752,21.266343 6.120239,21.227526 L 6.110228,21.206236 C 6.070373,21.125896 6.033438,21.045663 5.9999441,20.965739 l -0.00509,-0.01106 v 0 l 8.046e-4,2.36e-4 C 5.6604261,20.147343 5.6442529,19.355218 5.8422839,18.555892 c 0.046847,-0.188641 0.1054858,-0.377698 0.1747655,-0.567488 7.68e-5,-3.91e-4 2.339e-4,-8.05e-4 3.902e-4,-0.0012 7.86e-5,-3.13e-4 2.349e-4,-6.25e-4 3.135e-4,-8.93e-4 0.05509,-0.150872 0.1168574,-0.302161 0.184676,-0.454075 0.4653427,-0.522311 0.9384063,-0.889367 0.9384063,-0.889367 l 2.360517,1.158034 0.3735261,-0.08399 0.050607,0.0042 c 0.067931,0.123117 0.1689215,0.295169 0.3042465,0.498104 -0.06375,-0.01012 -0.126352,-0.02076 -0.187494,-0.03193 -0.22088,-0.04048 -0.4171385,-0.05562 -0.5867897,-0.05562 -0.454596,0 -0.7182552,0.108092 -0.7532076,0.123326 -0.388968,0.204499 -0.7067784,0.563523 -0.6314477,1.196223 0.1728857,1.45122 2.696796,3.566337 5.293636,4.305564 0.180607,0.05145 0.386359,0.0744 0.593885,0.0744 0.606719,0 1.228671,-0.196259 1.281883,-0.45157 0.02024,0.08942 0.03026,0.173616 0.03026,0.253851 -7.8e-5,0.0038 -7.8e-5,0.0079 -7.8e-5,0.01179 v 0 0 c 0.01461,0.09943 0.02191,0.195945 0.02191,0.289326 -2.35e-4,0.752373 -0.474002,1.300246 -1.365456,1.574235 -0.271904,0.08378 -0.596913,0.153062 -1.014781,0.153062 -7.9e-5,0 -2.36e-4,0 -2.36e-4,0"
       style="fill:#c4aead;fill-opacity:1;fill-rule:nonzero;stroke:none;stroke-width:0.0104337"
       id="path106" />
    <path
       d="m 13.110934,15.290328 c 0.124996,1.785413 0.107155,2.504086 -0.0088,2.700551 -0.483184,0.238723 -1.159495,0.265537 -1.879211,0.19751 l -0.01231,-0.0012 c -0.51,-0.048 -1.041179,-0.142838 -1.5399091,-0.242166 C 8.7466957,17.760868 8.0448227,17.67166 7.48902,17.659348 7.399808,17.32234 7.48223,16.935147 7.48223,16.935147 c -0.1183192,0.19417 -0.2510356,0.443013 -0.3526591,0.726392 -0.4396758,0.01795 -0.7766841,0.09046 -1.0656976,0.201996 -0.02671,-0.662853 0.5490212,-2.852257 1.281153,-5.191177 0.071369,-0.232148 0.1495156,-0.469828 0.2343399,-0.714184 0.032345,-0.0915 0.068029,-0.188641 0.1081979,-0.289014 0.00897,-0.02348 0.017842,-0.0458 0.027862,-0.06928 C 8.1618413,10.475063 8.6662067,9.4049851 9.382583,8.8681717 9.8289358,8.5334585 10.93376,8.0881488 11.903466,8.1016091 c 0.835843,0.012207 1.756407,0.1975086 2.172711,0.3893841 0.736514,0.2588611 0.95969,0.8849852 1.019893,1.4696892 0.146176,1.4082356 -1.626925,3.7784556 -1.985218,5.3296326"
       style="fill:#ee9b2a;fill-opacity:1;fill-rule:nonzero;stroke:none;stroke-width:0.0104337"
       id="path108" />
    <path
       d="m 14.480668,11.37707 c 0,0 -0.02743,0.100059 -0.07773,0.247488 -0.05009,0.147531 -0.122076,0.342537 -0.200641,0.535037 -0.155358,0.385839 -0.335756,0.761243 -0.335756,0.761243 l -0.09922,-0.05123 c 0,0 0.203874,-0.359857 0.38396,-0.732758 0.09088,-0.185928 0.175598,-0.374987 0.235384,-0.518449 0.05988,-0.14336 0.09401,-0.241331 0.09401,-0.241331"
       style="fill:#da7b1c;fill-opacity:1;fill-rule:nonzero;stroke:none;stroke-width:0.0104337"
       id="path110" />
    <path
       d="M 11.210543,18.187241 C 10.700544,18.139242 10.169365,18.044403 9.6706339,17.945076 8.7466266,17.760921 8.0447536,17.671713 7.4889509,17.6594 7.3997393,17.322394 7.482164,16.935199 7.482164,16.935199 7.3638465,17.12937 7.2311302,17.378213 7.1295057,17.661592 c -0.4396757,0.01795 -0.776684,0.09046 -1.0656975,0.201997 -0.026701,-0.662852 0.5490212,-2.852257 1.281153,-5.191178 0.071369,-0.232148 0.1495156,-0.469828 0.2343399,-0.714185 0.032345,-0.0915 0.068029,-0.188641 0.1081979,-0.289013 0.00897,-0.02348 0.017842,-0.0458 0.027862,-0.06928 0.3303303,0.659514 1.1093094,2.401521 0.9508226,3.871106 0,0 -0.1953181,1.285535 0.5668616,1.910513 0.7119953,0.584704 1.8323648,0.782213 1.9773918,0.805689"
       style="fill:#ea8d22;fill-opacity:1;fill-rule:nonzero;stroke:none;stroke-width:0.0104337"
       id="path112" />
    <path
       d="m 12.162199,8.1123689 c 0,0 1.139567,1.0641321 1.880567,0.4417619 L 14.648756,7.0758871 13.119907,6.0854158 12.982809,5.9013666 c 0,0 -0.02974,0.3067495 -0.07773,0.7546687 -0.02849,0.2539557 -0.04675,0.5538202 -0.09787,0.8655795 -0.0626,0.3813506 -0.645011,0.5907541 -0.645011,0.5907541"
       style="fill:#edb29c;fill-opacity:1;fill-rule:nonzero;stroke:none;stroke-width:0.0104337"
       id="path114" />
    <path
       d="m 16.354871,5.8414778 c 0,0 -0.07282,0.8743426 -0.553193,0.9553073 l 0.106944,-1.0427418 0.446249,0.087434"
       style="fill:#772229;fill-opacity:1;fill-rule:nonzero;stroke:none;stroke-width:0.0104337"
       id="path116" />
    <path
       d="m 13.084223,7.3024016 c 0.04728,0.1292738 0.103295,0.2560427 0.165271,0.378535 l 7.39e-4,0.00232 c 0.103917,0.2008494 0.231419,0.392515 0.379889,0.5662366 0.19146,0.2230719 0.37916,0.3757166 0.557055,0.478802 0.09338,0.058528 0.181651,0.099538 0.267416,0.1317778 0.397837,0.1460713 0.678815,0.054572 0.678815,0.054572 0.53744,-0.4622135 0.775849,-1.385385 0.879874,-2.1071882 0.0436,-0.2917256 0.06343,-0.5502723 0.07471,-0.7324444 0.0091,-0.1648531 0.0086,-0.2648067 0.0086,-0.2648067 l 0.0013,-0.019512 c 0.08138,-0.9464398 -1.113901,-1.308071 -2.081311,-1.0280313 -0.05707,0.01669 -0.111432,0.034845 -0.166627,0.058117 -0.275449,0.101937 -0.524187,0.2627197 -0.706151,0.4804711 -0.311029,0.3721696 -0.324801,0.8887415 -0.238723,1.3548137 0.0048,0.024826 0.0097,0.049669 0.0145,0.074495 0.04215,0.2095089 0.104233,0.4058709 0.164644,0.5718706"
       style="fill:#edb29c;fill-opacity:1;fill-rule:nonzero;stroke:none;stroke-width:0.0104337"
       id="path118" />
    <path
       d="m 14.191969,3.8585545 c 0.760302,-0.1603648 1.395087,0.357668 1.980835,0.77418 0.313845,0.2231764 0.159427,1.2050909 -0.153479,1.381003 -0.672242,0.3778036 -1.124231,-0.027121 -1.502243,-0.3278272 -0.0313,0.1556711 -0.08931,0.3233416 -0.197093,0.4240257 -0.09275,0.086497 -0.312905,0.1552532 -0.43498,0.1884321 -0.02493,0.1609926 -0.05186,0.3073773 -0.08023,0.4170353 l -0.187703,0.044034 c -0.01722,-0.065109 -0.03308,-0.1495156 -0.04978,-0.2593817 0,0 -0.04789,-0.4227738 -0.334816,-0.4644041 -0.08973,-0.01294 -0.251348,0.029112 -0.304038,0.1836331 -0.05279,0.1548353 0.0035,0.4222523 -0.02766,0.6347858 -0.03663,0.2503051 -0.06343,0.5024864 -0.09328,0.6663991 0,0 -0.509164,-0.6253957 -0.371544,-2.0369691 0.09056,-0.9423703 0.493096,-1.3813156 1.016346,-1.3694207 0.477341,0.01085 0.343894,-0.1719471 0.739644,-0.2555212"
       style="fill:#2e1617;fill-opacity:1;fill-rule:nonzero;stroke:none;stroke-width:0.0104337"
       id="path120" />
    <path
       d="m 12.415737,13.088611 c 0,0 0.01002,-3.91e-4 0.02776,-0.0022 0.09129,-0.0091 0.385107,-0.05342 0.546829,-0.255939 0.193232,-0.241748 0.358189,-0.422252 0.513651,-0.458664 0.155462,-0.03642 0.41067,0.01043 0.588356,0.0024 0.177685,-0.0081 0.46722,-0.02034 0.546098,0.06647 0.04465,0.04914 0.03506,0.122804 0.03506,0.122804 0,0 0.107155,-0.02827 0.376343,-0.16986 0.205753,-0.158696 0.353182,-0.212638 0.423712,-0.16913 0,0 0.143255,-0.08201 0.24008,-0.03913 0.06855,0.03036 0.102459,0.112477 0.0459,0.183113 -0.05656,0.07064 -0.333982,0.541403 -0.489966,0.672032 -0.155879,0.130631 -0.394081,0.43592 -0.690502,0.519598 -0.122282,0.03454 -0.794733,0.117276 -1.177545,0.217856 -0.382708,0.100581 -1.036273,0.374986 -1.036273,0.374986"
       style="fill:#edb29c;fill-opacity:1;fill-rule:nonzero;stroke:none;stroke-width:0.0104337"
       id="path122" />
    <path
       d="M 12.525082,13.045938 9.9677863,13.40663 C 10.311263,12.897257 11.129472,11.494032 11.456673,10.57545 11.782309,9.6613547 11.511861,9.0297001 11.112674,8.7494497 10.941771,8.6293588 10.680407,8.4024264 10.088191,8.5272119 8.7374456,8.8116353 7.9033759,10.964521 7.5329807,12.229398 c 0,0 -0.8826896,2.982887 0.5377523,3.57771 0.9273463,0.388239 4.189334,-0.76844 4.766004,-1.154382 0.340034,-0.227559 0.162348,-1.681806 -0.311655,-1.606788"
       style="fill:#ee9b2a;fill-opacity:1;fill-rule:nonzero;stroke:none;stroke-width:0.0104337"
       id="path124" />
    <path
       d="m 7.5329807,12.229398 c 0,0 -0.043713,0.162453 -0.099329,0.450734 -0.05551,0.287866 -0.1222833,0.703648 -0.1365768,1.204778 -0.00679,0.250096 0.00438,0.52231 0.05634,0.802247 0.053947,0.277327 0.1534797,0.569366 0.3537013,0.797655 0.099642,0.11258 0.2228638,0.208778 0.3666401,0.267833 0.0288,0.01441 0.074397,0.02692 0.1105974,0.03934 0.037355,0.0069 0.072727,0.0168 0.1117449,0.02212 0.078147,0.01148 0.1581734,0.0168 0.2389309,0.01867 0.3243838,0.0029 0.6562786,-0.04621 0.9833745,-0.109761 0.656071,-0.125205 1.300873,-0.314682 1.895176,-0.516573 0.296839,-0.102251 0.582094,-0.206169 0.848363,-0.314784 0.132925,-0.05457 0.260947,-0.110702 0.381351,-0.170278 0.06041,-0.02942 0.117901,-0.06135 0.171842,-0.09474 l 0.03423,-0.02827 c 0.0081,-0.01074 0.01763,-0.01784 0.02535,-0.0313 0.0168,-0.02358 0.03047,-0.05019 0.04194,-0.07752 0.0458,-0.110805 0.05999,-0.231105 0.06762,-0.343163 0.0067,-0.112893 0.003,-0.220985 -0.0069,-0.321775 -0.02034,-0.201787 -0.06489,-0.375404 -0.12437,-0.50812 -0.05801,-0.133239 -0.137829,-0.223177 -0.21076,-0.253226 -0.07293,-0.02942 -0.117901,-0.0143 -0.11717,-0.01732 -6.24e-4,0.0031 0.0432,-0.01461 0.119569,0.01179 0.07585,0.02712 0.164435,0.115294 0.227977,0.249469 0.06573,0.133239 0.117587,0.307795 0.145966,0.512504 0.02379,0.203665 0.04381,0.443014 -0.04371,0.693422 -0.01211,0.03089 -0.02692,0.06166 -0.04675,0.09098 -0.008,0.01482 -0.02316,0.02953 -0.03526,0.04403 -0.01408,0.01419 -0.02222,0.02014 -0.04048,0.03443 -0.05665,0.03704 -0.115395,0.07116 -0.176328,0.102668 -0.121553,0.06365 -0.249574,0.123222 -0.382395,0.181337 -0.26585,0.115605 -0.54996,0.228081 -0.848467,0.331374 -0.596285,0.207422 -1.242444,0.403158 -1.9057133,0.534518 -0.3321057,0.06176 -0.6689049,0.109658 -1.0065383,0.104232 -0.084514,-0.0026 -0.1688171,-0.0088 -0.2528082,-0.0217 -0.04215,-0.0062 -0.085765,-0.01816 -0.1282308,-0.02723 -0.040587,-0.0144 -0.074397,-0.02264 -0.1185255,-0.0433 C 7.8771072,15.778628 7.7416787,15.671783 7.6344203,15.548562 7.5271619,15.424401 7.4475528,15.283023 7.3904805,15.138413 7.3342388,14.993176 7.2993954,14.845644 7.2736231,14.701555 c -0.046847,-0.289431 -0.051544,-0.565923 -0.039025,-0.818836 0.024728,-0.506868 0.1135194,-0.92046 0.1778946,-1.207073 0.067404,-0.286614 0.1205089,-0.446249 0.1205089,-0.446249"
       style="fill:#da7b1c;fill-opacity:1;fill-rule:nonzero;stroke:none;stroke-width:0.0104337"
       id="path126" />
    <path
       d="m 16.219964,6.423259 c 0,0 -0.118318,0.082532 -0.555802,0.055822 C 14.686629,6.4187761 14.169954,6.3395814 13.275057,6.0292848 12.322043,5.6989544 12.431388,5.5394237 12.431388,5.5394237 c 0,-0.8157059 0.383855,-1.3133933 0.915034,-1.5633841 l 0.0046,-0.00232 c 0.784509,-0.3660141 1.889228,-0.190728 2.549888,0.3036205 0.340348,0.2543736 0.470874,0.6181963 0.499878,0.9752366 0.05134,0.595972 -0.180711,1.17066 -0.180711,1.17066"
       style="fill:#ee9b2a;fill-opacity:1;fill-rule:nonzero;stroke:none;stroke-width:0.0104337"
       id="path128" />
    <path
       d="m 6.2666445,21.497015 c 0,0 0.3531798,0.262617 0.9104435,0.61298 0.1376198,0.09004 0.2913085,0.180398 0.4519876,0.278684 0.1630778,0.09432 0.3351294,0.193649 0.513024,0.296525 0.1797717,0.09943 0.3638227,0.205231 0.5564287,0.302577 0.095676,0.04967 0.1920836,0.09985 0.288909,0.150141 0.09818,0.04747 0.1968834,0.09505 0.2954815,0.142733 0.1950064,0.09995 0.3951244,0.188953 0.5912774,0.278683 0.1946918,0.09296 0.3930358,0.168818 0.5820958,0.249051 0.188849,0.08118 0.375821,0.148055 0.551211,0.216813 0.08806,0.03359 0.173616,0.06615 0.25646,0.09776 0.08399,0.02838 0.165165,0.05571 0.243001,0.082 0.156296,0.05102 0.297881,0.10392 0.425381,0.144194 0.128125,0.0385 0.239766,0.0721 0.331791,0.09964 0.183842,0.05676 0.288908,0.0891 0.288908,0.0891 0,0 -0.107154,-0.02473 -0.294542,-0.06814 -0.09359,-0.02233 -0.207317,-0.04956 -0.337739,-0.08065 -0.130108,-0.03266 -0.274719,-0.07731 -0.432998,-0.124369 -0.07919,-0.02368 -0.161617,-0.04831 -0.246861,-0.07387 -0.0843,-0.0288 -0.171425,-0.05853 -0.260946,-0.0891 C 10.801543,24.038857 10.610501,23.97938 10.420399,23.89831 10.229358,23.81985 10.028927,23.745667 9.8320435,23.65458 9.6338044,23.566537 9.4311815,23.479623 9.2341926,23.380816 9.1354901,23.331781 9.0367867,23.28274 8.9385031,23.23391 8.8417821,23.18216 8.7453746,23.130617 8.6496985,23.079491 8.4573006,22.979432 8.2733541,22.870922 8.0938959,22.76888 7.9146448,22.666317 7.7465581,22.558328 7.5864005,22.457644 7.4284361,22.353306 7.277564,22.257316 7.1425526,22.162162 7.0054534,22.070136 6.8835889,21.980198 6.776017,21.900172 6.668237,21.820354 6.5760035,21.74857 6.500045,21.689411 6.3489657,21.570049 6.2666445,21.497014 6.2666445,21.497014"
       style="fill:#968788;fill-opacity:1;fill-rule:nonzero;stroke:none;stroke-width:0.0104337"
       id="path130" />
    <path
       d="m 11.437058,19.63721 c 0,0 0.08409,0.04361 0.227454,0.126667 0.142524,0.0843 0.347442,0.203352 0.584704,0.359856 0.118526,0.07835 0.246444,0.164018 0.3801,0.257191 0.13355,0.09338 0.274405,0.19198 0.414633,0.301325 0.141691,0.107571 0.285259,0.222446 0.429348,0.341496 0.144087,0.119047 0.28703,0.244251 0.42778,0.372064 0.137726,0.131151 0.273362,0.264599 0.400655,0.402114 0.06365,0.06886 0.127082,0.136787 0.186032,0.207422 0.06082,0.06897 0.118317,0.13929 0.172991,0.210134 0.11237,0.139187 0.208046,0.28411 0.29329,0.424443 0.0433,0.0697 0.07825,0.142107 0.115918,0.209508 0.03422,0.06939 0.06332,0.138455 0.09328,0.203562 0.02399,0.06772 0.04694,0.132612 0.06887,0.194275 0.01503,0.06375 0.02932,0.124264 0.04267,0.181025 0.0168,0.115709 0.02943,0.21629 0.02452,0.300177 0.0041,0.08358 -0.01252,0.147949 -0.01805,0.191875 -0.0069,0.04382 -0.01055,0.06709 -0.01055,0.06709 0,0 0.0016,-0.02357 0.0046,-0.06792 0.0022,-0.04424 0.01117,-0.108512 0.0023,-0.190727 -5.42e-4,-0.08221 -0.01962,-0.1804 -0.0433,-0.291519 -0.0167,-0.05446 -0.03454,-0.112265 -0.05322,-0.173303 -0.02399,-0.05915 -0.04915,-0.121344 -0.07543,-0.18624 -0.03203,-0.06239 -0.06302,-0.12844 -0.09902,-0.194799 -0.03964,-0.06448 -0.07637,-0.133341 -0.121553,-0.199909 -0.089,-0.133968 -0.189268,-0.270859 -0.299967,-0.407331 -0.05457,-0.06876 -0.112059,-0.137203 -0.172992,-0.204291 -0.05885,-0.06876 -0.122283,-0.134908 -0.185928,-0.201893 -0.12731,-0.134072 -0.263365,-0.263867 -0.40088,-0.392098 C 13.687692,21.349174 13.547776,21.22324 13.406504,21.103253 13.265128,20.983265 13.124167,20.867348 12.984879,20.758627 12.70687,20.54035 12.444671,20.339397 12.213878,20.17538 11.983189,20.011154 11.790688,19.873951 11.653068,19.782239 11.515657,19.6899 11.437092,19.63721 11.437092,19.63721"
       style="fill:#968788;fill-opacity:1;fill-rule:nonzero;stroke:none;stroke-width:0.0104337"
       id="path132" />
    <path
       d="m 16.219964,6.423259 c 0,0 -0.118318,0.082532 -0.555802,0.055822 C 14.686629,6.4187761 14.169954,6.3395814 13.275057,6.0292848 12.322043,5.6989544 12.431388,5.5394237 12.431388,5.5394237 c 0,-0.8157059 0.383855,-1.3133933 0.915034,-1.5633841 -0.04914,0.032345 -0.4836,0.3784288 -0.133134,0.8427293 0.371544,0.4932 2.116578,0.6869535 2.588181,0.6738075 0.485166,-0.013565 0.564671,-0.065842 0.599206,-0.2399747 0.05134,0.595972 -0.180711,1.1706591 -0.180711,1.1706591"
       style="fill:#ea8d22;fill-opacity:1;fill-rule:nonzero;stroke:none;stroke-width:0.0104337"
       id="path134" />
    <path
       d="m 13.013066,7.0920595 c 0,0 0.03297,0.135741 0.115814,0.325843 0.03943,0.095677 0.09474,0.2032498 0.159009,0.3149947 0.06323,0.1124745 0.14096,0.2265136 0.225995,0.334398 0.03954,0.056349 0.08743,0.1060073 0.130002,0.1585931 0.04434,0.051232 0.09296,0.096825 0.137412,0.1436718 0.0458,0.045481 0.09359,0.085657 0.136682,0.1263509 0.04237,0.04173 0.08868,0.073557 0.128856,0.1062154 0.04163,0.030782 0.07648,0.06385 0.112162,0.08639 0.03475,0.023888 0.0651,0.044758 0.09004,0.061975 0.04978,0.035059 0.07815,0.055188 0.07815,0.055188 0,0 -0.03047,-0.01669 -0.08378,-0.045901 -0.0266,-0.015029 -0.05885,-0.033175 -0.09588,-0.054045 -0.03819,-0.019191 -0.07585,-0.049044 -0.119258,-0.078353 -0.04246,-0.030675 -0.09119,-0.060519 -0.136367,-0.1001634 -0.0458,-0.03881 -0.09724,-0.076585 -0.144089,-0.1225959 -0.04601,-0.046749 -0.09641,-0.092546 -0.142525,-0.1437763 -0.04434,-0.052795 -0.09422,-0.102563 -0.135533,-0.1594262 -0.08472,-0.111745 -0.161827,-0.2292283 -0.224012,-0.3449382 -0.0337,-0.056447 -0.05738,-0.1157099 -0.08378,-0.1696512 -0.02212,-0.056027 -0.0458,-0.1076755 -0.06229,-0.1575492 -0.07116,-0.1976149 -0.0866,-0.3372172 -0.0866,-0.3372172"
       style="fill:#da947f;fill-opacity:1;fill-rule:nonzero;stroke:none;stroke-width:0.0104337"
       id="path136" />
    <path
       d="m 14.673483,12.563485 c 0,0 0.0018,0.01586 -0.01044,0.0408 -0.01211,0.02421 -0.03996,0.05665 -0.08389,0.07596 -0.04423,0.01816 -0.09171,0.03569 -0.147845,0.05081 -0.0554,0.01503 -0.116231,0.02379 -0.176537,0.02974 -0.06041,0.0053 -0.120927,0.006 -0.175286,0.0092 -0.05446,0.0039 -0.106215,0.0085 -0.149724,0.01658 -0.08754,0.01408 -0.145758,0.03078 -0.145758,0.03078 0,0 0.05123,-0.03339 0.138455,-0.06124 0.0436,-0.01325 0.09505,-0.02743 0.152227,-0.03506 0.05718,-0.0082 0.116545,-0.0095 0.175181,-0.01575 0.05885,-0.0047 0.116754,-0.01221 0.170695,-0.02201 0.05311,-0.01065 0.106842,-0.02056 0.147116,-0.03213 0.04038,-0.01252 0.07095,-0.03234 0.08629,-0.05259 0.01597,-0.01972 0.01951,-0.03506 0.01951,-0.03506"
       style="fill:#da947f;fill-opacity:1;fill-rule:nonzero;stroke:none;stroke-width:0.0104337"
       id="path138" />
    <path
       d="m 15.473537,12.224493 c 0,0 0.0192,0.0012 0.05019,0.01503 0.0144,0.0078 0.03579,0.01742 0.04612,0.04465 0.0081,0.03068 -0.01086,0.05665 -0.02243,0.08086 -0.02796,0.05008 -0.06291,0.106319 -0.105172,0.163391 -0.02149,0.0285 -0.04299,0.0579 -0.06918,0.08629 -0.02807,0.03224 -0.06051,0.04904 -0.08942,0.07325 -0.120196,0.08942 -0.244149,0.174138 -0.338574,0.2358 -0.09442,0.06166 -0.16026,0.09933 -0.16026,0.09933 0,0 0.05468,-0.05175 0.14075,-0.123951 0.08618,-0.0721 0.202831,-0.166001 0.323444,-0.255 0.02901,-0.02306 0.06426,-0.04215 0.08472,-0.06615 0.02399,-0.02576 0.04789,-0.05301 0.06991,-0.07971 0.04402,-0.05373 0.08608,-0.103919 0.116962,-0.149515 0.0145,-0.02348 0.03151,-0.04351 0.02922,-0.05936 -0.0027,-0.01784 -0.01909,-0.03162 -0.03152,-0.04048 -0.02639,-0.01816 -0.04476,-0.02441 -0.04476,-0.02441"
       style="fill:#da947f;fill-opacity:1;fill-rule:nonzero;stroke:none;stroke-width:0.0104337"
       id="path140" />
    <path
       d="m 11.456673,10.57545 c -0.04153,0.127186 -0.08879,0.252286 -0.137307,0.376968 -0.04956,0.124162 -0.09808,0.249052 -0.15275,0.371127 -0.10778,0.244878 -0.219524,0.488296 -0.340972,0.727124 -0.122804,0.237887 -0.250722,0.473376 -0.386047,0.70469 -0.06699,0.116023 -0.135117,0.231524 -0.207839,0.344105 -0.07095,0.113727 -0.147324,0.22401 -0.220777,0.336068 l -0.050714,-0.08033 0.540153,-0.07199 c 0.17998,-0.02452 0.360692,-0.0434 0.540986,-0.06542 0.180503,-0.02045 0.360484,-0.04434 0.541299,-0.06166 0.180712,-0.01836 0.361215,-0.0384 0.542239,-0.05373 -0.178416,0.03547 -0.357458,0.06606 -0.536291,0.09839 -0.178729,0.03339 -0.358188,0.0602 -0.53723,0.09046 -0.179251,0.0288 -0.358085,0.06052 -0.537648,0.0867 l -0.5384831,0.08013 -0.1121628,0.01669 0.061457,-0.09703 c 0.071155,-0.112371 0.1452369,-0.222864 0.2139939,-0.3368 0.06887,-0.113831 0.141585,-0.225159 0.208778,-0.340034 0.13783,-0.227663 0.268459,-0.459708 0.394081,-0.694466 l 0.189059,-0.352032 c 0.06135,-0.118319 0.122283,-0.236845 0.181024,-0.356415 l 0.176433,-0.359232 0.168713,-0.363301"
       style="fill:#da7b1c;fill-opacity:1;fill-rule:nonzero;stroke:none;stroke-width:0.0104337"
       id="path142" />
    <path
       d="m 9.9693517,13.46245 c -0.00241,8e-5 -0.010752,-8.05e-4 -0.036631,0.0022 -0.024933,0.003 -0.06135,0.01158 -0.1040249,0.02766 -0.085559,0.03203 -0.1914567,0.105171 -0.2739877,0.204604 -0.021495,0.02409 -0.041632,0.04925 -0.05926,0.07596 -0.018887,0.02588 -0.036935,0.05175 -0.051545,0.07866 -0.014922,0.02671 -0.031827,0.05144 -0.043606,0.077 -0.012315,0.02545 -0.023888,0.04946 -0.034747,0.07168 -0.021807,0.04434 -0.034336,0.08378 -0.04591,0.110389 -0.010645,0.02691 -0.01669,0.04236 -0.01669,0.04236 0,0 0.00438,-0.01597 0.012208,-0.04382 0.00857,-0.02766 0.01711,-0.06855 0.03422,-0.115396 0.00848,-0.02348 0.017735,-0.04894 0.027442,-0.07585 0.00918,-0.02734 0.023575,-0.05404 0.035997,-0.08295 0.012109,-0.02911 0.027648,-0.0577 0.044338,-0.0865 0.015342,-0.02953 0.033595,-0.05801 0.05342,-0.08566 0.07554,-0.113519 0.1826945,-0.207735 0.2791011,-0.256148 0.047892,-0.02421 0.091086,-0.03944 0.1230129,-0.04685 0.031095,-0.0075 0.056027,-0.0091 0.053527,-0.0088 l 0.00313,0.111535"
       style="fill:#da7b1c;fill-opacity:1;fill-rule:nonzero;stroke:none;stroke-width:0.0104337"
       id="path144" />
    <path
       d="m 9.9956437,13.455043 c -0.00241,0.0015 -0.00643,0.0022 -0.02587,0.0169 -0.017637,0.01356 -0.043097,0.03663 -0.069181,0.07001 -0.026603,0.03287 -0.054572,0.07523 -0.079398,0.124265 -0.026192,0.04831 -0.048106,0.10371 -0.067717,0.160157 -0.0192,0.05655 -0.035997,0.114562 -0.047892,0.16986 -0.013877,0.05498 -0.021289,0.107467 -0.029532,0.152332 -0.0075,0.04497 -0.01085,0.08285 -0.01461,0.10924 -0.00321,0.0264 -0.00527,0.04153 -0.00527,0.04153 0,0 2.348e-4,-0.01524 3.911e-4,-0.04184 7.376e-4,-0.0266 -3.125e-4,-0.06489 0.00196,-0.110701 0.00313,-0.0457 0.00455,-0.09943 0.012207,-0.156507 0.00554,-0.05738 0.015753,-0.118317 0.028898,-0.179041 0.013574,-0.06052 0.029844,-0.121135 0.05175,-0.176224 0.020655,-0.05562 0.046017,-0.106006 0.072307,-0.147533 0.025656,-0.04184 0.053214,-0.07418 0.075432,-0.09578 0.020343,-0.02065 0.043088,-0.03506 0.040694,-0.03339 l 0.055715,0.09672"
       style="fill:#da7b1c;fill-opacity:1;fill-rule:nonzero;stroke:none;stroke-width:0.0104337"
       id="path146" />
    <path
       d="m 11.450308,24.202784 c 0,0 0.01983,0.04528 0.06135,0.110075 0.0411,0.06416 0.102459,0.14701 0.178207,0.216185 0.03756,0.03454 0.07732,0.06741 0.11811,0.09296 0.03975,0.02723 0.08034,0.04758 0.115814,0.06282 0.03537,0.01586 0.06605,0.02608 0.08817,0.03141 0.02181,0.0063 0.03422,0.01002 0.03422,0.01002 0,0 -0.01263,-0.0028 -0.03485,-0.0077 -0.02253,-0.0039 -0.05395,-0.01211 -0.09077,-0.02567 -0.03684,-0.01305 -0.0794,-0.03089 -0.121762,-0.05592 -0.0434,-0.02326 -0.08628,-0.05405 -0.127289,-0.08702 -0.08253,-0.06584 -0.151497,-0.146802 -0.198658,-0.210552 -0.04705,-0.06343 -0.07251,-0.111953 -0.07251,-0.111953 l -3.15e-4,-6.25e-4 c -0.0071,-0.01367 -0.0019,-0.03058 0.01179,-0.03767 0.01367,-0.0071 0.03058,-0.0019 0.03767,0.01179 l 8.06e-4,0.0018"
       style="fill:#968788;fill-opacity:1;fill-rule:nonzero;stroke:none;stroke-width:0.0104337"
       id="path148" />
  </g>
</svg>
